<svg xmlns="http://www.w3.org/2000/svg" xmlns:xlink="http://www.w3.org/1999/xlink" fill="none" version="1.1" width="48" height="57" viewBox="0 0 48 57"><defs><filter id="master_svg0_1_2988" filterUnits="objectBoundingBox" color-interpolation-filters="sRGB" x="0" y="0" width="14" height="8"><feFlood flood-opacity="0" result="BackgroundImageFix"/><feBlend mode="normal" in="SourceGraphic" in2="BackgroundImageFix" result="shape"/><feColorMatrix in="SourceAlpha" type="matrix" result="hardAlpha" values="0 0 0 0 0 0 0 0 0 0 0 0 0 0 0 0 0 0 127 0"/><feOffset dy="0" dx="0"/><feGaussianBlur stdDeviation="1.5"/><feComposite in2="hardAlpha" operator="arithmetic" k2="-1" k3="1"/><feColorMatrix type="matrix" values="0 0 0 0 0.1882352977991104 0 0 0 0 0.7686274647712708 0 0 0 0 1 0 0 0 0.800000011920929 0"/><feBlend mode="normal" in2="shape" result="effect1_innerShadow"/></filter><filter id="master_svg1_1_2990" filterUnits="objectBoundingBox" color-interpolation-filters="sRGB" x="-8" y="-6" width="52" height="59"><feFlood flood-opacity="0" result="BackgroundImageFix"/><feColorMatrix in="SourceAlpha" type="matrix" values="0 0 0 0 0 0 0 0 0 0 0 0 0 0 0 0 0 0 127 0"/><feOffset dy="2" dx="0"/><feGaussianBlur stdDeviation="2"/><feColorMatrix type="matrix" values="0 0 0 0 0 0 0 0 0 0 0 0 0 0 0 0 0 0 0.20000000298023224 0"/><feBlend mode="normal" in2="BackgroundImageFix" result="effect1_dropShadow"/><feBlend mode="normal" in="SourceGraphic" in2="effect1_dropShadow" result="shape"/></filter><linearGradient x1="0.5" y1="0" x2="0.5" y2="0.9321523308753967" id="master_svg2_1_2945"><stop offset="3.57142873108387%" stop-color="#52C3FF" stop-opacity="1"/><stop offset="100%" stop-color="#0073FF" stop-opacity="1"/></linearGradient><linearGradient x1="0.5" y1="0" x2="0.5" y2="1" id="master_svg3_1_766"><stop offset="0%" stop-color="#EFF7FF" stop-opacity="1"/><stop offset="100%" stop-color="#DBEDFF" stop-opacity="0.10350196808576584"/></linearGradient><filter id="master_svg4_1_3111" filterUnits="objectBoundingBox" color-interpolation-filters="sRGB" x="-4" y="-3" width="30" height="30"><feFlood flood-opacity="0" result="BackgroundImageFix"/><feColorMatrix in="SourceAlpha" type="matrix" values="0 0 0 0 0 0 0 0 0 0 0 0 0 0 0 0 0 0 127 0"/><feOffset dy="1" dx="0"/><feGaussianBlur stdDeviation="1"/><feColorMatrix type="matrix" values="0 0 0 0 0 0 0 0 0 0 0 0 0 0 0 0 0 0 0.5 0"/><feBlend mode="normal" in2="BackgroundImageFix" result="effect1_dropShadow"/><feBlend mode="normal" in="SourceGraphic" in2="effect1_dropShadow" result="shape"/></filter><linearGradient x1="0.5" y1="0.6344903707504272" x2="0.5" y2="0.004050168674439192" id="master_svg5_1_752"><stop offset="0%" stop-color="#AAF1FF" stop-opacity="1"/><stop offset="100%" stop-color="#FFFFFF" stop-opacity="1"/></linearGradient></defs><g><g filter="url(#master_svg0_1_2988_new)"><ellipse cx="24" cy="53" rx="7" ry="4" fill="#0073FF" fill-opacity="0.10196078568696976"/></g><g><ellipse cx="24" cy="53" rx="2" ry="1" fill="#0073FF" fill-opacity="1"/></g><g filter="url(#master_svg1_1_2990)"><path d="M11.27131,34.4047C7.89764,31.0742,6.000000000000003,26.5407,6,21.8112C5.999999999999997,17.0818,7.89764,12.5482,11.27131,9.21773C18.3005,2.2607600000000003,29.6985,2.2607600000000003,36.7278,9.21773C40.102,12.54827,42,17.0822,42,21.8121C42,26.542,40.102,31.076,36.7278,34.4065L24,47L11.27131,34.4047Z" fill="url(#master_svg2_1_2945)" fill-opacity="1"/><path d="M11.27131,34.4047C7.89764,31.0742,6,26.5407,6,21.8112C6,17.0818,7.89764,12.5482,11.27131,9.21773C18.3005,2.2607600000000003,29.6985,2.2607600000000003,36.7278,9.21773C40.102,12.54827,42,17.0822,42,21.8121C42,26.542,40.102,31.076,36.7278,34.4065L24,47L11.27131,34.4047ZM11.97468,33.6939L24,45.5932L36.0253,33.6948Q38.4134,31.3376,39.7068,28.2479Q41,25.1587,41,21.8121Q41,18.465600000000002,39.7068,15.3763Q38.4134,12.2866,36.0243,9.92848Q33.5785,7.50777,30.4008,6.23248Q27.3297,5,23.9995,5Q20.6694,5,17.598300000000002,6.23248Q14.42061,7.50777,11.97384,9.92938Q9.58616,12.28649,8.29298,15.376Q7,18.465,7,21.8112Q7,25.1575,8.29298,28.2465Q9.58616,31.336,11.97384,33.6931L11.97468,33.6939Z" fill-rule="evenodd" fill="url(#master_svg3_1_766)" fill-opacity="1"/></g><g filter="url(#master_svg4_1_3111)"><path d="M13,25L13,17Q13,16.852710000000002,13.00722726,16.70559Q13.0144545,16.55848,13.0288916,16.4119Q13.0433288,16.26531,13.0649409,16.11962Q13.0865531,15.97392,13.115288,15.829460000000001Q13.144023,15.684999999999999,13.179812,15.54212Q13.215601,15.399239999999999,13.258358,15.258289999999999Q13.301114,15.11734,13.350736,14.97866Q13.400357,14.83998,13.456723,14.7039Q13.513089,14.567820000000001,13.576064,14.43467Q13.63904,14.30152,13.708472,14.17162Q13.777905,14.04172,13.853628,13.915379999999999Q13.929351,13.78905,14.01118,13.66658Q14.09301,13.54411,14.18075,13.4258Q14.2685,13.307500000000001,14.36194,13.19364Q14.45538,13.07978,14.55429,12.97065Q14.65321,12.861509999999999,14.75736,12.75736Q14.861509999999999,12.65321,14.97065,12.55429Q15.07978,12.45538,15.19364,12.36194Q15.307500000000001,12.2685,15.4258,12.18075Q15.54411,12.09301,15.66658,12.01118Q15.78905,11.929351,15.915379999999999,11.853628Q16.04172,11.777905,16.17162,11.708472Q16.30152,11.63904,16.43467,11.576064Q16.56782,11.513089,16.7039,11.456723Q16.83998,11.400357,16.97866,11.350736Q17.11734,11.301114,17.25829,11.258358Q17.39924,11.215601,17.54212,11.179812Q17.685,11.144023,17.82946,11.115288Q17.97392,11.0865531,18.11962,11.0649409Q18.26532,11.0433288,18.4119,11.0288916Q18.55848,11.0144545,18.70559,11.00722726Q18.852710000000002,11,19,11L29,11Q29.1473,11,29.2944,11.00722726Q29.4415,11.0144545,29.5881,11.0288916Q29.7347,11.0433288,29.8804,11.0649409Q30.0261,11.0865531,30.1705,11.115288Q30.315,11.144023,30.4579,11.179812Q30.6008,11.215601,30.7417,11.258358Q30.8827,11.301114,31.0213,11.350736Q31.16,11.400357,31.2961,11.456723Q31.4322,11.513089,31.5653,11.576064Q31.6985,11.63904,31.8284,11.708472Q31.9583,11.777905,32.084599999999995,11.853628Q32.210899999999995,11.929351,32.3334,12.01118Q32.4559,12.09301,32.574200000000005,12.18075Q32.692499999999995,12.2685,32.8064,12.36194Q32.9202,12.45538,33.029399999999995,12.55429Q33.1385,12.65321,33.242599999999996,12.75736Q33.3468,12.861509999999999,33.4457,12.97065Q33.5446,13.07978,33.6381,13.19364Q33.7315,13.307500000000001,33.819199999999995,13.4258Q33.907,13.54411,33.9888,13.66658Q34.0706,13.78905,34.1464,13.915379999999999Q34.2221,14.04172,34.2915,14.17162Q34.361000000000004,14.30152,34.4239,14.43467Q34.4869,14.567820000000001,34.5433,14.7039Q34.599599999999995,14.83998,34.6493,14.97866Q34.698899999999995,15.11734,34.7416,15.258289999999999Q34.784400000000005,15.399239999999999,34.8202,15.54212Q34.856,15.684999999999999,34.884699999999995,15.829460000000001Q34.913399999999996,15.97392,34.9351,16.11962Q34.9567,16.26532,34.9711,16.4119Q34.9855,16.55848,34.9928,16.70559Q35,16.852710000000002,35,17L35,25Q35,25.2318,34.9821,25.463Q34.964200000000005,25.694200000000002,34.9285,25.9232Q34.8929,26.1523,34.839600000000004,26.378Q34.7864,26.6036,34.715900000000005,26.8245Q34.645399999999995,27.0454,34.558,27.2601Q34.4707,27.4749,34.3671,27.6823Q34.263400000000004,27.8897,34.1441,28.0884Q34.024699999999996,28.2872,33.8904,28.4762Q33.7561,28.6652,33.607600000000005,28.8432Q33.4591,29.0212,33.2973,29.1873Q33.1355,29.3533,32.9613,29.5064Q32.7872,29.6595,32.6018,29.7987Q32.416399999999996,29.9378,32.2207,30.0623Q32.025099999999995,30.1867,31.8205,30.2957Q31.6159,30.4047,31.4034,30.4976Q31.191,30.5905,30.972,30.6667Q31,30.8322,31,31Q31,31.0983,30.9904,31.196Q30.9807,31.2938,30.9616,31.3902Q30.9424,31.4865,30.9139,31.5806Q30.8854,31.6746,30.8478,31.7654Q30.8102,31.8561,30.7638,31.9428Q30.7175,32.029399999999995,30.6629,32.1111Q30.6084,32.1928,30.546,32.2688Q30.4837,32.3447,30.4142,32.4142Q30.3447,32.4837,30.2688,32.546Q30.1928,32.6084,30.1111,32.6629Q30.0294,32.7175,29.9428,32.7638Q29.8561,32.810199999999995,29.7654,32.8478Q29.6746,32.885400000000004,29.5806,32.9139Q29.4865,32.9424,29.3902,32.961600000000004Q29.2938,32.9807,29.196,32.9904Q29.0983,33,29,33L19,33Q18.90175,33,18.80397,32.9904Q18.70618,32.9807,18.60982,32.961600000000004Q18.51345,32.9424,18.41943,32.9139Q18.325409999999998,32.885400000000004,18.23463,32.8478Q18.14386,32.810199999999995,18.05721,32.7638Q17.97055,32.7175,17.88886,32.6629Q17.80716,32.6084,17.73121,32.546Q17.65526,32.4837,17.58579,32.4142Q17.51631,32.3447,17.45398,32.2688Q17.39165,32.1928,17.33706,32.1111Q17.28247,32.029399999999995,17.236159999999998,31.9428Q17.18984,31.8561,17.15224,31.7654Q17.11464,31.6746,17.08612,31.5806Q17.0576,31.4865,17.038429999999998,31.3902Q17.01926,31.2938,17.00963,31.196Q17,31.0983,17,31Q17,30.8322,17.02798,30.6667Q16.80901,30.5905,16.59658,30.4976Q16.38414,30.4047,16.17951,30.2957Q15.97488,30.1867,15.77926,30.0623Q15.58365,29.9378,15.39823,29.7987Q15.2128,29.6595,15.03867,29.5064Q14.86453,29.3533,14.70273,29.1873Q14.54093,29.0212,14.39242,28.8432Q14.24392,28.6652,14.10959,28.4762Q13.97527,28.2872,13.855929,28.0884Q13.736587,27.8897,13.632941,27.6823Q13.529294,27.4749,13.44196,27.2601Q13.354626,27.0454,13.284126,26.8245Q13.213625,26.6036,13.160379,26.378Q13.107132,26.1523,13.0714569,25.9232Q13.0357818,25.694200000000002,13.0178909,25.463Q13,25.2318,13,25ZM16,17L16,20Q16,20.14738,16.01445,20.29405Q16.02889,20.44072,16.05764,20.58527Q16.0864,20.72982,16.129179999999998,20.87085Q16.17196,21.0119,16.22836,21.148Q16.28476,21.2842,16.35424,21.4142Q16.42371,21.5442,16.50559,21.6667Q16.58747,21.7893,16.68097,21.9032Q16.77447,22.0171,16.87868,22.121299999999998Q16.98289,22.2255,17.09682,22.319000000000003Q17.21075,22.4125,17.333289999999998,22.4944Q17.45583,22.5763,17.585810000000002,22.6458Q17.71579,22.7152,17.851950000000002,22.7716Q17.98811,22.828,18.12915,22.8708Q18.27018,22.913600000000002,18.41473,22.9424Q18.55928,22.9711,18.70595,22.985599999999998Q18.85262,23,19,23L29,23Q29.1474,23,29.2941,22.985599999999998Q29.4407,22.9711,29.5853,22.9424Q29.7298,22.913600000000002,29.8709,22.8708Q30.0119,22.828,30.148,22.7716Q30.2842,22.7152,30.4142,22.6458Q30.5442,22.5763,30.6667,22.4944Q30.7893,22.4125,30.9032,22.319000000000003Q31.0171,22.2255,31.1213,22.121299999999998Q31.2255,22.0171,31.319,21.9032Q31.4125,21.7893,31.4944,21.6667Q31.5763,21.5442,31.6458,21.4142Q31.7152,21.2842,31.7716,21.148Q31.828,21.0119,31.8708,20.87085Q31.9136,20.72982,31.9424,20.58527Q31.9711,20.44072,31.9856,20.29405Q32,20.14738,32,20L32,17Q32,16.85262,31.9856,16.70595Q31.9711,16.55928,31.9424,16.41473Q31.9136,16.27018,31.8708,16.12915Q31.828,15.988109999999999,31.7716,15.85195Q31.7152,15.71579,31.6458,15.58581Q31.5763,15.455829999999999,31.4944,15.33329Q31.4125,15.21075,31.319,15.096820000000001Q31.2255,14.98289,31.1213,14.87868Q31.0171,14.77447,30.9032,14.68097Q30.7893,14.58747,30.6667,14.50559Q30.5442,14.42371,30.4142,14.35424Q30.2842,14.28476,30.148,14.22836Q30.0119,14.17196,29.8709,14.12918Q29.7298,14.0864,29.5853,14.05764Q29.4407,14.02889,29.2941,14.01445Q29.1474,14,29,14L19,14Q18.85262,14,18.70595,14.01445Q18.55928,14.02889,18.41473,14.05764Q18.27018,14.0864,18.12915,14.12918Q17.98811,14.17196,17.851950000000002,14.22836Q17.71579,14.28476,17.585810000000002,14.35424Q17.45583,14.42371,17.333289999999998,14.50559Q17.21075,14.58747,17.09682,14.68097Q16.98289,14.77447,16.87868,14.87868Q16.77447,14.98289,16.68097,15.096820000000001Q16.58747,15.21075,16.50559,15.33329Q16.42371,15.455829999999999,16.35424,15.58581Q16.28476,15.71579,16.22836,15.85195Q16.17196,15.988109999999999,16.129179999999998,16.12915Q16.0864,16.27018,16.05764,16.41473Q16.02889,16.55928,16.01445,16.70595Q16,16.85262,16,17ZM24,19L23,22L26,18L25,18L27,15L24,15L23,19L24,19ZM18,27Q18,26.9015,18.01921,26.8049Q18.038429999999998,26.7083,18.07612,26.6173Q18.11381,26.5263,18.16853,26.4444Q18.22325,26.3625,18.29289,26.2929Q18.36254,26.2232,18.44443,26.1685Q18.52632,26.113799999999998,18.61732,26.0761Q18.70831,26.0384,18.80491,26.019199999999998Q18.901510000000002,26,19,26L29,26Q29.0985,26,29.1951,26.019199999999998Q29.2917,26.0384,29.3827,26.0761Q29.4737,26.113799999999998,29.5556,26.1685Q29.6375,26.2232,29.7071,26.2929Q29.7767,26.3625,29.8315,26.4444Q29.8862,26.5263,29.9239,26.6173Q29.9616,26.7083,29.9808,26.8049Q30,26.9015,30,27Q30,27.0985,29.9808,27.1951Q29.9616,27.2917,29.9239,27.3827Q29.8862,27.4737,29.8315,27.5556Q29.7767,27.6375,29.7071,27.7071Q29.6375,27.7767,29.5556,27.8315Q29.4737,27.8862,29.3827,27.9239Q29.2917,27.9616,29.1951,27.9808Q29.0985,28,29,28L19,28Q18.901510000000002,28,18.80491,27.9808Q18.70831,27.9616,18.61732,27.9239Q18.52632,27.8862,18.44443,27.8315Q18.36254,27.7767,18.29289,27.7071Q18.22325,27.6375,18.16853,27.5556Q18.11381,27.4737,18.07612,27.3827Q18.038429999999998,27.2917,18.01921,27.1951Q18,27.0985,18,27Z" fill-rule="evenodd" fill="url(#master_svg5_1_752)" fill-opacity="1"/></g></g></svg>