<svg xmlns="http://www.w3.org/2000/svg" xmlns:xlink="http://www.w3.org/1999/xlink" fill="none" version="1.1" width="48" height="57" viewBox="0 0 48 57"><defs><filter id="master_svg0_1_3254_new" filterUnits="objectBoundingBox" color-interpolation-filters="sRGB" x="0" y="0" width="14" height="8"><feFlood flood-opacity="0" result="BackgroundImageFix"/><feBlend mode="normal" in="SourceGraphic" in2="BackgroundImageFix" result="shape"/><feColorMatrix in="SourceAlpha" type="matrix" result="hardAlpha" values="0.890 0.451 0.094 0 0 0.890 0.451 0.094 0 0 0.890 0.451 0.094 0 0 0 0 0 1 0"/><feOffset dy="0" dx="0"/><feGaussianBlur stdDeviation="1.5"/><feComposite in2="hardAlpha" operator="arithmetic" k2="-1" k3="1"/><feColorMatrix type="matrix" values="0.890 0.451 0.094 0 0 0.890 0.451 0.094 0 0 0.890 0.451 0.094 0 0 0 0 0 1 0"/><feBlend mode="normal" in2="shape" result="effect1_innerShadow"/></filter><filter id="master_svg1_1_3256" filterUnits="objectBoundingBox" color-interpolation-filters="sRGB" x="-8" y="-6" width="52" height="59"><feFlood flood-opacity="0" result="BackgroundImageFix"/><feColorMatrix in="SourceAlpha" type="matrix" values="0 0 0 0 0 0 0 0 0 0 0 0 0 0 0 0 0 0 127 0"/><feOffset dy="2" dx="0"/><feGaussianBlur stdDeviation="2"/><feColorMatrix type="matrix" values="0 0 0 0 0 0 0 0 0 0 0 0 0 0 0 0 0 0 0.20000000298023224 0"/><feBlend mode="normal" in2="BackgroundImageFix" result="effect1_dropShadow"/><feBlend mode="normal" in="SourceGraphic" in2="effect1_dropShadow" result="shape"/></filter><linearGradient x1="0.5" y1="0" x2="0.5" y2="0.9321523308753967" id="master_svg2_1_2945_new"><stop offset="3.57142873108387%" stop-color="#E37318" stop-opacity="1"/><stop offset="100%" stop-color="#E37318" stop-opacity="1"/></linearGradient><linearGradient x1="0.5" y1="0" x2="0.5" y2="1" id="master_svg3_1_766"><stop offset="0%" stop-color="#E37318" stop-opacity="1"/><stop offset="100%" stop-color="#E37318" stop-opacity="0.10350196808576584"/></linearGradient><filter id="master_svg4_1_3302" filterUnits="objectBoundingBox" color-interpolation-filters="sRGB" x="-4" y="-3" width="30" height="27"><feFlood flood-opacity="0" result="BackgroundImageFix"/><feColorMatrix in="SourceAlpha" type="matrix" values="0 0 0 0 0 0 0 0 0 0 0 0 0 0 0 0 0 0 127 0"/><feOffset dy="1" dx="0"/><feGaussianBlur stdDeviation="1"/><feColorMatrix type="matrix" values="0 0 0 0 0 0 0 0 0 0 0 0 0 0 0 0 0 0 0.5 0"/><feBlend mode="normal" in2="BackgroundImageFix" result="effect1_dropShadow"/><feBlend mode="normal" in="SourceGraphic" in2="effect1_dropShadow" result="shape"/></filter><linearGradient x1="0.5" y1="0.6344903707504272" x2="0.5" y2="0.004050168674439192" id="master_svg5_1_752"><stop offset="0%" stop-color="#FFFFFF" stop-opacity="1"/><stop offset="100%" stop-color="#FFFFFF" stop-opacity="1"/></linearGradient></defs><g><g filter="url(#master_svg0_1_3254_new)"><ellipse cx="24" cy="53" rx="7" ry="4" fill="#E37318" fill-opacity="0.10196078568696976"/></g><g><ellipse cx="24" cy="53" rx="2" ry="1" fill="#E37318" fill-opacity="1"/></g><g filter="url(#master_svg1_1_3256)"><path d="M11.27131,34.4047C7.89764,31.0742,6.000000000000003,26.5407,6,21.8112C5.999999999999997,17.0818,7.89764,12.5482,11.27131,9.21773C18.3005,2.2607600000000003,29.6985,2.2607600000000003,36.7278,9.21773C40.102,12.54827,42,17.0822,42,21.8121C42,26.542,40.102,31.076,36.7278,34.4065L24,47L11.27131,34.4047Z" fill="url(#master_svg2_1_2945_new)" fill-opacity="1"/><path d="M11.27131,34.4047C7.89764,31.0742,6,26.5407,6,21.8112C6,17.0818,7.89764,12.5482,11.27131,9.21773C18.3005,2.2607600000000003,29.6985,2.2607600000000003,36.7278,9.21773C40.102,12.54827,42,17.0822,42,21.8121C42,26.542,40.102,31.076,36.7278,34.4065L24,47L11.27131,34.4047ZM11.97468,33.6939L24,45.5932L36.0253,33.6948Q38.4134,31.3376,39.7068,28.2479Q41,25.1587,41,21.8121Q41,18.465600000000002,39.7068,15.3763Q38.4134,12.2866,36.0243,9.92848Q33.5785,7.50777,30.4008,6.23248Q27.3297,5,23.9995,5Q20.6694,5,17.598300000000002,6.23248Q14.42061,7.50777,11.97384,9.92938Q9.58616,12.28649,8.29298,15.376Q7,18.465,7,21.8112Q7,25.1575,8.29298,28.2465Q9.58616,31.336,11.97384,33.6931L11.97468,33.6939Z" fill-rule="evenodd" fill="url(#master_svg3_1_766)" fill-opacity="1"/></g><g><g filter="url(#master_svg4_1_3302)"><path d="M15,13C13.895431,13,13,13.895431,13,15L13,27L35,27L35,15C35,13.895431,34.104600000000005,13,33,13L15,13ZM14,28Q13.901509,28,13.80491,28.019199999999998Q13.708311,28.0384,13.617316,28.0761Q13.526322,28.113799999999998,13.44443,28.1685Q13.362537,28.2232,13.292893,28.2929Q13.223249,28.3625,13.16853,28.4444Q13.113811,28.5263,13.0761205,28.6173Q13.0384294,28.7083,13.0192147,28.8049Q13,28.9015,13,29Q13,29.0985,13.0192147,29.1951Q13.0384294,29.2917,13.0761205,29.3827Q13.113811,29.4737,13.16853,29.5556Q13.223249,29.6375,13.292893,29.7071Q13.362537,29.7767,13.44443,29.8315Q13.526322,29.8862,13.617316,29.9239Q13.708311,29.9616,13.80491,29.9808Q13.901509,30,14,30L23,30L23,31C23,31.5523,23.447699999999998,32,24,32C24.552300000000002,32,25,31.5523,25,31L25,30L34,30Q34.0985,30,34.1951,29.9808Q34.2917,29.9616,34.3827,29.9239Q34.4737,29.8862,34.5556,29.8315Q34.6375,29.7767,34.7071,29.7071Q34.776700000000005,29.6375,34.8315,29.5556Q34.8862,29.4737,34.9239,29.3827Q34.961600000000004,29.2917,34.9808,29.1951Q35,29.0985,35,29Q35,28.9015,34.9808,28.8049Q34.961600000000004,28.7083,34.9239,28.6173Q34.8862,28.5263,34.8315,28.4444Q34.776700000000005,28.3625,34.7071,28.2929Q34.6375,28.2232,34.5556,28.1685Q34.4737,28.113799999999998,34.3827,28.0761Q34.2917,28.0384,34.1951,28.019199999999998Q34.0985,28,34,28L14,28Z" fill-rule="evenodd" fill="url(#master_svg5_1_752)" fill-opacity="1"/></g></g></g></svg>