<svg xmlns="http://www.w3.org/2000/svg" xmlns:xlink="http://www.w3.org/1999/xlink" fill="none" version="1.1" width="48" height="57" viewBox="0 0 48 57"><defs><filter id="master_svg0_1_3179" filterUnits="objectBoundingBox" color-interpolation-filters="sRGB" x="0" y="0" width="14" height="8"><feFlood flood-opacity="0" result="BackgroundImageFix"/><feBlend mode="normal" in="SourceGraphic" in2="BackgroundImageFix" result="shape"/><feColorMatrix in="SourceAlpha" type="matrix" result="hardAlpha" values="0 0 0 0 0 0 0 0 0 0 0 0 0 0 0 0 0 0 127 0"/><feOffset dy="0" dx="0"/><feGaussianBlur stdDeviation="1.5"/><feComposite in2="hardAlpha" operator="arithmetic" k2="-1" k3="1"/><feColorMatrix type="matrix" values="0 0 0 0 0.1882352977991104 0 0 0 0 0.7686274647712708 0 0 0 0 1 0 0 0 0.800000011920929 0"/><feBlend mode="normal" in2="shape" result="effect1_innerShadow"/></filter><filter id="master_svg1_1_3181" filterUnits="objectBoundingBox" color-interpolation-filters="sRGB" x="-8" y="-6" width="52" height="59"><feFlood flood-opacity="0" result="BackgroundImageFix"/><feColorMatrix in="SourceAlpha" type="matrix" values="0 0 0 0 0 0 0 0 0 0 0 0 0 0 0 0 0 0 127 0"/><feOffset dy="2" dx="0"/><feGaussianBlur stdDeviation="2"/><feColorMatrix type="matrix" values="0 0 0 0 0 0 0 0 0 0 0 0 0 0 0 0 0 0 0.20000000298023224 0"/><feBlend mode="normal" in2="BackgroundImageFix" result="effect1_dropShadow"/><feBlend mode="normal" in="SourceGraphic" in2="effect1_dropShadow" result="shape"/></filter><linearGradient x1="0.5" y1="0" x2="0.5" y2="0.9321523308753967" id="master_svg2_1_2945"><stop offset="3.57142873108387%" stop-color="#52C3FF" stop-opacity="1"/><stop offset="100%" stop-color="#0073FF" stop-opacity="1"/></linearGradient><linearGradient x1="0.5" y1="0" x2="0.5" y2="1" id="master_svg3_1_766"><stop offset="0%" stop-color="#EFF7FF" stop-opacity="1"/><stop offset="100%" stop-color="#DBEDFF" stop-opacity="0.10350196808576584"/></linearGradient><filter id="master_svg4_1_3343" filterUnits="objectBoundingBox" color-interpolation-filters="sRGB" x="-4" y="-3" width="31.911033630371094" height="29"><feFlood flood-opacity="0" result="BackgroundImageFix"/><feColorMatrix in="SourceAlpha" type="matrix" values="0 0 0 0 0 0 0 0 0 0 0 0 0 0 0 0 0 0 127 0"/><feOffset dy="1" dx="0"/><feGaussianBlur stdDeviation="1"/><feColorMatrix type="matrix" values="0 0 0 0 0 0 0 0 0 0 0 0 0 0 0 0 0 0 0.5 0"/><feBlend mode="normal" in2="BackgroundImageFix" result="effect1_dropShadow"/><feBlend mode="normal" in="SourceGraphic" in2="effect1_dropShadow" result="shape"/></filter><linearGradient x1="0.5" y1="0.6344903707504272" x2="0.5" y2="0.004050168674439192" id="master_svg5_1_752"><stop offset="0%" stop-color="#AAF1FF" stop-opacity="1"/><stop offset="100%" stop-color="#FFFFFF" stop-opacity="1"/></linearGradient></defs><g><g filter="url(#master_svg0_1_3179_new)"><ellipse cx="24" cy="53" rx="7" ry="4" fill="#0073FF" fill-opacity="0.10196078568696976"/></g><g><ellipse cx="24" cy="53" rx="2" ry="1" fill="#0073FF" fill-opacity="1"/></g><g filter="url(#master_svg1_1_3181)"><path d="M11.27131,34.4047C7.89764,31.0742,6.000000000000003,26.5407,6,21.8112C5.999999999999997,17.0818,7.89764,12.5482,11.27131,9.21773C18.3005,2.2607600000000003,29.6985,2.2607600000000003,36.7278,9.21773C40.102,12.54827,42,17.0822,42,21.8121C42,26.542,40.102,31.076,36.7278,34.4065L24,47L11.27131,34.4047Z" fill="url(#master_svg2_1_2945)" fill-opacity="1"/><path d="M11.27131,34.4047C7.89764,31.0742,6,26.5407,6,21.8112C6,17.0818,7.89764,12.5482,11.27131,9.21773C18.3005,2.2607600000000003,29.6985,2.2607600000000003,36.7278,9.21773C40.102,12.54827,42,17.0822,42,21.8121C42,26.542,40.102,31.076,36.7278,34.4065L24,47L11.27131,34.4047ZM11.97468,33.6939L24,45.5932L36.0253,33.6948Q38.4134,31.3376,39.7068,28.2479Q41,25.1587,41,21.8121Q41,18.465600000000002,39.7068,15.3763Q38.4134,12.2866,36.0243,9.92848Q33.5785,7.50777,30.4008,6.23248Q27.3297,5,23.9995,5Q20.6694,5,17.598300000000002,6.23248Q14.42061,7.50777,11.97384,9.92938Q9.58616,12.28649,8.29298,15.376Q7,18.465,7,21.8112Q7,25.1575,8.29298,28.2465Q9.58616,31.336,11.97384,33.6931L11.97468,33.6939Z" fill-rule="evenodd" fill="url(#master_svg3_1_766)" fill-opacity="1"/></g><g><g filter="url(#master_svg4_1_3343)"><path d="M22.8512,12.82471C22.720399999999998,13.32421,22.328,13.71512,21.82665,13.84543C21.325290000000003,13.98297,20.787599999999998,13.83819,20.424300000000002,13.46899C20.05373,13.10704,19.90841,12.57134,20.04646,12.07184C20.17725,11.572343,20.56962,11.18143,21.07098,11.0511263C21.57234,10.913583,22.11,11.0583654,22.473300000000002,11.42756C22.843899999999998,11.789516,22.9892,12.32521,22.8512,12.82471ZM30.8348,22.4269L32.3845,22.4269C34.3324,22.4269,35.911,20.86275,35.911,18.93655L35.911,17.38689C35.911,15.46068,34.3324,13.89655,32.3845,13.89655L29.0752,13.89655C28.1483,13.89655,27.2648,14.24413,26.5914,14.88137L23.4414,17.85758L23.4414,17.5462C23.4414,16.48896,22.572400000000002,15.62723,21.50069,15.62723C20.42897,15.62723,19.56,16.48896,19.56,17.5462L19.56,21.5362L17.92345,23.085900000000002C17.69897,23.2959,17.402070000000002,23.4117,17.090690000000002,23.4117L15.52655,23.4117C13.58586,23.4117,12,24.9759,12,26.9021L12,28.459C12,30.3852,13.58586,31.9493,15.52655,31.9493L18.85034,31.9493C19.77724,31.9493,20.660690000000002,31.5945,21.334139999999998,30.9645L30.0093,22.759999999999998C30.2338,22.5428,30.5234,22.4269,30.8348,22.4269ZM19.55658,29.3895L28.2535,21.156100000000002C28.9269,20.51884,29.8104,20.16402,30.7373,20.16402L32.294200000000004,20.16402C32.9242,20.16402,33.4311,19.65712,33.4311,19.03436L33.4311,17.47746C33.4311,16.85471,32.9169,16.34781,32.294200000000004,16.34781L28.9776,16.34781C28.6662,16.34781,28.3693,16.46367,28.1449,16.68091L19.447960000000002,24.9144C18.77451,25.5516,17.89106,25.8992,16.96417,25.8992L15.39279,25.8992C14.762789999999999,25.8992,14.25589,26.406100000000002,14.25589,27.0288L14.25589,28.593C14.25589,29.2157,14.762789999999999,29.7154,15.39279,29.7154L18.72382,29.7154C19.0352,29.7154,19.3321,29.5995,19.55658,29.3895ZM27.639699999999998,31.6234C27.1381,31.1166,27.1381,30.2983,27.639699999999998,29.7914L29.9516,27.4959L29.4209,26.9672C29.0501,26.5979,28.9338,26.040300000000002,29.1374,25.5552C29.3409,25.077199999999998,29.8135,24.7586,30.3369,24.7586L33.237700000000004,24.7586C33.950199999999995,24.7586,34.531800000000004,25.337899999999998,34.531800000000004,26.0548L34.531800000000004,28.9441C34.531800000000004,29.4728,34.2192,29.9434,33.7321,30.139C33.572199999999995,30.2114,33.4049,30.2403,33.237700000000004,30.2403C32.896,30.2403,32.5689,30.11,32.3217,29.8638L31.7837,29.3279L29.4718,31.6234C29.2173,31.8769,28.8902,32,28.5558,32C28.2286,32,27.894199999999998,31.8697,27.639699999999998,31.6234Z" fill-rule="evenodd" fill="url(#master_svg5_1_752)" fill-opacity="1"/></g></g></g></svg>