<svg xmlns="http://www.w3.org/2000/svg" xmlns:xlink="http://www.w3.org/1999/xlink" fill="none" version="1.1" width="48" height="57" viewBox="0 0 48 57"><defs><filter id="master_svg0_1_3561" filterUnits="objectBoundingBox" color-interpolation-filters="sRGB" x="0" y="0" width="14" height="8"><feFlood flood-opacity="0" result="BackgroundImageFix"/><feBlend mode="normal" in="SourceGraphic" in2="BackgroundImageFix" result="shape"/><feColorMatrix in="SourceAlpha" type="matrix" result="hardAlpha" values="0 0 0 0 0 0 0 0 0 0 0 0 0 0 0 0 0 0 127 0"/><feOffset dy="0" dx="0"/><feGaussianBlur stdDeviation="1.5"/><feComposite in2="hardAlpha" operator="arithmetic" k2="-1" k3="1"/><feColorMatrix type="matrix" values="0 0 0 0 0.1882352977991104 0 0 0 0 0.7686274647712708 0 0 0 0 1 0 0 0 0.800000011920929 0"/><feBlend mode="normal" in2="shape" result="effect1_innerShadow"/></filter><filter id="master_svg1_1_3563" filterUnits="objectBoundingBox" color-interpolation-filters="sRGB" x="-8" y="-6" width="52" height="59"><feFlood flood-opacity="0" result="BackgroundImageFix"/><feColorMatrix in="SourceAlpha" type="matrix" values="0 0 0 0 0 0 0 0 0 0 0 0 0 0 0 0 0 0 127 0"/><feOffset dy="2" dx="0"/><feGaussianBlur stdDeviation="2"/><feColorMatrix type="matrix" values="0 0 0 0 0 0 0 0 0 0 0 0 0 0 0 0 0 0 0.20000000298023224 0"/><feBlend mode="normal" in2="BackgroundImageFix" result="effect1_dropShadow"/><feBlend mode="normal" in="SourceGraphic" in2="effect1_dropShadow" result="shape"/></filter><linearGradient x1="0.5" y1="0" x2="0.5" y2="0.9321523308753967" id="master_svg2_1_2945"><stop offset="3.57142873108387%" stop-color="#52C3FF" stop-opacity="1"/><stop offset="100%" stop-color="#0073FF" stop-opacity="1"/></linearGradient><linearGradient x1="0.5" y1="0" x2="0.5" y2="1" id="master_svg3_1_766"><stop offset="0%" stop-color="#EFF7FF" stop-opacity="1"/><stop offset="100%" stop-color="#DBEDFF" stop-opacity="0.10350196808576584"/></linearGradient><filter id="master_svg4_1_3680" filterUnits="objectBoundingBox" color-interpolation-filters="sRGB" x="-4" y="-3" width="30" height="23"><feFlood flood-opacity="0" result="BackgroundImageFix"/><feColorMatrix in="SourceAlpha" type="matrix" values="0 0 0 0 0 0 0 0 0 0 0 0 0 0 0 0 0 0 127 0"/><feOffset dy="1" dx="0"/><feGaussianBlur stdDeviation="1"/><feColorMatrix type="matrix" values="0 0 0 0 0 0 0 0 0 0 0 0 0 0 0 0 0 0 0.5 0"/><feBlend mode="normal" in2="BackgroundImageFix" result="effect1_dropShadow"/><feBlend mode="normal" in="SourceGraphic" in2="effect1_dropShadow" result="shape"/></filter><linearGradient x1="0.5" y1="0.6344903707504272" x2="0.5" y2="0.004050168674439192" id="master_svg5_1_2983"><stop offset="0%" stop-color="#AAF1FF" stop-opacity="1"/><stop offset="100%" stop-color="#FFFFFF" stop-opacity="1"/></linearGradient></defs><g><g filter="url(#master_svg0_1_3561_new)"><ellipse cx="24" cy="53" rx="7" ry="4" fill="#0073FF" fill-opacity="0.10196078568696976"/></g><g><ellipse cx="24" cy="53" rx="2" ry="1" fill="#0073FF" fill-opacity="1"/></g><g filter="url(#master_svg1_1_3563)"><path d="M11.27131,34.4047C7.89764,31.0742,6.000000000000003,26.5407,6,21.8112C5.999999999999997,17.0818,7.89764,12.5482,11.27131,9.21773C18.3005,2.2607600000000003,29.6985,2.2607600000000003,36.7278,9.21773C40.102,12.54827,42,17.0822,42,21.8121C42,26.542,40.102,31.076,36.7278,34.4065L24,47L11.27131,34.4047Z" fill="url(#master_svg2_1_2945)" fill-opacity="1"/><path d="M11.27131,34.4047C7.89764,31.0742,6,26.5407,6,21.8112C6,17.0818,7.89764,12.5482,11.27131,9.21773C18.3005,2.2607600000000003,29.6985,2.2607600000000003,36.7278,9.21773C40.102,12.54827,42,17.0822,42,21.8121C42,26.542,40.102,31.076,36.7278,34.4065L24,47L11.27131,34.4047ZM11.97468,33.6939L24,45.5932L36.0253,33.6948Q38.4134,31.3376,39.7068,28.2479Q41,25.1587,41,21.8121Q41,18.465600000000002,39.7068,15.3763Q38.4134,12.2866,36.0243,9.92848Q33.5785,7.50777,30.4008,6.23248Q27.3297,5,23.9995,5Q20.6694,5,17.598300000000002,6.23248Q14.42061,7.50777,11.97384,9.92938Q9.58616,12.28649,8.29298,15.376Q7,18.465,7,21.8112Q7,25.1575,8.29298,28.2465Q9.58616,31.336,11.97384,33.6931L11.97468,33.6939Z" fill-rule="evenodd" fill="url(#master_svg3_1_766)" fill-opacity="1"/></g><g filter="url(#master_svg4_1_3680)"><path d="M13,17L13,28Q13,28.098300000000002,13.00963055,28.195999999999998Q13.0192611,28.293799999999997,13.0384294,28.3902Q13.0575978,28.4865,13.0861193,28.5806Q13.114641,28.674599999999998,13.152241,28.7654Q13.189841,28.856099999999998,13.236157,28.9428Q13.282474,29.029400000000003,13.337061,29.1111Q13.391648,29.1928,13.453979,29.2688Q13.516311,29.3447,13.585786,29.4142Q13.655262,29.4837,13.731213,29.546Q13.807164,29.6084,13.888859,29.6629Q13.970554,29.7175,14.05721,29.7638Q14.14386,29.810200000000002,14.23463,29.8478Q14.32541,29.8854,14.41943,29.913899999999998Q14.51345,29.9424,14.60982,29.9616Q14.70619,29.9807,14.80397,29.9904Q14.90175,30,15,30L33,30Q33.098299999999995,30,33.196,29.9904Q33.293800000000005,29.9807,33.3902,29.9616Q33.4865,29.9424,33.580600000000004,29.913899999999998Q33.6746,29.8854,33.7654,29.8478Q33.8561,29.810200000000002,33.9428,29.7638Q34.029399999999995,29.7175,34.1111,29.6629Q34.1928,29.6084,34.2688,29.546Q34.3447,29.4837,34.4142,29.4142Q34.4837,29.3447,34.546,29.2688Q34.6084,29.1928,34.6629,29.1111Q34.7175,29.029400000000003,34.7638,28.9428Q34.810199999999995,28.856099999999998,34.8478,28.7654Q34.885400000000004,28.674599999999998,34.9139,28.5806Q34.9424,28.4865,34.961600000000004,28.3902Q34.9807,28.293799999999997,34.9904,28.195999999999998Q35,28.098300000000002,35,28L35,17Q35,16.90175,34.9904,16.80397Q34.9807,16.70619,34.961600000000004,16.60982Q34.9424,16.51345,34.9139,16.41943Q34.885400000000004,16.32541,34.8478,16.23463Q34.810199999999995,16.14386,34.7638,16.05721Q34.7175,15.970554,34.6629,15.888859Q34.6084,15.807164,34.546,15.731213Q34.4837,15.655262,34.4142,15.585786Q34.3447,15.516311,34.2688,15.453979Q34.1928,15.391648,34.1111,15.337061Q34.029399999999995,15.282474,33.9428,15.236157Q33.8561,15.189841,33.7654,15.152241Q33.6746,15.114641,33.580600000000004,15.0861193Q33.4865,15.0575978,33.3902,15.0384294Q33.293800000000005,15.0192611,33.196,15.00963055Q33.098299999999995,15,33,15L15,15Q14.90175,15,14.80397,15.00963055Q14.70619,15.0192611,14.60982,15.0384294Q14.51345,15.0575978,14.41943,15.0861193Q14.32541,15.114641,14.23463,15.152241Q14.14386,15.189841,14.05721,15.236157Q13.970554,15.282474,13.888859,15.337061Q13.807164,15.391648,13.731213,15.453979Q13.655262,15.516311,13.585786,15.585786Q13.516311,15.655262,13.453979,15.731213Q13.391648,15.807164,13.337061,15.888859Q13.282474,15.970554,13.236157,16.05721Q13.189841,16.14386,13.152241,16.23463Q13.114641,16.32541,13.0861193,16.41943Q13.0575978,16.51345,13.0384294,16.60982Q13.0192611,16.70619,13.00963055,16.80397Q13,16.90175,13,17ZM14,17L14,28Q14,28.0985,14.01921,28.1951Q14.03843,28.2917,14.07612,28.3827Q14.11381,28.4737,14.16853,28.5556Q14.22325,28.6375,14.29289,28.7071Q14.36254,28.776699999999998,14.44443,28.8315Q14.52632,28.886200000000002,14.61732,28.9239Q14.70831,28.9616,14.80491,28.980800000000002Q14.90151,29,15,29L17,29Q17.098489999999998,29,17.19509,28.980800000000002Q17.29169,28.9616,17.38268,28.9239Q17.47368,28.886200000000002,17.55557,28.8315Q17.63746,28.776699999999998,17.70711,28.7071Q17.77675,28.6375,17.83147,28.5556Q17.88619,28.4737,17.92388,28.3827Q17.961570000000002,28.2917,17.98078,28.1951Q18,28.0985,18,28L18,17Q18,16.901510000000002,17.98078,16.80491Q17.961570000000002,16.70831,17.92388,16.61732Q17.88619,16.52632,17.83147,16.44443Q17.77675,16.36254,17.70711,16.29289Q17.63746,16.22325,17.55557,16.16853Q17.47368,16.11381,17.38268,16.07612Q17.29169,16.038429999999998,17.19509,16.01921Q17.098489999999998,16,17,16L15,16Q14.90151,16,14.80491,16.01921Q14.70831,16.038429999999998,14.61732,16.07612Q14.52632,16.11381,14.44443,16.16853Q14.36254,16.22325,14.29289,16.29289Q14.22325,16.36254,14.16853,16.44443Q14.11381,16.52632,14.07612,16.61732Q14.03843,16.70831,14.01921,16.80491Q14,16.901510000000002,14,17ZM19,28L19,17Q19,16.901510000000002,19.01921,16.80491Q19.038429999999998,16.70831,19.07612,16.61732Q19.11381,16.52632,19.16853,16.44443Q19.22325,16.36254,19.29289,16.29289Q19.36254,16.22325,19.44443,16.16853Q19.52632,16.11381,19.61732,16.07612Q19.70831,16.038429999999998,19.80491,16.01921Q19.901510000000002,16,20,16L33,16Q33.0985,16,33.1951,16.01921Q33.2917,16.038429999999998,33.3827,16.07612Q33.4737,16.11381,33.5556,16.16853Q33.6375,16.22325,33.7071,16.29289Q33.776700000000005,16.36254,33.8315,16.44443Q33.8862,16.52632,33.9239,16.61732Q33.961600000000004,16.70831,33.9808,16.80491Q34,16.901510000000002,34,17L34,28Q34,28.0985,33.9808,28.1951Q33.961600000000004,28.2917,33.9239,28.3827Q33.8862,28.4737,33.8315,28.5556Q33.776700000000005,28.6375,33.7071,28.7071Q33.6375,28.776699999999998,33.5556,28.8315Q33.4737,28.886200000000002,33.3827,28.9239Q33.2917,28.9616,33.1951,28.980800000000002Q33.0985,29,33,29L20,29Q19.901510000000002,29,19.80491,28.980800000000002Q19.70831,28.9616,19.61732,28.9239Q19.52632,28.886200000000002,19.44443,28.8315Q19.36254,28.776699999999998,19.29289,28.7071Q19.22325,28.6375,19.16853,28.5556Q19.11381,28.4737,19.07612,28.3827Q19.038429999999998,28.2917,19.01921,28.1951Q19,28.0985,19,28ZM15,17.5L15,27.5Q15,27.5492,15.00961,27.5975Q15.019210000000001,27.6458,15.03806,27.6913Q15.05691,27.736800000000002,15.08426,27.7778Q15.11162,27.8187,15.14645,27.8536Q15.18127,27.8884,15.22221,27.9157Q15.26316,27.9431,15.30866,27.9619Q15.35416,27.980800000000002,15.40245,27.9904Q15.45075,28,15.5,28L16.5,28Q16.54925,28,16.59754,27.9904Q16.64584,27.980800000000002,16.69134,27.9619Q16.73684,27.9431,16.77778,27.9157Q16.81873,27.8884,16.85355,27.8536Q16.88838,27.8187,16.91573,27.7778Q16.94309,27.736800000000002,16.96194,27.6913Q16.98078,27.6458,16.99039,27.5975Q17,27.5492,17,27.5L17,17.5Q17,17.45075,16.99039,17.40245Q16.98078,17.35416,16.96194,17.30866Q16.94309,17.26316,16.91573,17.22221Q16.88838,17.18127,16.85355,17.14645Q16.81873,17.11162,16.77778,17.08426Q16.73684,17.05691,16.69134,17.03806Q16.64584,17.01921,16.59754,17.00961Q16.54925,17,16.5,17L15.5,17Q15.45075,17,15.40245,17.00961Q15.35416,17.01921,15.30866,17.03806Q15.26316,17.05691,15.22221,17.08426Q15.18127,17.11162,15.14645,17.14645Q15.11162,17.18127,15.08426,17.22221Q15.05691,17.26316,15.03806,17.30866Q15.019210000000001,17.35416,15.00961,17.40245Q15,17.45075,15,17.5ZM20,17.5L20,27.5Q20,27.5492,20.009610000000002,27.5975Q20.01921,27.6458,20.03806,27.6913Q20.0569,27.736800000000002,20.08426,27.7778Q20.111620000000002,27.8187,20.14645,27.8536Q20.181269999999998,27.8884,20.22221,27.9157Q20.26316,27.9431,20.30866,27.9619Q20.35415,27.980800000000002,20.40245,27.9904Q20.45075,28,20.5,28L32.5,28Q32.5492,28,32.5975,27.9904Q32.6458,27.980800000000002,32.6913,27.9619Q32.7368,27.9431,32.7778,27.9157Q32.8187,27.8884,32.8536,27.8536Q32.888400000000004,27.8187,32.9157,27.7778Q32.9431,27.736800000000002,32.9619,27.6913Q32.9808,27.6458,32.9904,27.5975Q33,27.5492,33,27.5L33,17.5Q33,17.45075,32.9904,17.40245Q32.9808,17.35416,32.9619,17.30866Q32.9431,17.26316,32.9157,17.22221Q32.888400000000004,17.18127,32.8536,17.14645Q32.8187,17.11162,32.7778,17.08426Q32.7368,17.05691,32.6913,17.03806Q32.6458,17.01921,32.5975,17.00961Q32.5492,17,32.5,17L20.5,17Q20.45075,17,20.40245,17.00961Q20.35415,17.01921,20.30866,17.03806Q20.26316,17.05691,20.22221,17.08426Q20.181269999999998,17.11162,20.14645,17.14645Q20.111620000000002,17.18127,20.08426,17.22221Q20.0569,17.26316,20.03806,17.30866Q20.01921,17.35416,20.009610000000002,17.40245Q20,17.45075,20,17.5Z" fill-rule="evenodd" fill="url(#master_svg5_1_2983)" fill-opacity="1"/></g></g></svg>