<svg xmlns="http://www.w3.org/2000/svg" xmlns:xlink="http://www.w3.org/1999/xlink" fill="none" version="1.1" width="48" height="57" viewBox="0 0 48 57"><defs><filter id="master_svg0_1_3593_new" filterUnits="objectBoundingBox" color-interpolation-filters="sRGB" x="0" y="0" width="14" height="8"><feFlood flood-opacity="0" result="BackgroundImageFix"/><feBlend mode="normal" in="SourceGraphic" in2="BackgroundImageFix" result="shape"/><feColorMatrix in="SourceAlpha" type="matrix" result="hardAlpha" values="0.890 0.451 0.094 0 0 0.890 0.451 0.094 0 0 0.890 0.451 0.094 0 0 0 0 0 1 0"/><feOffset dy="0" dx="0"/><feGaussianBlur stdDeviation="1.5"/><feComposite in2="hardAlpha" operator="arithmetic" k2="-1" k3="1"/><feColorMatrix type="matrix" values="0.890 0.451 0.094 0 0 0.890 0.451 0.094 0 0 0.890 0.451 0.094 0 0 0 0 0 1 0"/><feBlend mode="normal" in2="shape" result="effect1_innerShadow"/></filter><filter id="master_svg1_1_3595" filterUnits="objectBoundingBox" color-interpolation-filters="sRGB" x="-8" y="-6" width="52" height="59"><feFlood flood-opacity="0" result="BackgroundImageFix"/><feColorMatrix in="SourceAlpha" type="matrix" values="0 0 0 0 0 0 0 0 0 0 0 0 0 0 0 0 0 0 127 0"/><feOffset dy="2" dx="0"/><feGaussianBlur stdDeviation="2"/><feColorMatrix type="matrix" values="0 0 0 0 0 0 0 0 0 0 0 0 0 0 0 0 0 0 0.20000000298023224 0"/><feBlend mode="normal" in2="BackgroundImageFix" result="effect1_dropShadow"/><feBlend mode="normal" in="SourceGraphic" in2="effect1_dropShadow" result="shape"/></filter><linearGradient x1="0.5" y1="0" x2="0.5" y2="0.9321523308753967" id="master_svg2_1_2945_new"><stop offset="3.57142873108387%" stop-color="#E37318" stop-opacity="1"/><stop offset="100%" stop-color="#E37318" stop-opacity="1"/></linearGradient><linearGradient x1="0.5" y1="0" x2="0.5" y2="1" id="master_svg3_1_766"><stop offset="0%" stop-color="#E37318" stop-opacity="1"/><stop offset="100%" stop-color="#E37318" stop-opacity="0.10350196808576584"/></linearGradient><filter id="master_svg4_1_3627" filterUnits="objectBoundingBox" color-interpolation-filters="sRGB" x="-4" y="-3" width="30" height="23"><feFlood flood-opacity="0" result="BackgroundImageFix"/><feColorMatrix in="SourceAlpha" type="matrix" values="0 0 0 0 0 0 0 0 0 0 0 0 0 0 0 0 0 0 127 0"/><feOffset dy="1" dx="0"/><feGaussianBlur stdDeviation="1"/><feColorMatrix type="matrix" values="0 0 0 0 0 0 0 0 0 0 0 0 0 0 0 0 0 0 0.5 0"/><feBlend mode="normal" in2="BackgroundImageFix" result="effect1_dropShadow"/><feBlend mode="normal" in="SourceGraphic" in2="effect1_dropShadow" result="shape"/></filter><linearGradient x1="0.5" y1="0.6344903707504272" x2="0.5" y2="0.004050168674439192" id="master_svg5_1_2983"><stop offset="0%" stop-color="#FFFFFF" stop-opacity="1"/><stop offset="100%" stop-color="#FFFFFF" stop-opacity="1"/></linearGradient></defs><g><g filter="url(#master_svg0_1_3593_new)"><ellipse cx="24" cy="53" rx="7" ry="4" fill="#E37318" fill-opacity="0.10196078568696976"/></g><g><ellipse cx="24" cy="53" rx="2" ry="1" fill="#E37318" fill-opacity="1"/></g><g filter="url(#master_svg1_1_3595)"><path d="M11.27131,34.4047C7.89764,31.0742,6.000000000000003,26.5407,6,21.8112C5.999999999999997,17.0818,7.89764,12.5482,11.27131,9.21773C18.3005,2.2607600000000003,29.6985,2.2607600000000003,36.7278,9.21773C40.102,12.54827,42,17.0822,42,21.8121C42,26.542,40.102,31.076,36.7278,34.4065L24,47L11.27131,34.4047Z" fill="url(#master_svg2_1_2945_new)" fill-opacity="1"/><path d="M11.27131,34.4047C7.89764,31.0742,6,26.5407,6,21.8112C6,17.0818,7.89764,12.5482,11.27131,9.21773C18.3005,2.2607600000000003,29.6985,2.2607600000000003,36.7278,9.21773C40.102,12.54827,42,17.0822,42,21.8121C42,26.542,40.102,31.076,36.7278,34.4065L24,47L11.27131,34.4047ZM11.97468,33.6939L24,45.5932L36.0253,33.6948Q38.4134,31.3376,39.7068,28.2479Q41,25.1587,41,21.8121Q41,18.465600000000002,39.7068,15.3763Q38.4134,12.2866,36.0243,9.92848Q33.5785,7.50777,30.4008,6.23248Q27.3297,5,23.9995,5Q20.6694,5,17.598300000000002,6.23248Q14.42061,7.50777,11.97384,9.92938Q9.58616,12.28649,8.29298,15.376Q7,18.465,7,21.8112Q7,25.1575,8.29298,28.2465Q9.58616,31.336,11.97384,33.6931L11.97468,33.6939Z" fill-rule="evenodd" fill="url(#master_svg3_1_766)" fill-opacity="1"/></g><g filter="url(#master_svg4_1_3627)"><path fill="#FFFFFF" d="M13,28L13,17Q13,16.90175,13.00963055,16.80397Q13.0192611,16.70619,13.0384294,16.60982Q13.0575978,16.51345,13.0861193,16.41943Q13.114641,16.32541,13.152241,16.23463Q13.189841,16.14386,13.236157,16.05721Q13.282474,15.970554,13.337061,15.888859Q13.391648,15.807164,13.453979,15.731213Q13.516311,15.655262,13.585786,15.585786Q13.655262,15.516311,13.731213,15.453979Q13.807164,15.391648,13.888859,15.337061Q13.970554,15.282474,14.05721,15.236157Q14.14386,15.189841,14.23463,15.152241Q14.32541,15.114641,14.41943,15.0861193Q14.51345,15.0575978,14.60982,15.0384294Q14.70619,15.0192611,14.80397,15.00963055Q14.90175,15,15,15L33,15Q33.098299999999995,15,33.196,15.00963055Q33.293800000000005,15.0192611,33.3902,15.0384294Q33.4865,15.0575978,33.580600000000004,15.0861193Q33.6746,15.114641,33.7654,15.152241Q33.8561,15.189841,33.9428,15.236157Q34.029399999999995,15.282474,34.1111,15.337061Q34.1928,15.391648,34.2688,15.453979Q34.3447,15.516311,34.4142,15.585786Q34.4837,15.655262,34.546,15.731213Q34.6084,15.807164,34.6629,15.888859Q34.7175,15.970554,34.7638,16.05721Q34.810199999999995,16.14386,34.8478,16.23463Q34.885400000000004,16.32541,34.9139,16.41943Q34.9424,16.51345,34.961600000000004,16.60982Q34.9807,16.70619,34.9904,16.80397Q35,16.90175,35,17L35,28Q35,28.098300000000002,34.9904,28.195999999999998Q34.9807,28.293799999999997,34.961600000000004,28.3902Q34.9424,28.4865,34.9139,28.5806Q34.885400000000004,28.674599999999998,34.8478,28.7654Q34.810199999999995,28.856099999999998,34.7638,28.9428Q34.7175,29.029400000000003,34.6629,29.1111Q34.6084,29.1928,34.546,29.2688Q34.4837,29.3447,34.4142,29.4142Q34.3447,29.4837,34.2688,29.546Q34.1928,29.6084,34.1111,29.6629Q34.029399999999995,29.7175,33.9428,29.7638Q33.8561,29.810200000000002,33.7654,29.8478Q33.6746,29.8854,33.580600000000004,29.913899999999998Q33.4865,29.9424,33.3902,29.9616Q33.293800000000005,29.9807,33.196,29.9904Q33.098299999999995,30,33,30L15,30Q14.90175,30,14.80397,29.9904Q14.70619,29.9807,14.60982,29.9616Q14.51345,29.9424,14.41943,29.913899999999998Q14.32541,29.8854,14.23463,29.8478Q14.14386,29.810200000000002,14.05721,29.7638Q13.970554,29.7175,13.888859,29.6629Q13.807164,29.6084,13.731213,29.546Q13.655262,29.4837,13.585786,29.4142Q13.516311,29.3447,13.453979,29.2688Q13.391648,29.1928,13.337061,29.1111Q13.282474,29.029400000000003,13.236157,28.9428Q13.189841,28.856099999999998,13.152241,28.7654Q13.114641,28.674599999999998,13.0861193,28.5806Q13.0575978,28.4865,13.0384294,28.3902Q13.0192611,28.293799999999997,13.00963055,28.195999999999998Q13,28.098300000000002,13,28ZM14,28L14,17Q14,16.901510000000002,14.01921,16.80491Q14.03843,16.70831,14.07612,16.61732Q14.11381,16.52632,14.16853,16.44443Q14.22325,16.36254,14.29289,16.29289Q14.36254,16.22325,14.44443,16.16853Q14.52632,16.11381,14.61732,16.07612Q14.70831,16.038429999999998,14.80491,16.01921Q14.90151,16,15,16L28,16Q28.0985,16,28.1951,16.01921Q28.2917,16.038429999999998,28.3827,16.07612Q28.4737,16.11381,28.5556,16.16853Q28.6375,16.22325,28.7071,16.29289Q28.776699999999998,16.36254,28.8315,16.44443Q28.886200000000002,16.52632,28.9239,16.61732Q28.9616,16.70831,28.980800000000002,16.80491Q29,16.901510000000002,29,17L29,28Q29,28.0985,28.980800000000002,28.1951Q28.9616,28.2917,28.9239,28.3827Q28.886200000000002,28.4737,28.8315,28.5556Q28.776699999999998,28.6375,28.7071,28.7071Q28.6375,28.776699999999998,28.5556,28.8315Q28.4737,28.886200000000002,28.3827,28.9239Q28.2917,28.9616,28.1951,28.980800000000002Q28.0985,29,28,29L15,29Q14.90151,29,14.80491,28.980800000000002Q14.70831,28.9616,14.61732,28.9239Q14.52632,28.886200000000002,14.44443,28.8315Q14.36254,28.776699999999998,14.29289,28.7071Q14.22325,28.6375,14.16853,28.5556Q14.11381,28.4737,14.07612,28.3827Q14.03843,28.2917,14.01921,28.1951Q14,28.0985,14,28ZM15,18L15,27Q15,27.0985,15.019210000000001,27.1951Q15.03843,27.2917,15.07612,27.3827Q15.11381,27.4737,15.16853,27.5556Q15.22325,27.6375,15.29289,27.7071Q15.36254,27.776699999999998,15.44443,27.8315Q15.52632,27.886200000000002,15.61732,27.9239Q15.70831,27.9616,15.80491,27.980800000000002Q15.90151,28,16,28L27,28Q27.0985,28,27.1951,27.980800000000002Q27.2917,27.9616,27.3827,27.9239Q27.4737,27.886200000000002,27.5556,27.8315Q27.6375,27.776699999999998,27.7071,27.7071Q27.776699999999998,27.6375,27.8315,27.5556Q27.886200000000002,27.4737,27.9239,27.3827Q27.9616,27.2917,27.980800000000002,27.1951Q28,27.0985,28,27L28,18Q28,17.901510000000002,27.980800000000002,17.80491Q27.9616,17.70831,27.9239,17.61732Q27.886200000000002,17.52632,27.8315,17.44443Q27.776699999999998,17.36254,27.7071,17.29289Q27.6375,17.22325,27.5556,17.16853Q27.4737,17.11381,27.3827,17.07612Q27.2917,17.038429999999998,27.1951,17.01921Q27.0985,17,27,17L16,17Q15.90151,17,15.80491,17.01921Q15.70831,17.038429999999998,15.61732,17.07612Q15.52632,17.11381,15.44443,17.16853Q15.36254,17.22325,15.29289,17.29289Q15.22325,17.36254,15.16853,17.44443Q15.11381,17.52632,15.07612,17.61732Q15.03843,17.70831,15.019210000000001,17.80491Q15,17.901510000000002,15,18ZM30.5,17Q30.4508,17,30.4025,17.00961Q30.3542,17.01921,30.3087,17.03806Q30.2632,17.05691,30.2222,17.08426Q30.1813,17.11162,30.1464,17.14645Q30.1116,17.18127,30.0843,17.22221Q30.0569,17.26316,30.0381,17.30866Q30.0192,17.35416,30.0096,17.40245Q30,17.45075,30,17.5L30,18.5Q30,18.54925,30.0096,18.59754Q30.0192,18.64584,30.0381,18.69134Q30.0569,18.73684,30.0843,18.77778Q30.1116,18.81873,30.1464,18.85355Q30.1813,18.88838,30.2222,18.91573Q30.2632,18.94309,30.3087,18.96194Q30.3542,18.98078,30.4025,18.99039Q30.4508,19,30.5,19L33.5,19Q33.5492,19,33.5975,18.99039Q33.6458,18.98078,33.6913,18.96194Q33.7368,18.94309,33.7778,18.91573Q33.8187,18.88838,33.8536,18.85355Q33.888400000000004,18.81873,33.9157,18.77778Q33.9431,18.73684,33.9619,18.69134Q33.9808,18.64584,33.9904,18.59754Q34,18.54925,34,18.5L34,17.5Q34,17.45075,33.9904,17.40245Q33.9808,17.35416,33.9619,17.30866Q33.9431,17.26316,33.9157,17.22221Q33.888400000000004,17.18127,33.8536,17.14645Q33.8187,17.11162,33.7778,17.08426Q33.7368,17.05691,33.6913,17.03806Q33.6458,17.01921,33.5975,17.00961Q33.5492,17,33.5,17L30.5,17ZM30,21.5L30,20.5Q30,20.45075,30.0096,20.40245Q30.0192,20.35415,30.0381,20.30866Q30.0569,20.26316,30.0843,20.22221Q30.1116,20.181269999999998,30.1464,20.14645Q30.1813,20.111620000000002,30.2222,20.08426Q30.2632,20.056910000000002,30.3087,20.03806Q30.3542,20.01921,30.4025,20.009610000000002Q30.4508,20,30.5,20L33.5,20Q33.5492,20,33.5975,20.009610000000002Q33.6458,20.01921,33.6913,20.03806Q33.7368,20.056910000000002,33.7778,20.08426Q33.8187,20.111620000000002,33.8536,20.14645Q33.888400000000004,20.181269999999998,33.9157,20.22221Q33.9431,20.26316,33.9619,20.30866Q33.9808,20.35415,33.9904,20.40245Q34,20.45075,34,20.5L34,21.5Q34,21.54925,33.9904,21.597540000000002Q33.9808,21.64584,33.9619,21.69134Q33.9431,21.73684,33.9157,21.77778Q33.888400000000004,21.818730000000002,33.8536,21.85355Q33.8187,21.888370000000002,33.7778,21.91573Q33.7368,21.943089999999998,33.6913,21.96194Q33.6458,21.98078,33.5975,21.990389999999998Q33.5492,22,33.5,22L30.5,22Q30.4508,22,30.4025,21.990389999999998Q30.3542,21.98078,30.3087,21.96194Q30.2632,21.943089999999998,30.2222,21.91573Q30.1813,21.888370000000002,30.1464,21.85355Q30.1116,21.818730000000002,30.0843,21.77778Q30.0569,21.73684,30.0381,21.69134Q30.0192,21.64584,30.0096,21.597540000000002Q30,21.54925,30,21.5ZM30,23.5L30,24.5Q30,24.549239999999998,30.0096,24.597540000000002Q30.0192,24.64584,30.0381,24.69134Q30.0569,24.73684,30.0843,24.77778Q30.1116,24.818730000000002,30.1464,24.85355Q30.1813,24.888370000000002,30.2222,24.91573Q30.2632,24.943089999999998,30.3087,24.96194Q30.3542,24.98078,30.4025,24.990389999999998Q30.4508,25,30.5,25L33.5,25Q33.5492,25,33.5975,24.990389999999998Q33.6458,24.98078,33.6913,24.96194Q33.7368,24.943089999999998,33.7778,24.91573Q33.8187,24.888370000000002,33.8536,24.85355Q33.888400000000004,24.818730000000002,33.9157,24.77778Q33.9431,24.73684,33.9619,24.69134Q33.9808,24.64584,33.9904,24.597540000000002Q34,24.549239999999998,34,24.5L34,23.5Q34,23.45075,33.9904,23.40245Q33.9808,23.35415,33.9619,23.30866Q33.9431,23.26316,33.9157,23.22221Q33.888400000000004,23.181269999999998,33.8536,23.14645Q33.8187,23.111620000000002,33.7778,23.08426Q33.7368,23.056910000000002,33.6913,23.03806Q33.6458,23.01921,33.5975,23.009610000000002Q33.5492,23,33.5,23L30.5,23Q30.4508,23,30.4025,23.009610000000002Q30.3542,23.01921,30.3087,23.03806Q30.2632,23.056910000000002,30.2222,23.08426Q30.1813,23.111620000000002,30.1464,23.14645Q30.1116,23.181269999999998,30.0843,23.22221Q30.0569,23.26316,30.0381,23.30866Q30.0192,23.35415,30.0096,23.40245Q30,23.45075,30,23.5ZM30.5,28Q30.4508,28,30.4025,27.9904Q30.3542,27.980800000000002,30.3087,27.9619Q30.2632,27.9431,30.2222,27.9157Q30.1813,27.8884,30.1464,27.8536Q30.1116,27.8187,30.0843,27.7778Q30.0569,27.736800000000002,30.0381,27.6913Q30.0192,27.6458,30.0096,27.5975Q30,27.5492,30,27.5L30,26.5Q30,26.4508,30.0096,26.4025Q30.0192,26.3542,30.0381,26.3087Q30.0569,26.263199999999998,30.0843,26.2222Q30.1116,26.1813,30.1464,26.1464Q30.1813,26.1116,30.2222,26.0843Q30.2632,26.0569,30.3087,26.0381Q30.3542,26.019199999999998,30.4025,26.0096Q30.4508,26,30.5,26L33.5,26Q33.5492,26,33.5975,26.0096Q33.6458,26.019199999999998,33.6913,26.0381Q33.7368,26.0569,33.7778,26.0843Q33.8187,26.1116,33.8536,26.1464Q33.888400000000004,26.1813,33.9157,26.2222Q33.9431,26.263199999999998,33.9619,26.3087Q33.9808,26.3542,33.9904,26.4025Q34,26.4508,34,26.5L34,27.5Q34,27.5492,33.9904,27.5975Q33.9808,27.6458,33.9619,27.6913Q33.9431,27.736800000000002,33.9157,27.7778Q33.888400000000004,27.8187,33.8536,27.8536Q33.8187,27.8884,33.7778,27.9157Q33.7368,27.9431,33.6913,27.9619Q33.6458,27.980800000000002,33.5975,27.9904Q33.5492,28,33.5,28L30.5,28Z" fill-rule="evenodd" fill-opacity="1"/></g></g></svg>