<svg xmlns="http://www.w3.org/2000/svg" xmlns:xlink="http://www.w3.org/1999/xlink" fill="none" version="1.1" width="48" height="57" viewBox="0 0 48 57"><defs><filter id="master_svg0_1_2998" filterUnits="objectBoundingBox" color-interpolation-filters="sRGB" x="0" y="0" width="14" height="8"><feFlood flood-opacity="0" result="BackgroundImageFix"/><feBlend mode="normal" in="SourceGraphic" in2="BackgroundImageFix" result="shape"/><feColorMatrix in="SourceAlpha" type="matrix" result="hardAlpha" values="0 0 0 0 0 0 0 0 0 0 0 0 0 0 0 0 0 0 127 0"/><feOffset dy="0" dx="0"/><feGaussianBlur stdDeviation="1.5"/><feComposite in2="hardAlpha" operator="arithmetic" k2="-1" k3="1"/><feColorMatrix type="matrix" values="0 0 0 0 0.1882352977991104 0 0 0 0 0.7686274647712708 0 0 0 0 1 0 0 0 0.800000011920929 0"/><feBlend mode="normal" in2="shape" result="effect1_innerShadow"/></filter><filter id="master_svg1_1_3000" filterUnits="objectBoundingBox" color-interpolation-filters="sRGB" x="-8" y="-6" width="52" height="59"><feFlood flood-opacity="0" result="BackgroundImageFix"/><feColorMatrix in="SourceAlpha" type="matrix" values="0 0 0 0 0 0 0 0 0 0 0 0 0 0 0 0 0 0 127 0"/><feOffset dy="2" dx="0"/><feGaussianBlur stdDeviation="2"/><feColorMatrix type="matrix" values="0 0 0 0 0 0 0 0 0 0 0 0 0 0 0 0 0 0 0.20000000298023224 0"/><feBlend mode="normal" in2="BackgroundImageFix" result="effect1_dropShadow"/><feBlend mode="normal" in="SourceGraphic" in2="effect1_dropShadow" result="shape"/></filter><linearGradient x1="0.5" y1="0" x2="0.5" y2="0.9321523308753967" id="master_svg2_1_2945"><stop offset="3.57142873108387%" stop-color="#52C3FF" stop-opacity="1"/><stop offset="100%" stop-color="#0073FF" stop-opacity="1"/></linearGradient><linearGradient x1="0.5" y1="0" x2="0.5" y2="1" id="master_svg3_1_766"><stop offset="0%" stop-color="#EFF7FF" stop-opacity="1"/><stop offset="100%" stop-color="#DBEDFF" stop-opacity="0.10350196808576584"/></linearGradient><filter id="master_svg4_1_3015" filterUnits="objectBoundingBox" color-interpolation-filters="sRGB" x="-4" y="-3" width="34" height="34"><feFlood flood-opacity="0" result="BackgroundImageFix"/><feColorMatrix in="SourceAlpha" type="matrix" values="0 0 0 0 0 0 0 0 0 0 0 0 0 0 0 0 0 0 127 0"/><feOffset dy="1" dx="0"/><feGaussianBlur stdDeviation="1"/><feColorMatrix type="matrix" values="0 0 0 0 0 0 0 0 0 0 0 0 0 0 0 0 0 0 0.5 0"/><feBlend mode="normal" in2="BackgroundImageFix" result="effect1_dropShadow"/><feBlend mode="normal" in="SourceGraphic" in2="effect1_dropShadow" result="shape"/></filter><linearGradient x1="0.5" y1="0.6344903707504272" x2="0.5" y2="0.004050168674439192" id="master_svg5_1_752"><stop offset="0%" stop-color="#AAF1FF" stop-opacity="1"/><stop offset="100%" stop-color="#FFFFFF" stop-opacity="1"/></linearGradient></defs><g><g filter="url(#master_svg0_1_2998_new)"><ellipse cx="24" cy="53" rx="7" ry="4" fill="#0073FF" fill-opacity="0.10196078568696976"/></g><g><ellipse cx="24" cy="53" rx="2" ry="1" fill="#0073FF" fill-opacity="1"/></g><g filter="url(#master_svg1_1_3000)"><path d="M11.27131,34.4047C7.89764,31.0742,6.000000000000003,26.5407,6,21.8112C5.999999999999997,17.0818,7.89764,12.5482,11.27131,9.21773C18.3005,2.2607600000000003,29.6985,2.2607600000000003,36.7278,9.21773C40.102,12.54827,42,17.0822,42,21.8121C42,26.542,40.102,31.076,36.7278,34.4065L24,47L11.27131,34.4047Z" fill="url(#master_svg2_1_2945)" fill-opacity="1"/><path d="M11.27131,34.4047C7.89764,31.0742,6,26.5407,6,21.8112C6,17.0818,7.89764,12.5482,11.27131,9.21773C18.3005,2.2607600000000003,29.6985,2.2607600000000003,36.7278,9.21773C40.102,12.54827,42,17.0822,42,21.8121C42,26.542,40.102,31.076,36.7278,34.4065L24,47L11.27131,34.4047ZM11.97468,33.6939L24,45.5932L36.0253,33.6948Q38.4134,31.3376,39.7068,28.2479Q41,25.1587,41,21.8121Q41,18.465600000000002,39.7068,15.3763Q38.4134,12.2866,36.0243,9.92848Q33.5785,7.50777,30.4008,6.23248Q27.3297,5,23.9995,5Q20.6694,5,17.598300000000002,6.23248Q14.42061,7.50777,11.97384,9.92938Q9.58616,12.28649,8.29298,15.376Q7,18.465,7,21.8112Q7,25.1575,8.29298,28.2465Q9.58616,31.336,11.97384,33.6931L11.97468,33.6939Z" fill-rule="evenodd" fill="url(#master_svg3_1_766)" fill-opacity="1"/></g><g><g filter="url(#master_svg4_1_3015)"><path d="M24,35C16.81176,35,11,29.1882,11,22C11,14.81176,16.81176,9,24,9C31.1882,9,37,14.81176,37,22C37,29.1882,31.1882,35,24,35ZM35,22.8462L33.3077,22.8462L33.3077,21.1538L35,21.1538C34.830799999999996,18.78462,33.8154,16.58462,32.2923,14.72308L31.9538,15.06154L30.7692,13.87692L31.1077,13.53846C29.4154,12.01538,27.2154,11.16923,24.8462,11L24.8462,12.692309999999999L23.1538,12.692309999999999L23.1538,11C20.78462,11.16923,18.58462,12.184619999999999,16.892310000000002,13.53846L17.125,13.75L16.025,15.125L15.70769,14.89231C14.184619999999999,16.58462,13.16923,18.78462,13,21.1538L14.692309999999999,21.1538L14.692309999999999,22.8462L13,22.8462C13.16923,25.2154,14.184619999999999,27.4154,15.53846,29.1077L15.87692,28.7692L17.06154,29.9538L16.72308,30.2923C18.41538,31.8154,20.615389999999998,32.830799999999996,23.1538,33L23.1538,31.3077L24.8462,31.3077L24.8462,33C27.2154,32.830799999999996,29.4154,31.8154,31.1077,30.4615L30.7692,30.1231L31.9538,28.9385L32.2923,29.2769C33.8154,27.4154,34.830799999999996,25.2154,35,22.8462ZM29,24C29,26.7614,26.761400000000002,29,24,29C21.238599999999998,29,19,26.7614,19,24Q19,21.238599999999998,24,15Q29,21.238599999999998,29,24Z" fill-rule="evenodd" fill="url(#master_svg5_1_752)" fill-opacity="1"/></g></g></g></svg>