<svg xmlns="http://www.w3.org/2000/svg" xmlns:xlink="http://www.w3.org/1999/xlink" fill="none" version="1.1" width="48" height="57" viewBox="0 0 48 57"><defs><filter id="master_svg0_1_3194_new" filterUnits="objectBoundingBox" color-interpolation-filters="sRGB" x="0" y="0" width="14" height="8"><feFlood flood-opacity="0" result="BackgroundImageFix"/><feBlend mode="normal" in="SourceGraphic" in2="BackgroundImageFix" result="shape"/><feColorMatrix in="SourceAlpha" type="matrix" result="hardAlpha" values="0.890 0.451 0.094 0 0 0.890 0.451 0.094 0 0 0.890 0.451 0.094 0 0 0 0 0 1 0"/><feOffset dy="0" dx="0"/><feGaussianBlur stdDeviation="1.5"/><feComposite in2="hardAlpha" operator="arithmetic" k2="-1" k3="1"/><feColorMatrix type="matrix" values="0.890 0.451 0.094 0 0 0.890 0.451 0.094 0 0 0.890 0.451 0.094 0 0 0 0 0 1 0"/><feBlend mode="normal" in2="shape" result="effect1_innerShadow"/></filter><filter id="master_svg1_1_3196" filterUnits="objectBoundingBox" color-interpolation-filters="sRGB" x="-8" y="-6" width="52" height="59"><feFlood flood-opacity="0" result="BackgroundImageFix"/><feColorMatrix in="SourceAlpha" type="matrix" values="0 0 0 0 0 0 0 0 0 0 0 0 0 0 0 0 0 0 127 0"/><feOffset dy="2" dx="0"/><feGaussianBlur stdDeviation="2"/><feColorMatrix type="matrix" values="0 0 0 0 0 0 0 0 0 0 0 0 0 0 0 0 0 0 0.20000000298023224 0"/><feBlend mode="normal" in2="BackgroundImageFix" result="effect1_dropShadow"/><feBlend mode="normal" in="SourceGraphic" in2="effect1_dropShadow" result="shape"/></filter><linearGradient x1="0.5" y1="0" x2="0.5" y2="0.9321523308753967" id="master_svg2_1_2945_new"><stop offset="3.57142873108387%" stop-color="#E37318" stop-opacity="1"/><stop offset="100%" stop-color="#E37318" stop-opacity="1"/></linearGradient><linearGradient x1="0.5" y1="0" x2="0.5" y2="1" id="master_svg3_1_766"><stop offset="0%" stop-color="#E37318" stop-opacity="1"/><stop offset="100%" stop-color="#E37318" stop-opacity="0.10350196808576584"/></linearGradient><filter id="master_svg4_1_3559" filterUnits="objectBoundingBox" color-interpolation-filters="sRGB" x="-4" y="-3" width="32" height="25.556350708007812"><feFlood flood-opacity="0" result="BackgroundImageFix"/><feColorMatrix in="SourceAlpha" type="matrix" values="0 0 0 0 0 0 0 0 0 0 0 0 0 0 0 0 0 0 127 0"/><feOffset dy="1" dx="0"/><feGaussianBlur stdDeviation="1"/><feColorMatrix type="matrix" values="0 0 0 0 0 0 0 0 0 0 0 0 0 0 0 0 0 0 0.5 0"/><feBlend mode="normal" in2="BackgroundImageFix" result="effect1_dropShadow"/><feBlend mode="normal" in="SourceGraphic" in2="effect1_dropShadow" result="shape"/></filter><linearGradient x1="0.5" y1="0.6344903707504272" x2="0.5" y2="0.004050168674439192" id="master_svg5_1_2983"><stop offset="0%" stop-color="#FFFFFF" stop-opacity="1"/><stop offset="100%" stop-color="#FFFFFF" stop-opacity="1"/></linearGradient></defs><g><g filter="url(#master_svg0_1_3194_new)"><ellipse cx="24" cy="53" rx="7" ry="4" fill="#E37318" fill-opacity="0.10196078568696976"/></g><g><ellipse cx="24" cy="53" rx="2" ry="1" fill="#E37318" fill-opacity="1"/></g><g filter="url(#master_svg1_1_3196)"><path d="M11.27131,34.4047C7.89764,31.0742,6.000000000000003,26.5407,6,21.8112C5.999999999999997,17.0818,7.89764,12.5482,11.27131,9.21773C18.3005,2.2607600000000003,29.6985,2.2607600000000003,36.7278,9.21773C40.102,12.54827,42,17.0822,42,21.8121C42,26.542,40.102,31.076,36.7278,34.4065L24,47L11.27131,34.4047Z" fill="url(#master_svg2_1_2945_new)" fill-opacity="1"/><path d="M11.27131,34.4047C7.89764,31.0742,6,26.5407,6,21.8112C6,17.0818,7.89764,12.5482,11.27131,9.21773C18.3005,2.2607600000000003,29.6985,2.2607600000000003,36.7278,9.21773C40.102,12.54827,42,17.0822,42,21.8121C42,26.542,40.102,31.076,36.7278,34.4065L24,47L11.27131,34.4047ZM11.97468,33.6939L24,45.5932L36.0253,33.6948Q38.4134,31.3376,39.7068,28.2479Q41,25.1587,41,21.8121Q41,18.465600000000002,39.7068,15.3763Q38.4134,12.2866,36.0243,9.92848Q33.5785,7.50777,30.4008,6.23248Q27.3297,5,23.9995,5Q20.6694,5,17.598300000000002,6.23248Q14.42061,7.50777,11.97384,9.92938Q9.58616,12.28649,8.29298,15.376Q7,18.465,7,21.8112Q7,25.1575,8.29298,28.2465Q9.58616,31.336,11.97384,33.6931L11.97468,33.6939Z" fill-rule="evenodd" fill="url(#master_svg3_1_766)" fill-opacity="1"/></g><g filter="url(#master_svg4_1_3559)"><path d="M16.92893,14.928942275390625Q17.069580000000002,14.788282275390625,17.145699999999998,14.604512275390626Q17.22183,14.420742275390625,17.22183,14.221832275390625Q17.22183,14.123341275390626,17.20261,14.026742275390625Q17.1834,13.930143275390625,17.145699999999998,13.839148275390626Q17.10801,13.748154275390625,17.05329,13.666262275390626Q16.99858,13.584369275390625,16.92893,13.514725275390624Q16.85929,13.445081275390624,16.7774,13.390362275390626Q16.6955,13.335643275390625,16.60451,13.297952775390625Q16.51351,13.260261675390625,16.41692,13.241046975390624Q16.32032,13.221832275390625,16.22183,13.221832275390625Q16.02291,13.221832275390625,15.83914,13.297952675390626Q15.65537,13.374073275390625,15.51472,13.514725275390624Q13.85436,15.175092275390625,12.94343,17.328762275390623Q12,19.559282275390625,12,22.000002275390624Q12,24.440732275390623,12.94343,26.671232275390626Q13.85411,28.824332275390624,15.51383,30.484432275390624L15.51472,30.485332275390626Q15.65537,30.625932275390625,15.83914,30.702032275390625Q16.02291,30.778132275390625,16.22183,30.778232275390625Q16.32032,30.778232275390625,16.41692,30.758932275390624Q16.51351,30.739732275390626,16.60451,30.702032275390625Q16.6955,30.664332275390624,16.7774,30.609632275390624Q16.85929,30.554932275390627,16.92893,30.485332275390626Q16.99858,30.415632275390625,17.05329,30.333732275390624Q17.10801,30.251832275390626,17.145699999999998,30.160832275390625Q17.1834,30.069832275390624,17.20261,29.973232275390625Q17.22183,29.876632275390627,17.22183,29.778232275390625Q17.22183,29.579232275390623,17.14571,29.395532275390625Q17.069580000000002,29.211732275390624,16.92893,29.071032275390625L16.92868,29.070832275390625Q15.54434,27.686432275390626,14.78544,25.892132275390622Q14,24.035132275390623,14,22.000002275390624Q14,19.964852275390626,14.78544,18.107862275390623Q15.54416,16.314052275390626,16.92803,14.929842275390625L16.92893,14.928942275390625ZM31.0711,14.928942275390625Q30.9304,14.788282275390625,30.8543,14.604512275390626Q30.7782,14.420742275390625,30.7782,14.221832275390625Q30.7782,14.123341275390626,30.7974,14.026742275390625Q30.8166,13.930143275390625,30.8543,13.839148275390626Q30.892,13.748154275390625,30.9467,13.666262275390626Q31.0014,13.584369275390625,31.0711,13.514725275390624Q31.1407,13.445081275390624,31.2226,13.390362275390626Q31.3045,13.335643275390625,31.3955,13.297952775390625Q31.4865,13.260261675390625,31.5831,13.241046975390624Q31.6797,13.221832275390625,31.7782,13.221832275390625Q31.9771,13.221832275390625,32.1609,13.297952675390626Q32.3447,13.374073275390625,32.485299999999995,13.514725275390624Q34.145700000000005,15.175082275390626,35.0566,17.328762275390623Q36,19.559262275390626,36,22.000002275390624Q36,24.440732275390623,35.0566,26.671232275390626Q34.145700000000005,28.824932275390623,32.485299999999995,30.485232275390626Q32.3447,30.625932275390625,32.1609,30.702032275390625Q31.9771,30.778132275390625,31.7782,30.778132275390625Q31.6797,30.778132275390625,31.5831,30.758932275390624Q31.4865,30.739732275390626,31.3955,30.702032275390625Q31.3045,30.664332275390624,31.2226,30.609632275390624Q31.1407,30.554932275390627,31.0711,30.485232275390626Q31.0014,30.415632275390625,30.9467,30.333732275390624Q30.892,30.251832275390626,30.8543,30.160832275390625Q30.8166,30.069832275390624,30.7974,29.973232275390625Q30.7782,29.876632275390627,30.7782,29.778132275390625Q30.7782,29.579232275390623,30.8543,29.395532275390625Q30.9304,29.211732275390624,31.0711,29.071032275390625L31.0714,29.070732275390625Q32.4557,27.686332275390626,33.214600000000004,25.892132275390622Q34,24.035132275390623,34,22.000002275390624Q34,19.964832275390627,33.214600000000004,18.107852275390627Q32.455799999999996,16.313992275390625,31.0719,14.929752275390625L31.0711,14.928942275390625ZM20.46447,18.464462275390623Q20.60512,18.323812275390626,20.681240000000003,18.140042275390627Q20.75736,17.956272275390624,20.75736,17.757352275390623Q20.75736,17.658862275390625,20.73814,17.562262275390623Q20.71893,17.465662275390624,20.681240000000003,17.374672275390626Q20.643549999999998,17.283672275390625,20.58883,17.201782275390624Q20.53411,17.119892275390626,20.46447,17.050252275390626Q20.39482,16.980602275390623,20.31293,16.925882275390624Q20.23104,16.871162275390624,20.14004,16.833472275390626Q20.04905,16.795782275390625,19.95245,16.776572275390624Q19.85585,16.757352275390623,19.75736,16.757352275390623Q19.55845,16.757352275390623,19.374679999999998,16.833472275390626Q19.19091,16.909592275390626,19.05025,17.050252275390626Q17,19.100502275390625,17,21.999992275390625Q17,24.899532275390627,19.05025,26.949732275390623Q19.19091,27.090432275390626,19.374679999999998,27.166532275390622Q19.55845,27.242632275390626,19.75736,27.242632275390626Q19.85585,27.242632275390626,19.95245,27.223432275390625Q20.04905,27.204232275390623,20.14004,27.166532275390622Q20.23104,27.128832275390625,20.31293,27.074132275390625Q20.39482,27.019432275390624,20.46447,26.949732275390623Q20.53411,26.880132275390626,20.58883,26.798232275390625Q20.643549999999998,26.716332275390627,20.681240000000003,26.625332275390626Q20.71893,26.534332275390625,20.73814,26.437732275390623Q20.75736,26.341132275390628,20.75736,26.242632275390626Q20.75736,26.043732275390624,20.681240000000003,25.859932275390626Q20.60512,25.676132275390625,20.46447,25.535532275390626Q19,24.071032275390625,19,21.999992275390625Q19,19.928932275390626,20.46447,18.464462275390623ZM27.535600000000002,18.464462275390623Q27.3949,18.323812275390626,27.3188,18.140042275390627Q27.2427,17.956272275390624,27.2427,17.757352275390623Q27.2427,17.658862275390625,27.2619,17.562262275390623Q27.281100000000002,17.465662275390624,27.3188,17.374672275390626Q27.3565,17.283672275390625,27.4112,17.201782275390624Q27.465899999999998,17.119892275390626,27.535600000000002,17.050252275390626Q27.6052,16.980602275390623,27.6871,16.925882275390624Q27.769,16.871162275390624,27.86,16.833472275390626Q27.951,16.795782275390625,28.0476,16.776572275390624Q28.1442,16.757352275390623,28.2427,16.757352275390623Q28.4416,16.757352275390623,28.6254,16.833472275390626Q28.8091,16.909592275390626,28.9498,17.050252275390626Q31,19.100462275390626,31,22.000002275390624Q31,24.899532275390627,28.9498,26.949732275390623Q28.8091,27.090432275390626,28.6254,27.166532275390622Q28.4416,27.242632275390626,28.2427,27.242632275390626Q28.1442,27.242632275390626,28.0476,27.223432275390625Q27.951,27.204232275390623,27.86,27.166532275390622Q27.769,27.128832275390625,27.6871,27.074132275390625Q27.6052,27.019432275390624,27.535600000000002,26.949732275390623Q27.465899999999998,26.880132275390626,27.4112,26.798232275390625Q27.3565,26.716332275390627,27.3188,26.625332275390626Q27.281100000000002,26.534332275390625,27.2619,26.437732275390623Q27.2427,26.341132275390628,27.2427,26.242632275390626Q27.2427,26.043732275390624,27.3188,25.859932275390626Q27.3949,25.676232275390625,27.535600000000002,25.535532275390626Q29,24.071132275390624,29,22.000002275390624Q29,19.928892275390623,27.535600000000002,18.464462275390623ZM24,24.000032275390623Q24.098300000000002,24.000032275390623,24.195999999999998,23.990332275390625Q24.293799999999997,23.980732275390626,24.3902,23.961532275390624Q24.4865,23.942432275390622,24.5806,23.913832275390625Q24.674599999999998,23.885332275390624,24.7654,23.847732275390626Q24.856099999999998,23.810132275390625,24.9428,23.763832275390627Q25.029400000000003,23.717532275390624,25.1111,23.662932275390624Q25.1928,23.608332275390623,25.2688,23.546032275390623Q25.3447,23.483732275390626,25.4142,23.414232275390624Q25.4837,23.344732275390626,25.546,23.268832275390626Q25.6084,23.192832275390625,25.6629,23.111142275390627Q25.7175,23.029442275390625,25.7638,22.942792275390623Q25.810200000000002,22.856142275390624,25.8478,22.765362275390626Q25.8854,22.674592275390623,25.913899999999998,22.580572275390622Q25.9424,22.486542275390626,25.9616,22.390182275390625Q25.9807,22.293812275390625,25.9904,22.196032275390625Q26,22.098252275390625,26,22.000002275390624Q26,21.901742275390625,25.9904,21.803962275390624Q25.9807,21.706182275390624,25.9616,21.609822275390627Q25.9424,21.513452275390627,25.913899999999998,21.419432275390626Q25.8854,21.325412275390626,25.8478,21.234632275390624Q25.810200000000002,21.143862275390624,25.7638,21.057202275390626Q25.7175,20.970552275390624,25.6629,20.888862275390625Q25.6084,20.807162275390624,25.546,20.731212275390625Q25.4837,20.655262275390626,25.4142,20.585782275390624Q25.3447,20.516312275390625,25.2688,20.453982275390626Q25.1928,20.391652275390626,25.1111,20.337062275390625Q25.029400000000003,20.282472275390624,24.9428,20.236162275390626Q24.856099999999998,20.189842275390625,24.7654,20.152242275390627Q24.674599999999998,20.114642275390626,24.5806,20.086122275390625Q24.4865,20.057602275390625,24.3902,20.038432275390626Q24.293799999999997,20.019262275390624,24.195999999999998,20.009632275390626Q24.098300000000002,20.000002275390624,24,20.000002275390624Q23.901699999999998,20.000002275390624,23.804000000000002,20.009632275390626Q23.706200000000003,20.019262275390624,23.6098,20.038432275390626Q23.5135,20.057602275390625,23.4194,20.086122275390625Q23.325400000000002,20.114642275390626,23.2346,20.152242275390627Q23.143900000000002,20.189842275390625,23.0572,20.236162275390626Q22.970599999999997,20.282472275390624,22.8889,20.337062275390625Q22.8072,20.391652275390626,22.7312,20.453982275390626Q22.6553,20.516312275390625,22.5858,20.585782275390624Q22.5163,20.655262275390626,22.454,20.731212275390625Q22.3916,20.807162275390624,22.3371,20.888862275390625Q22.2825,20.970552275390624,22.2362,21.057202275390626Q22.189799999999998,21.143862275390624,22.1522,21.234632275390624Q22.1146,21.325412275390626,22.086100000000002,21.419432275390626Q22.0576,21.513452275390627,22.0384,21.609822275390627Q22.0193,21.706182275390624,22.0096,21.803962275390624Q22,21.901742275390625,22,22.000002275390624Q22,22.098252275390625,22.0096,22.196032275390625Q22.0193,22.293812275390625,22.0384,22.390182275390625Q22.0576,22.486542275390626,22.086100000000002,22.580572275390622Q22.1146,22.674592275390623,22.1522,22.765362275390626Q22.189799999999998,22.856142275390624,22.2362,22.942792275390623Q22.2825,23.029442275390625,22.3371,23.111142275390627Q22.3916,23.192832275390625,22.454,23.268832275390626Q22.5163,23.344732275390626,22.5858,23.414232275390624Q22.6553,23.483732275390626,22.7312,23.546032275390623Q22.8072,23.608332275390623,22.8889,23.662932275390624Q22.970599999999997,23.717532275390624,23.0572,23.763832275390627Q23.143900000000002,23.810132275390625,23.2346,23.847732275390626Q23.325400000000002,23.885332275390624,23.4194,23.913832275390625Q23.5135,23.942432275390622,23.6098,23.961532275390624Q23.706200000000003,23.980732275390626,23.804000000000002,23.990332275390625Q23.901699999999998,24.000032275390623,24,24.000032275390623Z" fill-rule="evenodd" fill="url(#master_svg5_1_2983)" fill-opacity="1"/></g></g></svg>