<svg xmlns="http://www.w3.org/2000/svg" xmlns:xlink="http://www.w3.org/1999/xlink" fill="none" version="1.1" width="48" height="57" viewBox="0 0 48 57"><defs><filter id="master_svg0_1_3589" filterUnits="objectBoundingBox" color-interpolation-filters="sRGB" x="0" y="0" width="14" height="8"><feFlood flood-opacity="0" result="BackgroundImageFix"/><feBlend mode="normal" in="SourceGraphic" in2="BackgroundImageFix" result="shape"/><feColorMatrix in="SourceAlpha" type="matrix" result="hardAlpha" values="0 0 0 0 0 0 0 0 0 0 0 0 0 0 0 0 0 0 127 0"/><feOffset dy="0" dx="0"/><feGaussianBlur stdDeviation="1.5"/><feComposite in2="hardAlpha" operator="arithmetic" k2="-1" k3="1"/><feColorMatrix type="matrix" values="0 0 0 0 0.1882352977991104 0 0 0 0 0.7686274647712708 0 0 0 0 1 0 0 0 0.800000011920929 0"/><feBlend mode="normal" in2="shape" result="effect1_innerShadow"/></filter><filter id="master_svg1_1_3591" filterUnits="objectBoundingBox" color-interpolation-filters="sRGB" x="-8" y="-6" width="52" height="59"><feFlood flood-opacity="0" result="BackgroundImageFix"/><feColorMatrix in="SourceAlpha" type="matrix" values="0 0 0 0 0 0 0 0 0 0 0 0 0 0 0 0 0 0 127 0"/><feOffset dy="2" dx="0"/><feGaussianBlur stdDeviation="2"/><feColorMatrix type="matrix" values="0 0 0 0 0 0 0 0 0 0 0 0 0 0 0 0 0 0 0.20000000298023224 0"/><feBlend mode="normal" in2="BackgroundImageFix" result="effect1_dropShadow"/><feBlend mode="normal" in="SourceGraphic" in2="effect1_dropShadow" result="shape"/></filter><linearGradient x1="0.5" y1="0" x2="0.5" y2="0.9321523308753967" id="master_svg2_1_2945"><stop offset="3.57142873108387%" stop-color="#52C3FF" stop-opacity="1"/><stop offset="100%" stop-color="#0073FF" stop-opacity="1"/></linearGradient><linearGradient x1="0.5" y1="0" x2="0.5" y2="1" id="master_svg3_1_766"><stop offset="0%" stop-color="#EFF7FF" stop-opacity="1"/><stop offset="100%" stop-color="#DBEDFF" stop-opacity="0.10350196808576584"/></linearGradient><filter id="master_svg4_1_3642" filterUnits="objectBoundingBox" color-interpolation-filters="sRGB" x="-4" y="-3" width="30" height="23"><feFlood flood-opacity="0" result="BackgroundImageFix"/><feColorMatrix in="SourceAlpha" type="matrix" values="0 0 0 0 0 0 0 0 0 0 0 0 0 0 0 0 0 0 127 0"/><feOffset dy="1" dx="0"/><feGaussianBlur stdDeviation="1"/><feColorMatrix type="matrix" values="0 0 0 0 0 0 0 0 0 0 0 0 0 0 0 0 0 0 0.5 0"/><feBlend mode="normal" in2="BackgroundImageFix" result="effect1_dropShadow"/><feBlend mode="normal" in="SourceGraphic" in2="effect1_dropShadow" result="shape"/></filter><linearGradient x1="0.8152201175689697" y1="0.3192702829837799" x2="0.18477989733219147" y2="0.3192702829837799" id="master_svg5_1_3668"><stop offset="0%" stop-color="#AAF1FF" stop-opacity="1"/><stop offset="100%" stop-color="#FFFFFF" stop-opacity="1"/></linearGradient></defs><g><g filter="url(#master_svg0_1_3589_new)"><ellipse cx="24" cy="53" rx="7" ry="4" fill="#0073FF" fill-opacity="0.10196078568696976"/></g><g><ellipse cx="24" cy="53" rx="2" ry="1" fill="#0073FF" fill-opacity="1"/></g><g filter="url(#master_svg1_1_3591)"><path d="M11.27131,34.4047C7.89764,31.0742,6.000000000000003,26.5407,6,21.8112C5.999999999999997,17.0818,7.89764,12.5482,11.27131,9.21773C18.3005,2.2607600000000003,29.6985,2.2607600000000003,36.7278,9.21773C40.102,12.54827,42,17.0822,42,21.8121C42,26.542,40.102,31.076,36.7278,34.4065L24,47L11.27131,34.4047Z" fill="url(#master_svg2_1_2945)" fill-opacity="1"/><path d="M11.27131,34.4047C7.89764,31.0742,6,26.5407,6,21.8112C6,17.0818,7.89764,12.5482,11.27131,9.21773C18.3005,2.2607600000000003,29.6985,2.2607600000000003,36.7278,9.21773C40.102,12.54827,42,17.0822,42,21.8121C42,26.542,40.102,31.076,36.7278,34.4065L24,47L11.27131,34.4047ZM11.97468,33.6939L24,45.5932L36.0253,33.6948Q38.4134,31.3376,39.7068,28.2479Q41,25.1587,41,21.8121Q41,18.465600000000002,39.7068,15.3763Q38.4134,12.2866,36.0243,9.92848Q33.5785,7.50777,30.4008,6.23248Q27.3297,5,23.9995,5Q20.6694,5,17.598300000000002,6.23248Q14.42061,7.50777,11.97384,9.92938Q9.58616,12.28649,8.29298,15.376Q7,18.465,7,21.8112Q7,25.1575,8.29298,28.2465Q9.58616,31.336,11.97384,33.6931L11.97468,33.6939Z" fill-rule="evenodd" fill="url(#master_svg3_1_766)" fill-opacity="1"/></g><g transform="matrix(0,1,-1,0,44,-20)" filter="url(#master_svg4_1_3642)"><path d="M32,25L32,14Q32,13.90175,32.00963055,13.80397Q32.0192611,13.70619,32.0384294,13.60982Q32.0575978,13.51345,32.0861193,13.41943Q32.114641,13.32541,32.152241,13.23463Q32.189841,13.14386,32.236157,13.05721Q32.282474,12.970554,32.337061,12.888859Q32.391648,12.807164,32.453979,12.731213Q32.516311,12.655262,32.585786,12.585786Q32.655262,12.516311,32.731213,12.453979Q32.807164,12.391648,32.888859,12.337061Q32.970554,12.282474,33.05721,12.236157Q33.143860000000004,12.189841,33.23463,12.152241Q33.32541,12.114641,33.41943,12.0861193Q33.51345,12.0575978,33.60982,12.0384294Q33.70619,12.0192611,33.80397,12.00963055Q33.90175,12,34,12L52,12Q52.098299999999995,12,52.196,12.00963055Q52.293800000000005,12.0192611,52.3902,12.0384294Q52.4865,12.0575978,52.580600000000004,12.0861193Q52.6746,12.114641,52.7654,12.152241Q52.8561,12.189841,52.9428,12.236157Q53.029399999999995,12.282474,53.1111,12.337061Q53.1928,12.391648,53.2688,12.453979Q53.3447,12.516311,53.4142,12.585786Q53.4837,12.655262,53.546,12.731213Q53.6084,12.807164,53.6629,12.888859Q53.7175,12.970554,53.7638,13.05721Q53.810199999999995,13.14386,53.8478,13.23463Q53.885400000000004,13.32541,53.9139,13.41943Q53.9424,13.51345,53.961600000000004,13.60982Q53.9807,13.70619,53.9904,13.80397Q54,13.90175,54,14L54,25Q54,25.098300000000002,53.9904,25.195999999999998Q53.9807,25.293799999999997,53.961600000000004,25.3902Q53.9424,25.4865,53.9139,25.5806Q53.885400000000004,25.674599999999998,53.8478,25.7654Q53.810199999999995,25.856099999999998,53.7638,25.9428Q53.7175,26.029400000000003,53.6629,26.1111Q53.6084,26.1928,53.546,26.2688Q53.4837,26.3447,53.4142,26.4142Q53.3447,26.4837,53.2688,26.546Q53.1928,26.6084,53.1111,26.6629Q53.029399999999995,26.7175,52.9428,26.7638Q52.8561,26.810200000000002,52.7654,26.8478Q52.6746,26.8854,52.580600000000004,26.913899999999998Q52.4865,26.9424,52.3902,26.9616Q52.293800000000005,26.9807,52.196,26.9904Q52.098299999999995,27,52,27L34,27Q33.90175,27,33.80397,26.9904Q33.70619,26.9807,33.60982,26.9616Q33.51345,26.9424,33.41943,26.913899999999998Q33.32541,26.8854,33.23463,26.8478Q33.143860000000004,26.810200000000002,33.05721,26.7638Q32.970554,26.7175,32.888859,26.6629Q32.807164,26.6084,32.731213,26.546Q32.655262,26.4837,32.585786,26.4142Q32.516311,26.3447,32.453979,26.2688Q32.391648,26.1928,32.337061,26.1111Q32.282474,26.029400000000003,32.236157,25.9428Q32.189841,25.856099999999998,32.152241,25.7654Q32.114641,25.674599999999998,32.0861193,25.5806Q32.0575978,25.4865,32.0384294,25.3902Q32.0192611,25.293799999999997,32.00963055,25.195999999999998Q32,25.098300000000002,32,25ZM33,25L33,14Q33,13.90151,33.01921,13.80491Q33.03843,13.70831,33.07612,13.61732Q33.11381,13.52632,33.16853,13.44443Q33.22325,13.36254,33.29289,13.29289Q33.36254,13.22325,33.44443,13.16853Q33.52632,13.11381,33.61732,13.07612Q33.70831,13.03843,33.80491,13.01921Q33.90151,13,34,13L46,13Q46.0985,13,46.1951,13.01921Q46.2917,13.03843,46.3827,13.07612Q46.4737,13.11381,46.5556,13.16853Q46.6375,13.22325,46.7071,13.29289Q46.7767,13.36254,46.8315,13.44443Q46.8862,13.52632,46.9239,13.61732Q46.961600000000004,13.70831,46.9808,13.80491Q47,13.90151,47,14L47,25Q47,25.0985,46.9808,25.1951Q46.961600000000004,25.2917,46.9239,25.3827Q46.8862,25.4737,46.8315,25.5556Q46.7767,25.6375,46.7071,25.7071Q46.6375,25.776699999999998,46.5556,25.8315Q46.4737,25.886200000000002,46.3827,25.9239Q46.2917,25.9616,46.1951,25.980800000000002Q46.0985,26,46,26L34,26Q33.90151,26,33.80491,25.980800000000002Q33.70831,25.9616,33.61732,25.9239Q33.52632,25.886200000000002,33.44443,25.8315Q33.36254,25.776699999999998,33.29289,25.7071Q33.22325,25.6375,33.16853,25.5556Q33.11381,25.4737,33.07612,25.3827Q33.03843,25.2917,33.01921,25.1951Q33,25.0985,33,25ZM34,15L34,24Q34,24.0985,34.01921,24.1951Q34.03843,24.2917,34.07612,24.3827Q34.11381,24.4737,34.16853,24.5556Q34.22325,24.6375,34.29289,24.7071Q34.36254,24.776699999999998,34.44443,24.8315Q34.52632,24.886200000000002,34.61732,24.9239Q34.70831,24.9616,34.80491,24.980800000000002Q34.90151,25,35,25L45,25Q45.0985,25,45.1951,24.980800000000002Q45.2917,24.9616,45.3827,24.9239Q45.4737,24.886200000000002,45.5556,24.8315Q45.6375,24.776699999999998,45.7071,24.7071Q45.7767,24.6375,45.8315,24.5556Q45.8862,24.4737,45.9239,24.3827Q45.961600000000004,24.2917,45.9808,24.1951Q46,24.0985,46,24L46,15Q46,14.90151,45.9808,14.80491Q45.961600000000004,14.70831,45.9239,14.61732Q45.8862,14.52632,45.8315,14.44443Q45.7767,14.36254,45.7071,14.29289Q45.6375,14.22325,45.5556,14.16853Q45.4737,14.11381,45.3827,14.07612Q45.2917,14.03843,45.1951,14.019210000000001Q45.0985,14,45,14L35,14Q34.90151,14,34.80491,14.019210000000001Q34.70831,14.03843,34.61732,14.07612Q34.52632,14.11381,34.44443,14.16853Q34.36254,14.22325,34.29289,14.29289Q34.22325,14.36254,34.16853,14.44443Q34.11381,14.52632,34.07612,14.61732Q34.03843,14.70831,34.01921,14.80491Q34,14.90151,34,15ZM48,15Q48,14.90151,48.0192,14.80491Q48.038399999999996,14.70831,48.0761,14.61732Q48.1138,14.52632,48.1685,14.44443Q48.2232,14.36254,48.2929,14.29289Q48.3625,14.22325,48.4444,14.16853Q48.5263,14.11381,48.6173,14.07612Q48.7083,14.03843,48.8049,14.019210000000001Q48.9015,14,49,14Q49.0985,14,49.1951,14.019210000000001Q49.2917,14.03843,49.3827,14.07612Q49.4737,14.11381,49.5556,14.16853Q49.6375,14.22325,49.7071,14.29289Q49.776700000000005,14.36254,49.8315,14.44443Q49.8862,14.52632,49.9239,14.61732Q49.961600000000004,14.70831,49.9808,14.80491Q50,14.90151,50,15Q50,15.09849,49.9808,15.19509Q49.961600000000004,15.29169,49.9239,15.38268Q49.8862,15.47368,49.8315,15.55557Q49.776700000000005,15.63746,49.7071,15.70711Q49.6375,15.77675,49.5556,15.83147Q49.4737,15.88619,49.3827,15.92388Q49.2917,15.96157,49.1951,15.98078Q49.0985,16,49,16Q48.9015,16,48.8049,15.98078Q48.7083,15.96157,48.6173,15.92388Q48.5263,15.88619,48.4444,15.83147Q48.3625,15.77675,48.2929,15.70711Q48.2232,15.63746,48.1685,15.55557Q48.1138,15.47368,48.0761,15.38268Q48.038399999999996,15.29169,48.0192,15.19509Q48,15.09849,48,15ZM51,15Q51,14.90151,51.0192,14.80491Q51.038399999999996,14.70831,51.0761,14.61732Q51.1138,14.52632,51.1685,14.44443Q51.2232,14.36254,51.2929,14.29289Q51.3625,14.22325,51.4444,14.16853Q51.5263,14.11381,51.6173,14.07612Q51.7083,14.03843,51.8049,14.019210000000001Q51.9015,14,52,14Q52.0985,14,52.1951,14.019210000000001Q52.2917,14.03843,52.3827,14.07612Q52.4737,14.11381,52.5556,14.16853Q52.6375,14.22325,52.7071,14.29289Q52.776700000000005,14.36254,52.8315,14.44443Q52.8862,14.52632,52.9239,14.61732Q52.961600000000004,14.70831,52.9808,14.80491Q53,14.90151,53,15Q53,15.09849,52.9808,15.19509Q52.961600000000004,15.29169,52.9239,15.38268Q52.8862,15.47368,52.8315,15.55557Q52.776700000000005,15.63746,52.7071,15.70711Q52.6375,15.77675,52.5556,15.83147Q52.4737,15.88619,52.3827,15.92388Q52.2917,15.96157,52.1951,15.98078Q52.0985,16,52,16Q51.9015,16,51.8049,15.98078Q51.7083,15.96157,51.6173,15.92388Q51.5263,15.88619,51.4444,15.83147Q51.3625,15.77675,51.2929,15.70711Q51.2232,15.63746,51.1685,15.55557Q51.1138,15.47368,51.0761,15.38268Q51.038399999999996,15.29169,51.0192,15.19509Q51,15.09849,51,15ZM49,17Q48.9015,17,48.8049,17.01921Q48.7083,17.038429999999998,48.6173,17.07612Q48.5263,17.11381,48.4444,17.16853Q48.3625,17.22325,48.2929,17.29289Q48.2232,17.36254,48.1685,17.44443Q48.1138,17.52632,48.0761,17.61732Q48.038399999999996,17.70831,48.0192,17.80491Q48,17.901510000000002,48,18Q48,18.098489999999998,48.0192,18.19509Q48.038399999999996,18.29169,48.0761,18.38268Q48.1138,18.47368,48.1685,18.55557Q48.2232,18.63746,48.2929,18.70711Q48.3625,18.77675,48.4444,18.83147Q48.5263,18.88619,48.6173,18.92388Q48.7083,18.961570000000002,48.8049,18.98078Q48.9015,19,49,19Q49.0985,19,49.1951,18.98078Q49.2917,18.961570000000002,49.3827,18.92388Q49.4737,18.88619,49.5556,18.83147Q49.6375,18.77675,49.7071,18.70711Q49.776700000000005,18.63746,49.8315,18.55557Q49.8862,18.47368,49.9239,18.38268Q49.961600000000004,18.29169,49.9808,18.19509Q50,18.098489999999998,50,18Q50,17.901510000000002,49.9808,17.80491Q49.961600000000004,17.70831,49.9239,17.61732Q49.8862,17.52632,49.8315,17.44443Q49.776700000000005,17.36254,49.7071,17.29289Q49.6375,17.22325,49.5556,17.16853Q49.4737,17.11381,49.3827,17.07612Q49.2917,17.038429999999998,49.1951,17.01921Q49.0985,17,49,17ZM52,17Q51.9015,17,51.8049,17.01921Q51.7083,17.038429999999998,51.6173,17.07612Q51.5263,17.11381,51.4444,17.16853Q51.3625,17.22325,51.2929,17.29289Q51.2232,17.36254,51.1685,17.44443Q51.1138,17.52632,51.0761,17.61732Q51.038399999999996,17.70831,51.0192,17.80491Q51,17.901510000000002,51,18Q51,18.098489999999998,51.0192,18.19509Q51.038399999999996,18.29169,51.0761,18.38268Q51.1138,18.47368,51.1685,18.55557Q51.2232,18.63746,51.2929,18.70711Q51.3625,18.77675,51.4444,18.83147Q51.5263,18.88619,51.6173,18.92388Q51.7083,18.961570000000002,51.8049,18.98078Q51.9015,19,52,19Q52.0985,19,52.1951,18.98078Q52.2917,18.961570000000002,52.3827,18.92388Q52.4737,18.88619,52.5556,18.83147Q52.6375,18.77675,52.7071,18.70711Q52.776700000000005,18.63746,52.8315,18.55557Q52.8862,18.47368,52.9239,18.38268Q52.961600000000004,18.29169,52.9808,18.19509Q53,18.098489999999998,53,18Q53,17.901510000000002,52.9808,17.80491Q52.961600000000004,17.70831,52.9239,17.61732Q52.8862,17.52632,52.8315,17.44443Q52.776700000000005,17.36254,52.7071,17.29289Q52.6375,17.22325,52.5556,17.16853Q52.4737,17.11381,52.3827,17.07612Q52.2917,17.038429999999998,52.1951,17.01921Q52.0985,17,52,17ZM48,21Q48,20.901510000000002,48.0192,20.80491Q48.038399999999996,20.70831,48.0761,20.61732Q48.1138,20.52632,48.1685,20.44443Q48.2232,20.36254,48.2929,20.29289Q48.3625,20.22325,48.4444,20.16853Q48.5263,20.11381,48.6173,20.07612Q48.7083,20.038429999999998,48.8049,20.01921Q48.9015,20,49,20Q49.0985,20,49.1951,20.01921Q49.2917,20.038429999999998,49.3827,20.07612Q49.4737,20.11381,49.5556,20.16853Q49.6375,20.22325,49.7071,20.29289Q49.776700000000005,20.36254,49.8315,20.44443Q49.8862,20.52632,49.9239,20.61732Q49.961600000000004,20.70831,49.9808,20.80491Q50,20.901510000000002,50,21Q50,21.098489999999998,49.9808,21.19509Q49.961600000000004,21.29169,49.9239,21.38268Q49.8862,21.47368,49.8315,21.55557Q49.776700000000005,21.63746,49.7071,21.70711Q49.6375,21.77675,49.5556,21.83147Q49.4737,21.88619,49.3827,21.92388Q49.2917,21.961570000000002,49.1951,21.98078Q49.0985,22,49,22Q48.9015,22,48.8049,21.98078Q48.7083,21.961570000000002,48.6173,21.92388Q48.5263,21.88619,48.4444,21.83147Q48.3625,21.77675,48.2929,21.70711Q48.2232,21.63746,48.1685,21.55557Q48.1138,21.47368,48.0761,21.38268Q48.038399999999996,21.29169,48.0192,21.19509Q48,21.098489999999998,48,21ZM51,21Q51,20.901510000000002,51.0192,20.80491Q51.038399999999996,20.70831,51.0761,20.61732Q51.1138,20.52632,51.1685,20.44443Q51.2232,20.36254,51.2929,20.29289Q51.3625,20.22325,51.4444,20.16853Q51.5263,20.11381,51.6173,20.07612Q51.7083,20.038429999999998,51.8049,20.01921Q51.9015,20,52,20Q52.0985,20,52.1951,20.01921Q52.2917,20.038429999999998,52.3827,20.07612Q52.4737,20.11381,52.5556,20.16853Q52.6375,20.22325,52.7071,20.29289Q52.776700000000005,20.36254,52.8315,20.44443Q52.8862,20.52632,52.9239,20.61732Q52.961600000000004,20.70831,52.9808,20.80491Q53,20.901510000000002,53,21Q53,21.098489999999998,52.9808,21.19509Q52.961600000000004,21.29169,52.9239,21.38268Q52.8862,21.47368,52.8315,21.55557Q52.776700000000005,21.63746,52.7071,21.70711Q52.6375,21.77675,52.5556,21.83147Q52.4737,21.88619,52.3827,21.92388Q52.2917,21.961570000000002,52.1951,21.98078Q52.0985,22,52,22Q51.9015,22,51.8049,21.98078Q51.7083,21.961570000000002,51.6173,21.92388Q51.5263,21.88619,51.4444,21.83147Q51.3625,21.77675,51.2929,21.70711Q51.2232,21.63746,51.1685,21.55557Q51.1138,21.47368,51.0761,21.38268Q51.038399999999996,21.29169,51.0192,21.19509Q51,21.098489999999998,51,21ZM49,23Q48.9015,23,48.8049,23.019199999999998Q48.7083,23.0384,48.6173,23.0761Q48.5263,23.113799999999998,48.4444,23.1685Q48.3625,23.2232,48.2929,23.2929Q48.2232,23.3625,48.1685,23.4444Q48.1138,23.5263,48.0761,23.6173Q48.038399999999996,23.7083,48.0192,23.8049Q48,23.9015,48,24Q48,24.0985,48.0192,24.1951Q48.038399999999996,24.2917,48.0761,24.3827Q48.1138,24.4737,48.1685,24.5556Q48.2232,24.6375,48.2929,24.7071Q48.3625,24.776699999999998,48.4444,24.8315Q48.5263,24.886200000000002,48.6173,24.9239Q48.7083,24.9616,48.8049,24.980800000000002Q48.9015,25,49,25Q49.0985,25,49.1951,24.980800000000002Q49.2917,24.9616,49.3827,24.9239Q49.4737,24.886200000000002,49.5556,24.8315Q49.6375,24.776699999999998,49.7071,24.7071Q49.776700000000005,24.6375,49.8315,24.5556Q49.8862,24.4737,49.9239,24.3827Q49.961600000000004,24.2917,49.9808,24.1951Q50,24.0985,50,24Q50,23.9015,49.9808,23.8049Q49.961600000000004,23.7083,49.9239,23.6173Q49.8862,23.5263,49.8315,23.4444Q49.776700000000005,23.3625,49.7071,23.2929Q49.6375,23.2232,49.5556,23.1685Q49.4737,23.113799999999998,49.3827,23.0761Q49.2917,23.0384,49.1951,23.019199999999998Q49.0985,23,49,23ZM52,23Q51.9015,23,51.8049,23.019199999999998Q51.7083,23.0384,51.6173,23.0761Q51.5263,23.113799999999998,51.4444,23.1685Q51.3625,23.2232,51.2929,23.2929Q51.2232,23.3625,51.1685,23.4444Q51.1138,23.5263,51.0761,23.6173Q51.038399999999996,23.7083,51.0192,23.8049Q51,23.9015,51,24Q51,24.0985,51.0192,24.1951Q51.038399999999996,24.2917,51.0761,24.3827Q51.1138,24.4737,51.1685,24.5556Q51.2232,24.6375,51.2929,24.7071Q51.3625,24.776699999999998,51.4444,24.8315Q51.5263,24.886200000000002,51.6173,24.9239Q51.7083,24.9616,51.8049,24.980800000000002Q51.9015,25,52,25Q52.0985,25,52.1951,24.980800000000002Q52.2917,24.9616,52.3827,24.9239Q52.4737,24.886200000000002,52.5556,24.8315Q52.6375,24.776699999999998,52.7071,24.7071Q52.776700000000005,24.6375,52.8315,24.5556Q52.8862,24.4737,52.9239,24.3827Q52.961600000000004,24.2917,52.9808,24.1951Q53,24.0985,53,24Q53,23.9015,52.9808,23.8049Q52.961600000000004,23.7083,52.9239,23.6173Q52.8862,23.5263,52.8315,23.4444Q52.776700000000005,23.3625,52.7071,23.2929Q52.6375,23.2232,52.5556,23.1685Q52.4737,23.113799999999998,52.3827,23.0761Q52.2917,23.0384,52.1951,23.019199999999998Q52.0985,23,52,23Z" fill-rule="evenodd" fill="url(#master_svg5_1_3668)" fill-opacity="1"/></g></g></svg>