<svg xmlns="http://www.w3.org/2000/svg" xmlns:xlink="http://www.w3.org/1999/xlink" fill="none" version="1.1" width="48" height="57" viewBox="0 0 48 57"><defs><filter id="master_svg0_1_769" filterUnits="objectBoundingBox" color-interpolation-filters="sRGB" x="0" y="0" width="14" height="8"><feFlood flood-opacity="0" result="BackgroundImageFix"/><feBlend mode="normal" in="SourceGraphic" in2="BackgroundImageFix" result="shape"/><feColorMatrix in="SourceAlpha" type="matrix" result="hardAlpha" values="0 0 0 0 0 0 0 0 0 0 0 0 0 0 0 0 0 0 127 0"/><feOffset dy="0" dx="0"/><feGaussianBlur stdDeviation="1.5"/><feComposite in2="hardAlpha" operator="arithmetic" k2="-1" k3="1"/><feColorMatrix type="matrix" values="0 0 0 0 0.1882352977991104 0 0 0 0 0.7686274647712708 0 0 0 0 1 0 0 0 0.800000011920929 0"/><feBlend mode="normal" in2="shape" result="effect1_innerShadow"/></filter><filter id="master_svg1_1_1798" filterUnits="objectBoundingBox" color-interpolation-filters="sRGB" x="-8" y="-6" width="52" height="59"><feFlood flood-opacity="0" result="BackgroundImageFix"/><feColorMatrix in="SourceAlpha" type="matrix" values="0 0 0 0 0 0 0 0 0 0 0 0 0 0 0 0 0 0 127 0"/><feOffset dy="2" dx="0"/><feGaussianBlur stdDeviation="2"/><feColorMatrix type="matrix" values="0 0 0 0 0 0 0 0 0 0 0 0 0 0 0 0 0 0 0.20000000298023224 0"/><feBlend mode="normal" in2="BackgroundImageFix" result="effect1_dropShadow"/><feBlend mode="normal" in="SourceGraphic" in2="effect1_dropShadow" result="shape"/></filter><linearGradient x1="0.5" y1="0" x2="0.5" y2="0.9321523308753967" id="master_svg2_1_2945"><stop offset="3.57142873108387%" stop-color="#52C3FF" stop-opacity="1"/><stop offset="100%" stop-color="#0073FF" stop-opacity="1"/></linearGradient><linearGradient x1="0.5" y1="0" x2="0.5" y2="1" id="master_svg3_1_766"><stop offset="0%" stop-color="#EFF7FF" stop-opacity="1"/><stop offset="100%" stop-color="#DBEDFF" stop-opacity="0.10350196808576584"/></linearGradient><filter id="master_svg4_1_997" filterUnits="objectBoundingBox" color-interpolation-filters="sRGB" x="-4" y="-3" width="31.00044822692871" height="26.818525314331055"><feFlood flood-opacity="0" result="BackgroundImageFix"/><feColorMatrix in="SourceAlpha" type="matrix" values="0 0 0 0 0 0 0 0 0 0 0 0 0 0 0 0 0 0 127 0"/><feOffset dy="1" dx="0"/><feGaussianBlur stdDeviation="1"/><feColorMatrix type="matrix" values="0 0 0 0 0 0 0 0 0 0 0 0 0 0 0 0 0 0 0.5 0"/><feBlend mode="normal" in2="BackgroundImageFix" result="effect1_dropShadow"/><feBlend mode="normal" in="SourceGraphic" in2="effect1_dropShadow" result="shape"/></filter><linearGradient x1="0.5" y1="0.6344903707504272" x2="0.5" y2="0.004050168674439192" id="master_svg5_1_752"><stop offset="0%" stop-color="#AAF1FF" stop-opacity="1"/><stop offset="100%" stop-color="#FFFFFF" stop-opacity="1"/></linearGradient></defs><g><g filter="url(#master_svg0_1_769_new)"><ellipse cx="24" cy="53" rx="7" ry="4" fill="#0073FF" fill-opacity="0.10196078568696976"/></g><g><ellipse cx="24" cy="53" rx="2" ry="1" fill="#0073FF" fill-opacity="1"/></g><g filter="url(#master_svg1_1_1798)"><path d="M11.27131,34.4047C7.89764,31.0742,6.000000000000003,26.5407,6,21.8112C5.999999999999997,17.0818,7.89764,12.5482,11.27131,9.21773C18.3005,2.2607600000000003,29.6985,2.2607600000000003,36.7278,9.21773C40.102,12.54827,42,17.0822,42,21.8121C42,26.542,40.102,31.076,36.7278,34.4065L24,47L11.27131,34.4047Z" fill="url(#master_svg2_1_2945)" fill-opacity="1"/><path d="M11.27131,34.4047C7.89764,31.0742,6,26.5407,6,21.8112C6,17.0818,7.89764,12.5482,11.27131,9.21773C18.3005,2.2607600000000003,29.6985,2.2607600000000003,36.7278,9.21773C40.102,12.54827,42,17.0822,42,21.8121C42,26.542,40.102,31.076,36.7278,34.4065L24,47L11.27131,34.4047ZM11.97468,33.6939L24,45.5932L36.0253,33.6948Q38.4134,31.3376,39.7068,28.2479Q41,25.1587,41,21.8121Q41,18.465600000000002,39.7068,15.3763Q38.4134,12.2866,36.0243,9.92848Q33.5785,7.50777,30.4008,6.23248Q27.3297,5,23.9995,5Q20.6694,5,17.598300000000002,6.23248Q14.42061,7.50777,11.97384,9.92938Q9.58616,12.28649,8.29298,15.376Q7,18.465,7,21.8112Q7,25.1575,8.29298,28.2465Q9.58616,31.336,11.97384,33.6931L11.97468,33.6939Z" fill-rule="evenodd" fill="url(#master_svg3_1_766)" fill-opacity="1"/></g><g><g filter="url(#master_svg4_1_997)"><path d="M20.98209,12.109999L36.54,19.34245C37.1291,19.6174,37.156800000000004,20.11713,36.6006,20.453760000000003L29.6238,24.680500000000002C29.0676,25.017200000000003,28.1299,25.0684,27.5397,24.7945L17.28014,20.02513C16.68993,19.74933,16.43381,19.04825,16.70723,18.45695L19.40868,12.680816C19.6876,12.0909654,20.38984,11.836198,20.98209,12.109999ZM14.541545,21.98482C14.243591,21.85362,14,22.0125,14,22.3371L14,30.4201C14,30.7452,14.243591,30.9031,14.541545,30.7729L16.8337,29.7651C17.132179999999998,29.6344,17.37525,29.2627,17.37525,28.9376L17.37525,27.6271L22.01968,27.6271C22.50777,27.627499999999998,22.95175,27.3447,23.15765,26.9021L24.231299999999997,24.581200000000003L21.96061,23.5253L21.21833,25.1295L17.37629,25.1295L17.37629,23.8191C17.37629,23.494500000000002,17.1327,23.1223,16.83475,22.9916L14.541545,21.98482ZM35.6252,22.4255L34.0596,25.772L31.8197,24.7307L35.6252,22.4255Z" fill-rule="evenodd" fill="url(#master_svg5_1_752)" fill-opacity="1"/></g></g></g></svg>