<svg xmlns="http://www.w3.org/2000/svg" xmlns:xlink="http://www.w3.org/1999/xlink" fill="none" version="1.1" width="48" height="57" viewBox="0 0 48 57"><defs><filter id="master_svg0_1_3352" filterUnits="objectBoundingBox" color-interpolation-filters="sRGB" x="0" y="0" width="14" height="8"><feFlood flood-opacity="0" result="BackgroundImageFix"/><feBlend mode="normal" in="SourceGraphic" in2="BackgroundImageFix" result="shape"/><feColorMatrix in="SourceAlpha" type="matrix" result="hardAlpha" values="0 0 0 0 0 0 0 0 0 0 0 0 0 0 0 0 0 0 127 0"/><feOffset dy="0" dx="0"/><feGaussianBlur stdDeviation="1.5"/><feComposite in2="hardAlpha" operator="arithmetic" k2="-1" k3="1"/><feColorMatrix type="matrix" values="0 0 0 0 0.1882352977991104 0 0 0 0 0.7686274647712708 0 0 0 0 1 0 0 0 0.800000011920929 0"/><feBlend mode="normal" in2="shape" result="effect1_innerShadow"/></filter><filter id="master_svg1_1_3354" filterUnits="objectBoundingBox" color-interpolation-filters="sRGB" x="-8" y="-6" width="52" height="59"><feFlood flood-opacity="0" result="BackgroundImageFix"/><feColorMatrix in="SourceAlpha" type="matrix" values="0 0 0 0 0 0 0 0 0 0 0 0 0 0 0 0 0 0 127 0"/><feOffset dy="2" dx="0"/><feGaussianBlur stdDeviation="2"/><feColorMatrix type="matrix" values="0 0 0 0 0 0 0 0 0 0 0 0 0 0 0 0 0 0 0.20000000298023224 0"/><feBlend mode="normal" in2="BackgroundImageFix" result="effect1_dropShadow"/><feBlend mode="normal" in="SourceGraphic" in2="effect1_dropShadow" result="shape"/></filter><linearGradient x1="0.5" y1="0" x2="0.5" y2="0.9321523308753967" id="master_svg2_1_2945"><stop offset="3.57142873108387%" stop-color="#52C3FF" stop-opacity="1"/><stop offset="100%" stop-color="#0073FF" stop-opacity="1"/></linearGradient><linearGradient x1="0.5" y1="0" x2="0.5" y2="1" id="master_svg3_1_766"><stop offset="0%" stop-color="#EFF7FF" stop-opacity="1"/><stop offset="100%" stop-color="#DBEDFF" stop-opacity="0.10350196808576584"/></linearGradient><filter id="master_svg4_1_3707" filterUnits="objectBoundingBox" color-interpolation-filters="sRGB" x="-4" y="-3" width="24" height="28"><feFlood flood-opacity="0" result="BackgroundImageFix"/><feColorMatrix in="SourceAlpha" type="matrix" values="0 0 0 0 0 0 0 0 0 0 0 0 0 0 0 0 0 0 127 0"/><feOffset dy="1" dx="0"/><feGaussianBlur stdDeviation="1"/><feColorMatrix type="matrix" values="0 0 0 0 0 0 0 0 0 0 0 0 0 0 0 0 0 0 0.5 0"/><feBlend mode="normal" in2="BackgroundImageFix" result="effect1_dropShadow"/><feBlend mode="normal" in="SourceGraphic" in2="effect1_dropShadow" result="shape"/></filter><linearGradient x1="0.5" y1="0.6344903707504272" x2="0.5" y2="0.004050168674439192" id="master_svg5_1_2983"><stop offset="0%" stop-color="#AAF1FF" stop-opacity="1"/><stop offset="100%" stop-color="#FFFFFF" stop-opacity="1"/></linearGradient></defs><g><g filter="url(#master_svg0_1_3352_new)"><ellipse cx="24" cy="53" rx="7" ry="4" fill="#0073FF" fill-opacity="0.10196078568696976"/></g><g><ellipse cx="24" cy="53" rx="2" ry="1" fill="#0073FF" fill-opacity="1"/></g><g filter="url(#master_svg1_1_3354)"><path d="M11.27131,34.4047C7.89764,31.0742,6.000000000000003,26.5407,6,21.8112C5.999999999999997,17.0818,7.89764,12.5482,11.27131,9.21773C18.3005,2.2607600000000003,29.6985,2.2607600000000003,36.7278,9.21773C40.102,12.54827,42,17.0822,42,21.8121C42,26.542,40.102,31.076,36.7278,34.4065L24,47L11.27131,34.4047Z" fill="url(#master_svg2_1_2945)" fill-opacity="1"/><path d="M11.27131,34.4047C7.89764,31.0742,6,26.5407,6,21.8112C6,17.0818,7.89764,12.5482,11.27131,9.21773C18.3005,2.2607600000000003,29.6985,2.2607600000000003,36.7278,9.21773C40.102,12.54827,42,17.0822,42,21.8121C42,26.542,40.102,31.076,36.7278,34.4065L24,47L11.27131,34.4047ZM11.97468,33.6939L24,45.5932L36.0253,33.6948Q38.4134,31.3376,39.7068,28.2479Q41,25.1587,41,21.8121Q41,18.465600000000002,39.7068,15.3763Q38.4134,12.2866,36.0243,9.92848Q33.5785,7.50777,30.4008,6.23248Q27.3297,5,23.9995,5Q20.6694,5,17.598300000000002,6.23248Q14.42061,7.50777,11.97384,9.92938Q9.58616,12.28649,8.29298,15.376Q7,18.465,7,21.8112Q7,25.1575,8.29298,28.2465Q9.58616,31.336,11.97384,33.6931L11.97468,33.6939Z" fill-rule="evenodd" fill="url(#master_svg3_1_766)" fill-opacity="1"/></g><g filter="url(#master_svg4_1_3707)"><path d="M16,14L16,30Q16,30.0983,16.00963055,30.196Q16.0192611,30.2938,16.0384294,30.3902Q16.0575978,30.4865,16.0861193,30.5806Q16.114641,30.6746,16.152241,30.7654Q16.189841,30.8561,16.236157,30.9428Q16.282474,31.0294,16.337061,31.1111Q16.391648,31.1928,16.453979,31.2688Q16.516311,31.3447,16.585786,31.4142Q16.655262,31.4837,16.731213,31.546Q16.807164,31.6083,16.888859,31.6629Q16.970554,31.7175,17.05721,31.7638Q17.14386,31.8102,17.23463,31.8478Q17.32541,31.8854,17.41943,31.9139Q17.51345,31.9424,17.60982,31.9616Q17.70619,31.9807,17.80397,31.9904Q17.90175,32,18,32L30,32Q30.098300000000002,32,30.195999999999998,31.9904Q30.293799999999997,31.9807,30.3902,31.9616Q30.4865,31.9424,30.5806,31.9139Q30.674599999999998,31.8854,30.7654,31.8478Q30.856099999999998,31.8102,30.9428,31.7638Q31.029400000000003,31.7175,31.1111,31.6629Q31.1928,31.6084,31.2688,31.546Q31.3447,31.4837,31.4142,31.4142Q31.4837,31.3447,31.546,31.2688Q31.6084,31.1928,31.6629,31.1111Q31.7175,31.0294,31.7638,30.9428Q31.810200000000002,30.8561,31.8478,30.7654Q31.8854,30.6746,31.913899999999998,30.5806Q31.9424,30.4865,31.9616,30.3902Q31.9807,30.2938,31.9904,30.196Q32,30.0983,32,30L32,14Q32,13.90175,31.9904,13.80397Q31.9807,13.70619,31.9616,13.60982Q31.9424,13.51345,31.913899999999998,13.41943Q31.8854,13.32541,31.8478,13.23463Q31.810200000000002,13.14386,31.7638,13.05721Q31.7175,12.970554,31.6629,12.888859Q31.6084,12.807164,31.546,12.731213Q31.4837,12.655262,31.4142,12.585786Q31.3447,12.516311,31.2688,12.453979Q31.1928,12.391648,31.1111,12.337061Q31.029400000000003,12.282474,30.9428,12.236157Q30.856099999999998,12.189841,30.7654,12.152241Q30.674599999999998,12.114641,30.5806,12.0861193Q30.4865,12.0575978,30.3902,12.0384294Q30.293799999999997,12.0192611,30.195999999999998,12.00963055Q30.098300000000002,12,30,12L18,12Q17.90175,12,17.80397,12.00963055Q17.70619,12.0192611,17.60982,12.0384294Q17.51345,12.0575978,17.41943,12.0861193Q17.32541,12.114641,17.23463,12.152241Q17.14386,12.189841,17.05721,12.236157Q16.970554,12.282474,16.888859,12.337061Q16.807164,12.391648,16.731213,12.453979Q16.655262,12.516311,16.585786,12.585786Q16.516311,12.655262,16.453979,12.731213Q16.391648,12.807164,16.337061,12.888859Q16.282474,12.970554,16.236157,13.05721Q16.189841,13.14386,16.152241,13.23463Q16.114641,13.32541,16.0861193,13.41943Q16.0575978,13.51345,16.0384294,13.60982Q16.0192611,13.70619,16.00963055,13.80397Q16,13.90175,16,14ZM22.5,14Q22.54925,14,22.597540000000002,13.99039Q22.64584,13.98079,22.69134,13.96194Q22.73684,13.94309,22.77778,13.91573Q22.818730000000002,13.88838,22.85355,13.85355Q22.888370000000002,13.81873,22.91573,13.77778Q22.943089999999998,13.73684,22.96194,13.69134Q22.98078,13.64584,22.990389999999998,13.59755Q23,13.54925,23,13.5Q23,13.45075,22.990389999999998,13.40245Q22.98078,13.35416,22.96194,13.30866Q22.943089999999998,13.26316,22.91573,13.22221Q22.888370000000002,13.18127,22.85355,13.14645Q22.818730000000002,13.11162,22.77778,13.08427Q22.73684,13.05691,22.69134,13.03806Q22.64584,13.01921,22.597540000000002,13.00961Q22.54925,13,22.5,13Q22.45075,13,22.40245,13.00961Q22.35415,13.01921,22.30866,13.03806Q22.26316,13.05691,22.22221,13.08427Q22.181269999999998,13.11162,22.14645,13.14645Q22.111620000000002,13.18127,22.08426,13.22221Q22.0569,13.26316,22.03806,13.30866Q22.01921,13.35416,22.009610000000002,13.40245Q22,13.45075,22,13.5Q22,13.54925,22.009610000000002,13.59754Q22.01921,13.64584,22.03806,13.69134Q22.0569,13.73684,22.08426,13.77778Q22.111620000000002,13.81873,22.14645,13.85355Q22.181269999999998,13.88838,22.22221,13.91573Q22.26316,13.94309,22.30866,13.96194Q22.35415,13.98079,22.40245,13.99039Q22.45075,14,22.5,14ZM26,13.5Q26,13.54925,25.990389999999998,13.59754Q25.98078,13.64584,25.96194,13.69134Q25.943089999999998,13.73684,25.91573,13.77778Q25.888370000000002,13.81873,25.85355,13.85355Q25.818730000000002,13.88838,25.77778,13.91573Q25.73684,13.94309,25.69134,13.96194Q25.64584,13.98079,25.597540000000002,13.99039Q25.549239999999998,14,25.5,14Q25.45075,14,25.40245,13.99039Q25.35415,13.98079,25.30866,13.96194Q25.26316,13.94309,25.22221,13.91573Q25.181269999999998,13.88838,25.14645,13.85355Q25.111620000000002,13.81873,25.08426,13.77778Q25.0569,13.73684,25.03806,13.69134Q25.01921,13.64584,25.009610000000002,13.59755Q25,13.54925,25,13.5Q25,13.45075,25.009610000000002,13.40245Q25.01921,13.35416,25.03806,13.30866Q25.0569,13.26316,25.08426,13.22221Q25.111620000000002,13.18127,25.14645,13.14645Q25.181269999999998,13.11162,25.22221,13.08427Q25.26316,13.05691,25.30866,13.03806Q25.35415,13.01921,25.40245,13.00961Q25.45075,13,25.5,13Q25.549239999999998,13,25.597540000000002,13.00961Q25.64584,13.01921,25.69134,13.03806Q25.73684,13.05691,25.77778,13.08427Q25.818730000000002,13.11162,25.85355,13.14645Q25.888370000000002,13.18127,25.91573,13.22221Q25.943089999999998,13.26316,25.96194,13.30866Q25.98078,13.35416,25.990389999999998,13.40245Q26,13.45075,26,13.5ZM17,16L17,28Q17,28.0985,17.01921,28.1951Q17.038429999999998,28.2917,17.07612,28.3827Q17.11381,28.4737,17.16853,28.5556Q17.22325,28.6375,17.29289,28.7071Q17.36254,28.7767,17.44443,28.8315Q17.52632,28.8862,17.61732,28.9239Q17.70831,28.9616,17.80491,28.9808Q17.901510000000002,29,18,29L30,29Q30.0985,29,30.1951,28.9808Q30.2917,28.9616,30.3827,28.9239Q30.4737,28.8862,30.5556,28.8315Q30.6375,28.7767,30.7071,28.7071Q30.776699999999998,28.6375,30.8315,28.5556Q30.886200000000002,28.4737,30.9239,28.3827Q30.9616,28.2917,30.980800000000002,28.1951Q31,28.0985,31,28L31,16Q31,15.90151,30.980800000000002,15.80491Q30.9616,15.70831,30.9239,15.61732Q30.886200000000002,15.52632,30.8315,15.44443Q30.776699999999998,15.36254,30.7071,15.29289Q30.6375,15.22325,30.5556,15.16853Q30.4737,15.11381,30.3827,15.07612Q30.2917,15.03843,30.1951,15.019210000000001Q30.0985,15,30,15L18,15Q17.901510000000002,15,17.80491,15.019210000000001Q17.70831,15.03843,17.61732,15.07612Q17.52632,15.11381,17.44443,15.16853Q17.36254,15.22325,17.29289,15.29289Q17.22325,15.36254,17.16853,15.44443Q17.11381,15.52632,17.07612,15.61732Q17.038429999999998,15.70831,17.01921,15.80491Q17,15.90151,17,16ZM18,27.5L18,16.5Q18,16.45075,18.00961,16.40245Q18.01921,16.35415,18.03806,16.30866Q18.05691,16.26316,18.08426,16.22221Q18.11162,16.181269999999998,18.14645,16.14645Q18.18127,16.111620000000002,18.22221,16.08426Q18.26316,16.056910000000002,18.30866,16.03806Q18.35416,16.01921,18.40245,16.009610000000002Q18.45075,16,18.5,16L29.5,16Q29.5492,16,29.5975,16.009610000000002Q29.6458,16.01921,29.6913,16.03806Q29.736800000000002,16.056910000000002,29.7778,16.08426Q29.8187,16.111620000000002,29.8536,16.14645Q29.8884,16.181269999999998,29.9157,16.22221Q29.9431,16.26316,29.9619,16.30866Q29.980800000000002,16.35415,29.9904,16.40245Q30,16.45075,30,16.5L30,27.5Q30,27.5492,29.9904,27.5975Q29.980800000000002,27.6458,29.9619,27.6913Q29.9431,27.736800000000002,29.9157,27.7778Q29.8884,27.8187,29.8536,27.8536Q29.8187,27.8884,29.7778,27.9157Q29.736800000000002,27.9431,29.6913,27.9619Q29.6458,27.980800000000002,29.5975,27.9904Q29.5492,28,29.5,28L18.5,28Q18.45075,28,18.40245,27.9904Q18.35416,27.980800000000002,18.30866,27.9619Q18.26316,27.9431,18.22221,27.9157Q18.18127,27.8884,18.14645,27.8536Q18.11162,27.8187,18.08426,27.7778Q18.05691,27.736800000000002,18.03806,27.6913Q18.01921,27.6458,18.00961,27.5975Q18,27.5492,18,27.5ZM19,18Q19,17.901510000000002,19.01921,17.80491Q19.038429999999998,17.70831,19.07612,17.61732Q19.11381,17.52632,19.16853,17.44443Q19.22325,17.36254,19.29289,17.29289Q19.36254,17.22325,19.44443,17.16853Q19.52632,17.11381,19.61732,17.07612Q19.70831,17.038429999999998,19.80491,17.01921Q19.901510000000002,17,20,17L21,17Q21.04925,17,21.09755,17.009610000000002Q21.14584,17.01921,21.19134,17.03806Q21.23684,17.056910000000002,21.27778,17.08426Q21.318730000000002,17.111620000000002,21.35355,17.14645Q21.388370000000002,17.181269999999998,21.41573,17.22221Q21.443089999999998,17.26316,21.46194,17.30866Q21.48078,17.35415,21.490389999999998,17.40245Q21.5,17.45075,21.5,17.5Q21.5,17.54924,21.490389999999998,17.597540000000002Q21.48078,17.64584,21.46194,17.69134Q21.443089999999998,17.73684,21.41573,17.77778Q21.388370000000002,17.818730000000002,21.35355,17.85355Q21.318730000000002,17.888370000000002,21.27778,17.91573Q21.23684,17.943089999999998,21.19134,17.96194Q21.14584,17.98078,21.09755,17.990389999999998Q21.04925,18,21,18L20,18L20,19Q20,19.04925,19.99039,19.097540000000002Q19.98078,19.14584,19.96194,19.19134Q19.94309,19.23684,19.91573,19.27778Q19.88838,19.318730000000002,19.85355,19.35355Q19.81873,19.388370000000002,19.77778,19.41573Q19.73684,19.443089999999998,19.69134,19.46194Q19.64584,19.48078,19.59754,19.490389999999998Q19.54925,19.5,19.5,19.5Q19.45075,19.5,19.40245,19.490389999999998Q19.35415,19.48078,19.30866,19.46194Q19.26316,19.443089999999998,19.22221,19.41573Q19.18127,19.388370000000002,19.14645,19.35355Q19.11162,19.318730000000002,19.08426,19.27778Q19.05691,19.23684,19.03806,19.19134Q19.01921,19.14584,19.00961,19.097540000000002Q19,19.04925,19,19L19,18ZM28,17L27,17Q26.9508,17,26.9025,17.009610000000002Q26.8542,17.01921,26.8087,17.03806Q26.763199999999998,17.056910000000002,26.7222,17.08426Q26.6813,17.111620000000002,26.6464,17.14645Q26.6116,17.181269999999998,26.5843,17.22221Q26.5569,17.26316,26.5381,17.30866Q26.519199999999998,17.35415,26.5096,17.40245Q26.5,17.45075,26.5,17.5Q26.5,17.54924,26.5096,17.597540000000002Q26.519199999999998,17.64584,26.5381,17.69134Q26.5569,17.73684,26.5843,17.77778Q26.6116,17.818730000000002,26.6464,17.85355Q26.6813,17.888370000000002,26.7222,17.91573Q26.763199999999998,17.943089999999998,26.8087,17.96194Q26.8542,17.98078,26.9025,17.990389999999998Q26.9508,18,27,18L28,18L28,19Q28,19.04925,28.0096,19.097540000000002Q28.019199999999998,19.14584,28.0381,19.19134Q28.0569,19.23684,28.0843,19.27778Q28.1116,19.318730000000002,28.1464,19.35355Q28.1813,19.388370000000002,28.2222,19.41573Q28.263199999999998,19.443089999999998,28.3087,19.46194Q28.3542,19.48078,28.4025,19.490389999999998Q28.4508,19.5,28.5,19.5Q28.5492,19.5,28.5975,19.490389999999998Q28.6458,19.48078,28.6913,19.46194Q28.736800000000002,19.443089999999998,28.7778,19.41573Q28.8187,19.388370000000002,28.8536,19.35355Q28.8884,19.318730000000002,28.9157,19.27778Q28.9431,19.23684,28.9619,19.19134Q28.980800000000002,19.14584,28.9904,19.097540000000002Q29,19.04925,29,19L29,18Q29,17.901510000000002,28.980800000000002,17.80491Q28.9616,17.70831,28.9239,17.61732Q28.886200000000002,17.52632,28.8315,17.44443Q28.776699999999998,17.36254,28.7071,17.29289Q28.6375,17.22325,28.5556,17.16853Q28.4737,17.11381,28.3827,17.07612Q28.2917,17.038429999999998,28.1951,17.01921Q28.0985,17,28,17ZM22,20L22,20.5Q22,20.549239999999998,21.990389999999998,20.597540000000002Q21.98078,20.64584,21.96194,20.69134Q21.943089999999998,20.73684,21.91573,20.77778Q21.888370000000002,20.818730000000002,21.85355,20.85355Q21.818730000000002,20.888370000000002,21.77778,20.91573Q21.73684,20.943089999999998,21.69134,20.96194Q21.64584,20.98078,21.597540000000002,20.990389999999998Q21.54924,21,21.5,21Q21.45075,21,21.40245,20.990389999999998Q21.35415,20.98078,21.30866,20.96194Q21.26316,20.943089999999998,21.22221,20.91573Q21.181269999999998,20.888370000000002,21.14645,20.85355Q21.111620000000002,20.818730000000002,21.08426,20.77778Q21.0569,20.73684,21.03806,20.69134Q21.01921,20.64584,21.009610000000002,20.597540000000002Q21,20.549239999999998,21,20.5L21,20Q21,19.95075,21.009610000000002,19.90245Q21.01921,19.85415,21.03806,19.80866Q21.0569,19.76316,21.08426,19.72221Q21.111620000000002,19.681269999999998,21.14645,19.64645Q21.181269999999998,19.611620000000002,21.22221,19.58426Q21.26316,19.5569,21.30866,19.53806Q21.35415,19.51921,21.40245,19.509610000000002Q21.45075,19.5,21.5,19.5Q21.54924,19.5,21.597540000000002,19.509610000000002Q21.64584,19.51921,21.69134,19.53806Q21.73684,19.5569,21.77778,19.58426Q21.818730000000002,19.611620000000002,21.85355,19.64645Q21.888370000000002,19.681269999999998,21.91573,19.72221Q21.943089999999998,19.76316,21.96194,19.80866Q21.98078,19.85415,21.990389999999998,19.90245Q22,19.95075,22,20ZM23.5,20Q23.5,19.95075,23.509610000000002,19.90245Q23.51921,19.85415,23.53806,19.80866Q23.5569,19.76316,23.58426,19.72221Q23.611620000000002,19.681269999999998,23.64645,19.64645Q23.681269999999998,19.611620000000002,23.72221,19.58426Q23.76316,19.5569,23.80866,19.53806Q23.85415,19.51921,23.90245,19.509610000000002Q23.95075,19.5,24,19.5Q24.049239999999998,19.5,24.097540000000002,19.509610000000002Q24.14584,19.51921,24.19134,19.53806Q24.23684,19.5569,24.27778,19.58426Q24.318730000000002,19.611620000000002,24.35355,19.64645Q24.388370000000002,19.681269999999998,24.41573,19.72221Q24.443089999999998,19.76316,24.46194,19.80866Q24.48078,19.85415,24.490389999999998,19.90245Q24.5,19.95075,24.5,20L24.5,22Q24.5,22.0492,24.490389999999998,22.0975Q24.48078,22.1458,24.46194,22.1913Q24.443089999999998,22.236800000000002,24.41573,22.2778Q24.388370000000002,22.3187,24.35355,22.3536Q24.318730000000002,22.3884,24.27778,22.4157Q24.23684,22.4431,24.19134,22.4619Q24.14584,22.480800000000002,24.097540000000002,22.4904Q24.049239999999998,22.5,24,22.5Q23.95075,22.5,23.90245,22.4904Q23.85415,22.480800000000002,23.80866,22.4619Q23.76316,22.4431,23.72221,22.4157Q23.681269999999998,22.3884,23.64645,22.3536Q23.611620000000002,22.3187,23.58426,22.2778Q23.5569,22.236800000000002,23.53806,22.1913Q23.51921,22.1458,23.509610000000002,22.0975Q23.5,22.0492,23.5,22L23.5,20ZM27,20L27,20.5Q27,20.549239999999998,26.9904,20.597540000000002Q26.980800000000002,20.64584,26.9619,20.69134Q26.9431,20.73684,26.9157,20.77778Q26.8884,20.818730000000002,26.8536,20.85355Q26.8187,20.888370000000002,26.7778,20.91573Q26.736800000000002,20.943089999999998,26.6913,20.96194Q26.6458,20.98078,26.5975,20.990389999999998Q26.5492,21,26.5,21Q26.4508,21,26.4025,20.990389999999998Q26.3542,20.98078,26.3087,20.96194Q26.263199999999998,20.943089999999998,26.2222,20.91573Q26.1813,20.888370000000002,26.1464,20.85355Q26.1116,20.818730000000002,26.0843,20.77778Q26.0569,20.73684,26.0381,20.69134Q26.019199999999998,20.64584,26.0096,20.597540000000002Q26,20.549239999999998,26,20.5L26,20Q26,19.95075,26.0096,19.90245Q26.019199999999998,19.85415,26.0381,19.80866Q26.0569,19.76316,26.0843,19.72221Q26.1116,19.681269999999998,26.1464,19.64645Q26.1813,19.611620000000002,26.2222,19.58426Q26.263199999999998,19.5569,26.3087,19.53806Q26.3542,19.51921,26.4025,19.509610000000002Q26.4508,19.5,26.5,19.5Q26.5492,19.5,26.5975,19.509610000000002Q26.6458,19.51921,26.6913,19.53806Q26.736800000000002,19.5569,26.7778,19.58426Q26.8187,19.611620000000002,26.8536,19.64645Q26.8884,19.681269999999998,26.9157,19.72221Q26.9431,19.76316,26.9619,19.80866Q26.980800000000002,19.85415,26.9904,19.90245Q27,19.95075,27,20ZM21.52514,24.474899999999998Q21.454810000000002,24.4045,21.41675,24.3126Q21.37869,24.2208,21.37869,24.121299999999998Q21.37869,24.0721,21.3883,24.0238Q21.39791,23.9755,21.41675,23.93Q21.4356,23.8845,21.46296,23.8435Q21.49032,23.802599999999998,21.52514,23.7678Q21.55996,23.7329,21.60091,23.7056Q21.641849999999998,23.6782,21.687350000000002,23.659399999999998Q21.73285,23.6405,21.78115,23.6309Q21.82945,23.621299999999998,21.87869,23.621299999999998Q21.97815,23.621299999999998,22.07003,23.659399999999998Q22.161920000000002,23.697400000000002,22.23225,23.7678Q22.964480000000002,24.5,24.00001,24.5Q25.03555,24.5,25.767780000000002,23.7678Q25.83811,23.697400000000002,25.92999,23.659399999999998Q26.021900000000002,23.621299999999998,26.121299999999998,23.621299999999998Q26.1706,23.621299999999998,26.218899999999998,23.6309Q26.267200000000003,23.6405,26.3127,23.659399999999998Q26.3582,23.6782,26.3991,23.7056Q26.4401,23.7329,26.474899999999998,23.7678Q26.509700000000002,23.802599999999998,26.537100000000002,23.8435Q26.5644,23.8845,26.5833,23.93Q26.6021,23.9755,26.6117,24.0238Q26.621299999999998,24.0721,26.621299999999998,24.121299999999998Q26.621299999999998,24.2208,26.5833,24.3126Q26.5452,24.4045,26.474899999999998,24.474899999999998Q25.449759999999998,25.5,24.00001,25.5Q22.55027,25.5,21.52514,24.474899999999998ZM19.5,24.5Q19.54925,24.5,19.59754,24.5096Q19.64584,24.519199999999998,19.69134,24.5381Q19.73684,24.5569,19.77778,24.5843Q19.81873,24.6116,19.85355,24.6464Q19.88838,24.6813,19.91573,24.7222Q19.94309,24.763199999999998,19.96194,24.8087Q19.98078,24.8542,19.99039,24.9025Q20,24.9508,20,25L20,26L21,26Q21.04925,26,21.09755,26.0096Q21.14584,26.019199999999998,21.19134,26.0381Q21.23684,26.0569,21.27778,26.0843Q21.318730000000002,26.1116,21.35355,26.1464Q21.388370000000002,26.1813,21.41573,26.2222Q21.443089999999998,26.263199999999998,21.46194,26.3087Q21.48078,26.3542,21.490389999999998,26.4025Q21.5,26.4508,21.5,26.5Q21.5,26.5492,21.490389999999998,26.5975Q21.48078,26.6458,21.46194,26.6913Q21.443089999999998,26.736800000000002,21.41573,26.7778Q21.388370000000002,26.8187,21.35355,26.8536Q21.318730000000002,26.8884,21.27778,26.9157Q21.23684,26.9431,21.19134,26.9619Q21.14584,26.980800000000002,21.09755,26.9904Q21.04925,27,21,27L20,27Q19.901510000000002,27,19.80491,26.980800000000002Q19.70831,26.9616,19.61732,26.9239Q19.52632,26.886200000000002,19.44443,26.8315Q19.36254,26.776699999999998,19.29289,26.7071Q19.22325,26.6375,19.16853,26.5556Q19.11381,26.4737,19.07612,26.3827Q19.038429999999998,26.2917,19.01921,26.1951Q19,26.0985,19,26L19,25Q19,24.9508,19.00961,24.9025Q19.01921,24.8542,19.03806,24.8087Q19.05691,24.763199999999998,19.08426,24.7222Q19.11162,24.6813,19.14645,24.6464Q19.18127,24.6116,19.22221,24.5843Q19.26316,24.5569,19.30866,24.5381Q19.35415,24.519199999999998,19.40245,24.5096Q19.45075,24.5,19.5,24.5ZM28.5,24.5Q28.5492,24.5,28.5975,24.5096Q28.6458,24.519199999999998,28.6913,24.5381Q28.736800000000002,24.5569,28.7778,24.5843Q28.8187,24.6116,28.8536,24.6464Q28.8884,24.6813,28.9157,24.7222Q28.9431,24.763199999999998,28.9619,24.8087Q28.980800000000002,24.8542,28.9904,24.9025Q29,24.9508,29,25L29,26Q29,26.0985,28.980800000000002,26.1951Q28.9616,26.2917,28.9239,26.3827Q28.886200000000002,26.4737,28.8315,26.5556Q28.776699999999998,26.6375,28.7071,26.7071Q28.6375,26.776699999999998,28.5556,26.8315Q28.4737,26.886200000000002,28.3827,26.9239Q28.2917,26.9616,28.1951,26.980800000000002Q28.0985,27,28,27L27,27Q26.9508,27,26.9025,26.9904Q26.8542,26.980800000000002,26.8087,26.9619Q26.763199999999998,26.9431,26.7222,26.9157Q26.6813,26.8884,26.6464,26.8536Q26.6116,26.8187,26.5843,26.7778Q26.5569,26.736800000000002,26.5381,26.6913Q26.519199999999998,26.6458,26.5096,26.5975Q26.5,26.5492,26.5,26.5Q26.5,26.4508,26.5096,26.4025Q26.519199999999998,26.3542,26.5381,26.3087Q26.5569,26.263199999999998,26.5843,26.2222Q26.6116,26.1813,26.6464,26.1464Q26.6813,26.1116,26.7222,26.0843Q26.763199999999998,26.0569,26.8087,26.0381Q26.8542,26.019199999999998,26.9025,26.0096Q26.9508,26,27,26L28,26L28,25Q28,24.9508,28.0096,24.9025Q28.019199999999998,24.8542,28.0381,24.8087Q28.0569,24.763199999999998,28.0843,24.7222Q28.1116,24.6813,28.1464,24.6464Q28.1813,24.6116,28.2222,24.5843Q28.263199999999998,24.5569,28.3087,24.5381Q28.3542,24.519199999999998,28.4025,24.5096Q28.4508,24.5,28.5,24.5Z" fill-rule="evenodd" fill="url(#master_svg5_1_2983)" fill-opacity="1"/></g></g></svg>