<svg xmlns="http://www.w3.org/2000/svg" xmlns:xlink="http://www.w3.org/1999/xlink" fill="none" version="1.1" width="48" height="57" viewBox="0 0 48 57"><defs><filter id="master_svg0_1_3141_new" filterUnits="objectBoundingBox" color-interpolation-filters="sRGB" x="0" y="0" width="14" height="8"><feFlood flood-opacity="0" result="BackgroundImageFix"/><feBlend mode="normal" in="SourceGraphic" in2="BackgroundImageFix" result="shape"/><feColorMatrix in="SourceAlpha" type="matrix" result="hardAlpha" values="0.890 0.451 0.094 0 0 0.890 0.451 0.094 0 0 0.890 0.451 0.094 0 0 0 0 0 1 0"/><feOffset dy="0" dx="0"/><feGaussianBlur stdDeviation="1.5"/><feComposite in2="hardAlpha" operator="arithmetic" k2="-1" k3="1"/><feColorMatrix type="matrix" values="0.890 0.451 0.094 0 0 0.890 0.451 0.094 0 0 0.890 0.451 0.094 0 0 0 0 0 1 0"/><feBlend mode="normal" in2="shape" result="effect1_innerShadow"/></filter><filter id="master_svg1_1_3143" filterUnits="objectBoundingBox" color-interpolation-filters="sRGB" x="-8" y="-6" width="52" height="59"><feFlood flood-opacity="0" result="BackgroundImageFix"/><feColorMatrix in="SourceAlpha" type="matrix" values="0 0 0 0 0 0 0 0 0 0 0 0 0 0 0 0 0 0 127 0"/><feOffset dy="2" dx="0"/><feGaussianBlur stdDeviation="2"/><feColorMatrix type="matrix" values="0 0 0 0 0 0 0 0 0 0 0 0 0 0 0 0 0 0 0.20000000298023224 0"/><feBlend mode="normal" in2="BackgroundImageFix" result="effect1_dropShadow"/><feBlend mode="normal" in="SourceGraphic" in2="effect1_dropShadow" result="shape"/></filter><linearGradient x1="0.5" y1="0" x2="0.5" y2="0.9321523308753967" id="master_svg2_1_2945_new"><stop offset="3.57142873108387%" stop-color="#E37318" stop-opacity="1"/><stop offset="100%" stop-color="#E37318" stop-opacity="1"/></linearGradient><linearGradient x1="0.5" y1="0" x2="0.5" y2="1" id="master_svg3_1_766"><stop offset="0%" stop-color="#E37318" stop-opacity="1"/><stop offset="100%" stop-color="#E37318" stop-opacity="0.10350196808576584"/></linearGradient><filter id="master_svg4_1_3156" filterUnits="objectBoundingBox" color-interpolation-filters="sRGB" x="-4" y="-3" width="30" height="29"><feFlood flood-opacity="0" result="BackgroundImageFix"/><feColorMatrix in="SourceAlpha" type="matrix" values="0 0 0 0 0 0 0 0 0 0 0 0 0 0 0 0 0 0 127 0"/><feOffset dy="1" dx="0"/><feGaussianBlur stdDeviation="1"/><feColorMatrix type="matrix" values="0 0 0 0 0 0 0 0 0 0 0 0 0 0 0 0 0 0 0.5 0"/><feBlend mode="normal" in2="BackgroundImageFix" result="effect1_dropShadow"/><feBlend mode="normal" in="SourceGraphic" in2="effect1_dropShadow" result="shape"/></filter><linearGradient x1="0.5" y1="0.6344903707504272" x2="0.5" y2="0.004050168674439192" id="master_svg5_1_2983_new"><stop offset="0%" stop-color="#FFFFFF" stop-opacity="1"/><stop offset="100%" stop-color="#FFFFFF" stop-opacity="1"/></linearGradient></defs><g><g filter="url(#master_svg0_1_3141_new)"><ellipse cx="24" cy="53" rx="7" ry="4" fill="#E37318" fill-opacity="0.10196078568696976"/></g><g><ellipse cx="24" cy="53" rx="2" ry="1" fill="#E37318" fill-opacity="1"/></g><g filter="url(#master_svg1_1_3143)"><path d="M11.27131,34.4047C7.89764,31.0742,6.000000000000003,26.5407,6,21.8112C5.999999999999997,17.0818,7.89764,12.5482,11.27131,9.21773C18.3005,2.2607600000000003,29.6985,2.2607600000000003,36.7278,9.21773C40.102,12.54827,42,17.0822,42,21.8121C42,26.542,40.102,31.076,36.7278,34.4065L24,47L11.27131,34.4047Z" fill="url(#master_svg2_1_2945_new)" fill-opacity="1"/><path d="M11.27131,34.4047C7.89764,31.0742,6,26.5407,6,21.8112C6,17.0818,7.89764,12.5482,11.27131,9.21773C18.3005,2.2607600000000003,29.6985,2.2607600000000003,36.7278,9.21773C40.102,12.54827,42,17.0822,42,21.8121C42,26.542,40.102,31.076,36.7278,34.4065L24,47L11.27131,34.4047ZM11.97468,33.6939L24,45.5932L36.0253,33.6948Q38.4134,31.3376,39.7068,28.2479Q41,25.1587,41,21.8121Q41,18.465600000000002,39.7068,15.3763Q38.4134,12.2866,36.0243,9.92848Q33.5785,7.50777,30.4008,6.23248Q27.3297,5,23.9995,5Q20.6694,5,17.598300000000002,6.23248Q14.42061,7.50777,11.97384,9.92938Q9.58616,12.28649,8.29298,15.376Q7,18.465,7,21.8112Q7,25.1575,8.29298,28.2465Q9.58616,31.336,11.97384,33.6931L11.97468,33.6939Z" fill-rule="evenodd" fill="url(#master_svg3_1_766)" fill-opacity="1"/></g><g filter="url(#master_svg4_1_3156)"><g><path d="M25.999695708465577,11L15.999995708465576,11C14.895426708465576,11,13.999995708465576,11.895431,13.999995708465576,13L13.999995708465576,30C13.999995708465576,31.1046,14.895426708465576,32,15.999995708465576,32L25.99899570846558,32C27.103595708465576,32,27.99899570846558,31.111,27.99899570846558,30.0064L27.99899570846558,29.4997L27.999095708465575,29.2239C27.999595708465577,28.119,27.103995708465575,27.223,25.999095708465575,27.223L25.673795708465576,27.223C24.520595708465578,27.2223,23.585925708465574,26.2815,23.585165708465574,25.1206L23.585165708465574,25.1194L23.586115708465577,20.73847C23.586115708465577,19.578020000000002,24.519795708465576,18.63784,25.672495708465576,18.63655L25.673895708465576,18.63655L25.99899570846558,18.63655C27.103595708465576,18.63655,27.999095708465575,17.74201,27.999195708465578,16.637439999999998Q27.999395708465578,15.251909999999999,27.999695708465577,12.98801C27.999895708465576,11.883326,27.104395708465574,11,25.999695708465577,11ZM20.860635708465576,19.94757C20.533445708465578,19.94706,20.268475708465576,19.68167,20.268475708465576,19.354480000000002L20.268475708465576,19.35443C20.265855708465576,18.28297,20.691615708465577,17.25491,21.451005708465576,16.49903C22.206755708465575,15.73897,23.235515708465577,15.3134,24.307295708465574,15.317440000000001C24.634095708465576,15.317440000000001,24.899095708465577,15.582360000000001,24.899095708465577,15.90915C24.899095708465577,16.23594,24.634095708465576,16.50086,24.307295708465574,16.50086C23.544665708465576,16.50086,22.826915708465577,16.79878,22.287915708465576,17.337780000000002C21.750825708465577,17.87231,21.449815708465575,18.59944,21.451915708465577,19.35719C21.450915708465576,19.68322,21.185795708465577,19.9467,20.859765708465577,19.945700000000002L20.859755708465578,19.94661L20.860635708465576,19.94757ZM22.770895708465574,20.05481C22.444625708465576,20.054270000000002,22.180255708465577,19.7899,22.179715708465576,19.463630000000002L22.179715708465576,19.46356C22.181225708465576,18.23234,23.178665708465577,17.23445,24.409895708465577,17.23239C24.736395708465576,17.25058,24.986395708465576,17.53004,24.968195708465576,17.85658C24.951395708465576,18.15771,24.710995708465575,18.39812,24.409895708465577,18.41489C23.831745708465576,18.41489,23.363065708465577,18.883580000000002,23.363065708465577,19.46173L23.363065708465577,19.46264C23.363065708465577,19.78987,23.09818570846558,20.05478,22.770965708465575,20.05481L22.770895708465574,20.05481ZM24.999995708465576,22L35.999995708465576,22L35.999995708465576,21.0857C35.99879570846558,20.48664,35.55749570846558,20.001350000000002,35.01289570846558,20L25.987195708465578,20C25.44249570846558,20.001350000000002,25.001195708465577,20.486629999999998,24.999995708465576,21.0857L24.999995708465576,22ZM15.999995708465576,22.999200000000002C15.999995708465576,21.897399999999998,16.918995708465577,21,18.047425708465575,21C19.178615708465575,21.0529,20.051745708465575,21.9911,19.997605708465578,23.0957C19.947095708465575,24.1263,19.102855708465576,24.950699999999998,18.047425708465575,25C16.917425708465576,24.9985,15.999995708465576,24.102600000000002,15.999995708465576,22.999200000000002ZM25.988095708465575,26L35.01189570846557,26C35.55719570846558,26,35.999995708465576,25.647199999999998,35.999995708465576,25.2137L35.999995708465576,23L24.999995708465576,23L24.999995708465576,25.2137C24.999995708465576,25.647199999999998,25.442795708465574,26,25.988095708465575,26ZM18.105225708465575,23.008200000000002C18.062145708465575,23.008200000000002,18.024565708465577,23.0476,18.024565708465577,23.098100000000002C18.024565708465577,23.1934,18.185895708465576,23.1934,18.185895708465576,23.098100000000002C18.185895708465576,23.0522,18.149225708465575,23.008200000000002,18.105225708465575,23.008200000000002Z" fill-rule="evenodd" fill="url(#master_svg5_1_2983_new)" fill-opacity="1"/></g></g></g></svg>