<svg xmlns="http://www.w3.org/2000/svg" xmlns:xlink="http://www.w3.org/1999/xlink" fill="none" version="1.1" width="48" height="57" viewBox="0 0 48 57"><defs><filter id="master_svg0_1_3204" filterUnits="objectBoundingBox" color-interpolation-filters="sRGB" x="0" y="0" width="14" height="8"><feFlood flood-opacity="0" result="BackgroundImageFix"/><feBlend mode="normal" in="SourceGraphic" in2="BackgroundImageFix" result="shape"/><feColorMatrix in="SourceAlpha" type="matrix" result="hardAlpha" values="0 0 0 0 0 0 0 0 0 0 0 0 0 0 0 0 0 0 127 0"/><feOffset dy="0" dx="0"/><feGaussianBlur stdDeviation="1.5"/><feComposite in2="hardAlpha" operator="arithmetic" k2="-1" k3="1"/><feColorMatrix type="matrix" values="0 0 0 0 0.1882352977991104 0 0 0 0 0.7686274647712708 0 0 0 0 1 0 0 0 0.800000011920929 0"/><feBlend mode="normal" in2="shape" result="effect1_innerShadow"/></filter><filter id="master_svg1_1_3206" filterUnits="objectBoundingBox" color-interpolation-filters="sRGB" x="-8" y="-6" width="52" height="59"><feFlood flood-opacity="0" result="BackgroundImageFix"/><feColorMatrix in="SourceAlpha" type="matrix" values="0 0 0 0 0 0 0 0 0 0 0 0 0 0 0 0 0 0 127 0"/><feOffset dy="2" dx="0"/><feGaussianBlur stdDeviation="2"/><feColorMatrix type="matrix" values="0 0 0 0 0 0 0 0 0 0 0 0 0 0 0 0 0 0 0.20000000298023224 0"/><feBlend mode="normal" in2="BackgroundImageFix" result="effect1_dropShadow"/><feBlend mode="normal" in="SourceGraphic" in2="effect1_dropShadow" result="shape"/></filter><linearGradient x1="0.5" y1="0" x2="0.5" y2="0.9321523308753967" id="master_svg2_1_2945"><stop offset="3.57142873108387%" stop-color="#52C3FF" stop-opacity="1"/><stop offset="100%" stop-color="#0073FF" stop-opacity="1"/></linearGradient><linearGradient x1="0.5" y1="0" x2="0.5" y2="1" id="master_svg3_1_766"><stop offset="0%" stop-color="#EFF7FF" stop-opacity="1"/><stop offset="100%" stop-color="#DBEDFF" stop-opacity="0.10350196808576584"/></linearGradient><filter id="master_svg4_1_3238" filterUnits="objectBoundingBox" color-interpolation-filters="sRGB" x="-4" y="-3" width="28" height="28"><feFlood flood-opacity="0" result="BackgroundImageFix"/><feColorMatrix in="SourceAlpha" type="matrix" values="0 0 0 0 0 0 0 0 0 0 0 0 0 0 0 0 0 0 127 0"/><feOffset dy="1" dx="0"/><feGaussianBlur stdDeviation="1"/><feColorMatrix type="matrix" values="0 0 0 0 0 0 0 0 0 0 0 0 0 0 0 0 0 0 0.5 0"/><feBlend mode="normal" in2="BackgroundImageFix" result="effect1_dropShadow"/><feBlend mode="normal" in="SourceGraphic" in2="effect1_dropShadow" result="shape"/></filter><linearGradient x1="0.5" y1="0.6344903707504272" x2="0.5" y2="0.004050168674439192" id="master_svg5_1_752"><stop offset="0%" stop-color="#AAF1FF" stop-opacity="1"/><stop offset="100%" stop-color="#FFFFFF" stop-opacity="1"/></linearGradient></defs><g><g filter="url(#master_svg0_1_3204_new)"><ellipse cx="24" cy="53" rx="7" ry="4" fill="#0073FF" fill-opacity="0.10196078568696976"/></g><g><ellipse cx="24" cy="53" rx="2" ry="1" fill="#0073FF" fill-opacity="1"/></g><g filter="url(#master_svg1_1_3206)"><path d="M11.27131,34.4047C7.89764,31.0742,6.000000000000003,26.5407,6,21.8112C5.999999999999997,17.0818,7.89764,12.5482,11.27131,9.21773C18.3005,2.2607600000000003,29.6985,2.2607600000000003,36.7278,9.21773C40.102,12.54827,42,17.0822,42,21.8121C42,26.542,40.102,31.076,36.7278,34.4065L24,47L11.27131,34.4047Z" fill="url(#master_svg2_1_2945)" fill-opacity="1"/><path d="M11.27131,34.4047C7.89764,31.0742,6,26.5407,6,21.8112C6,17.0818,7.89764,12.5482,11.27131,9.21773C18.3005,2.2607600000000003,29.6985,2.2607600000000003,36.7278,9.21773C40.102,12.54827,42,17.0822,42,21.8121C42,26.542,40.102,31.076,36.7278,34.4065L24,47L11.27131,34.4047ZM11.97468,33.6939L24,45.5932L36.0253,33.6948Q38.4134,31.3376,39.7068,28.2479Q41,25.1587,41,21.8121Q41,18.465600000000002,39.7068,15.3763Q38.4134,12.2866,36.0243,9.92848Q33.5785,7.50777,30.4008,6.23248Q27.3297,5,23.9995,5Q20.6694,5,17.598300000000002,6.23248Q14.42061,7.50777,11.97384,9.92938Q9.58616,12.28649,8.29298,15.376Q7,18.465,7,21.8112Q7,25.1575,8.29298,28.2465Q9.58616,31.336,11.97384,33.6931L11.97468,33.6939Z" fill-rule="evenodd" fill="url(#master_svg3_1_766)" fill-opacity="1"/></g><g filter="url(#master_svg4_1_3238)"><path d="M17,15L17,31Q16.901509,31,16.80491,31.0192Q16.708311,31.0384,16.617316,31.0761Q16.526322,31.1138,16.44443,31.1685Q16.362537,31.2232,16.292893,31.2929Q16.223249,31.3625,16.16853,31.4444Q16.113811,31.5263,16.0761205,31.6173Q16.0384294,31.7083,16.0192147,31.8049Q16,31.9015,16,32Q16,32.0985,16.0192147,32.1951Q16.0384294,32.2917,16.0761205,32.3827Q16.113811,32.4737,16.16853,32.5556Q16.223249,32.6375,16.292893,32.7071Q16.362537,32.776700000000005,16.44443,32.8315Q16.526322,32.8862,16.617316,32.9239Q16.708311,32.961600000000004,16.80491,32.9808Q16.901509,33,17,33L25,33Q25.098489999999998,33,25.19509,32.9808Q25.29169,32.961600000000004,25.38268,32.9239Q25.47368,32.8862,25.55557,32.8315Q25.63746,32.776700000000005,25.70711,32.7071Q25.77675,32.6375,25.83147,32.5556Q25.88619,32.4737,25.92388,32.3827Q25.961570000000002,32.2917,25.98078,32.1951Q26,32.0985,26,32Q26,31.9015,25.98078,31.8049Q25.961570000000002,31.7083,25.92388,31.6173Q25.88619,31.5263,25.83147,31.4444Q25.77675,31.3625,25.70711,31.2929Q25.63746,31.2232,25.55557,31.1685Q25.47368,31.1138,25.38268,31.0761Q25.29169,31.0384,25.19509,31.0192Q25.098489999999998,31,25,31L25,20L23.236069999999998,20Q23.025019999999998,20.23596,22.769379999999998,20.42267Q22.51373,20.60938,22.22475,20.73861Q21.935760000000002,20.86785,21.62616,20.93393Q21.31657,21,21,21Q20.85262,21,20.70595,20.98555Q20.55928,20.97111,20.41473,20.94235Q20.27018,20.9136,20.12915,20.870820000000002Q19.98811,20.82804,19.85195,20.771639999999998Q19.71579,20.71524,19.58581,20.64576Q19.45583,20.57629,19.333289999999998,20.494410000000002Q19.21075,20.41253,19.09682,20.319029999999998Q18.98289,20.22553,18.87868,20.12132Q18.77447,20.01711,18.68097,19.90318Q18.58747,19.78925,18.50559,19.666710000000002Q18.42371,19.54417,18.35424,19.414189999999998Q18.28476,19.28421,18.22836,19.148049999999998Q18.17196,19.01189,18.129179999999998,18.87085Q18.0864,18.72982,18.05764,18.58527Q18.02889,18.44072,18.01445,18.29405Q18,18.14738,18,18Q18,17.85262,18.01445,17.70595Q18.02889,17.55928,18.05764,17.41473Q18.0864,17.27018,18.129179999999998,17.12915Q18.17196,16.98811,18.22836,16.85195Q18.28476,16.71579,18.35424,16.58581Q18.42371,16.45583,18.50559,16.333289999999998Q18.58747,16.21075,18.68097,16.09682Q18.77447,15.98289,18.87868,15.87868Q18.98289,15.77447,19.09682,15.68097Q19.21075,15.58747,19.333289999999998,15.50559Q19.45583,15.42371,19.58581,15.35424Q19.71579,15.28476,19.85195,15.22836Q19.98811,15.17196,20.12915,15.12918Q20.27018,15.0864,20.41473,15.05764Q20.55928,15.02889,20.70595,15.01445Q20.85262,15,21,15Q21.31657,15,21.62616,15.06607Q21.935760000000002,15.13215,22.22475,15.26139Q22.51373,15.39063,22.769379999999998,15.57733Q23.025019999999998,15.76404,23.236069999999998,16L25,16L25,15Q25,14.90175,24.99037,14.80397Q24.98074,14.70619,24.961570000000002,14.60982Q24.9424,14.51345,24.91388,14.41943Q24.88536,14.32541,24.84776,14.23463Q24.81016,14.14386,24.763840000000002,14.05721Q24.71753,13.970554,24.66294,13.888859Q24.60835,13.807164,24.54602,13.731213Q24.48369,13.655262,24.41421,13.585786Q24.34474,13.516311,24.26879,13.453979Q24.19283,13.391648,24.11114,13.337061Q24.02944,13.282474,23.94279,13.236157Q23.85614,13.189841,23.76537,13.152241Q23.674590000000002,13.114641,23.58057,13.0861193Q23.48655,13.0575978,23.39018,13.0384294Q23.29381,13.0192611,23.19603,13.00963055Q23.09825,13,23,13L19,13Q18.90175,13,18.80397,13.00963055Q18.70619,13.0192611,18.60982,13.0384294Q18.51345,13.0575978,18.41943,13.0861193Q18.32541,13.114641,18.23463,13.152241Q18.14386,13.189841,18.05721,13.236157Q17.97055,13.282474,17.88886,13.337061Q17.80716,13.391648,17.73121,13.453979Q17.65526,13.516311,17.58579,13.585786Q17.51631,13.655262,17.45398,13.731213Q17.39165,13.807164,17.33706,13.888859Q17.28247,13.970554,17.236159999999998,14.05721Q17.18984,14.14386,17.15224,14.23463Q17.11464,14.32541,17.08612,14.41943Q17.0576,14.51345,17.038429999999998,14.60982Q17.01926,14.70619,17.00963,14.80397Q17,14.90175,17,15ZM20,18Q20,17.901510000000002,20.01921,17.80491Q20.038429999999998,17.70831,20.07612,17.61732Q20.11381,17.52632,20.16853,17.44443Q20.22325,17.36254,20.29289,17.29289Q20.36254,17.22325,20.44443,17.16853Q20.52632,17.11381,20.61732,17.07612Q20.70831,17.038429999999998,20.80491,17.01921Q20.901510000000002,17,21,17L35,17Q35.0985,17,35.1951,17.01921Q35.2917,17.038429999999998,35.3827,17.07612Q35.4737,17.11381,35.5556,17.16853Q35.6375,17.22325,35.7071,17.29289Q35.776700000000005,17.36254,35.8315,17.44443Q35.8862,17.52632,35.9239,17.61732Q35.961600000000004,17.70831,35.9808,17.80491Q36,17.901510000000002,36,18Q36,18.098489999999998,35.9808,18.19509Q35.961600000000004,18.29169,35.9239,18.38268Q35.8862,18.47368,35.8315,18.55557Q35.776700000000005,18.63746,35.7071,18.70711Q35.6375,18.77675,35.5556,18.83147Q35.4737,18.88619,35.3827,18.92388Q35.2917,18.961570000000002,35.1951,18.98078Q35.0985,19,35,19L21,19Q20.901510000000002,19,20.80491,18.98078Q20.70831,18.961570000000002,20.61732,18.92388Q20.52632,18.88619,20.44443,18.83147Q20.36254,18.77675,20.29289,18.70711Q20.22325,18.63746,20.16853,18.55557Q20.11381,18.47368,20.07612,18.38268Q20.038429999999998,18.29169,20.01921,18.19509Q20,18.098489999999998,20,18ZM20.5,23Q20.45075,23,20.40245,23.0096Q20.35415,23.019199999999998,20.30866,23.0381Q20.26316,23.0569,20.22221,23.0843Q20.181269999999998,23.1116,20.14645,23.1464Q20.111620000000002,23.1813,20.08426,23.2222Q20.056910000000002,23.263199999999998,20.03806,23.3087Q20.01921,23.3542,20.009610000000002,23.4025Q20,23.4508,20,23.5Q20,23.5492,20.009610000000002,23.5975Q20.01921,23.6458,20.03806,23.6913Q20.056910000000002,23.736800000000002,20.08426,23.7778Q20.111620000000002,23.8187,20.14645,23.8536Q20.181269999999998,23.8884,20.22221,23.9157Q20.26316,23.9431,20.30866,23.9619Q20.35415,23.980800000000002,20.40245,23.9904Q20.45075,24,20.5,24L21.5,24Q21.54924,24,21.597540000000002,23.9904Q21.64584,23.980800000000002,21.69134,23.9619Q21.73684,23.9431,21.77778,23.9157Q21.818730000000002,23.8884,21.85355,23.8536Q21.888370000000002,23.8187,21.91573,23.7778Q21.943089999999998,23.736800000000002,21.96194,23.6913Q21.98078,23.6458,21.990389999999998,23.5975Q22,23.5492,22,23.5Q22,23.4508,21.990389999999998,23.4025Q21.98078,23.3542,21.96194,23.3087Q21.943089999999998,23.263199999999998,21.91573,23.2222Q21.888370000000002,23.1813,21.85355,23.1464Q21.818730000000002,23.1116,21.77778,23.0843Q21.73684,23.0569,21.69134,23.0381Q21.64584,23.019199999999998,21.597540000000002,23.0096Q21.54924,23,21.5,23L20.5,23Z" fill-rule="evenodd" fill="url(#master_svg5_1_752)" fill-opacity="1"/></g></g></svg>