<svg xmlns="http://www.w3.org/2000/svg" xmlns:xlink="http://www.w3.org/1999/xlink" fill="none" version="1.1" width="124.800048828125" height="20" viewBox="0 0 124.800048828125 20"><g><g><path d="M23.26,4.11392L22.4375,0.00341797L24.891,0.00341797L25.7135,4.11392L23.26,4.11392ZM40.163,0.00341797L26.563,0.00341797L26.563,19.9999L29.0155,19.9999L29.0155,2.45892L39.5495,2.45892C39.789,2.45892,39.9825,2.65242,39.9825,2.89192L39.9825,19.9999L42.435,19.9999L42.435,2.27442C42.435,1.02042,41.418,0.00341797,40.163,0.00341797ZM38.8761,4.3623L30.1201,4.3623L30.1201,6.4378L38.8761,6.4378L38.8761,4.3623ZM23.26,9.15884L22.4375,5.04834L24.891,5.04834L25.7135,9.15884L23.26,9.15884ZM29.7925,12.4506C29.7925,9.21062,31.038,7.72412,34.523,7.72412C38.11,7.72412,39.1965,9.21062,39.203,12.4506C39.1965,15.6906,38.11,17.1771,34.523,17.1771C31.0375,17.1771,29.7925,15.6906,29.7925,12.4506ZM31.88,12.4506C31.88,14.4251,32.483,15.2306,34.522,15.2306C36.678,15.2306,37.115,14.4251,37.115,12.4506C37.115,10.4761,36.678,9.67062,34.522,9.67062C32.4825,9.67062,31.88,10.4761,31.88,12.4506ZM24.891,20.0002L22.4375,20.0002L23.26,12.0742L25.7135,12.0742L24.891,20.0002ZM0,2.0575L8.7725,2.0575L8.7725,3.358L0,3.358L0,9.9825L2.4495,9.105L2.4495,5.415L4.386,5.415L4.386,8.3795L6.8365,7.503L6.8365,5.415L8.7725,5.415L8.7725,8.1075L0,11.284L0,13.7335L2.26801,12.917L2.26801,14.7355L15.3355,14.7645L15.334,14.7645C15.5705,14.7595,15.7655,14.947,15.771,15.1825C15.7725,15.2535,15.746,15.3155,15.7165,15.3745C15.5555,15.669,15.3635,15.96,15.093,16.248C14.065,17.3365,12.4315,17.9115,10.223,17.9115C8.01451,17.9115,6.38101,17.337,5.35302,16.2475C5.29252,16.187,5.23202,16.0965,5.17152,16.036L2.75203,16.036C2.99403,16.5805,3.35603,17.0945,3.81102,17.609C5.23202,19.1815,7.37953,19.9985,10.223,19.9985C13.0665,19.999,15.214,19.182,16.6365,17.609C17.18,17.004,17.5435,16.399,17.8165,15.7635C17.846,15.7035,17.846,15.673,17.877,15.6125C17.967,15.3705,18.0275,15.1285,18.0275,14.856C18.0275,13.646,17.029,12.648,15.8195,12.648L11.222,12.648L11.222,11.2835L8.7725,11.2835L8.7725,12.6145L3.025,12.6145L9.983,10.1035L19.9955,13.7335L19.9955,11.284L11.223,8.1075L11.223,5.415L13.1585,5.415L13.1585,7.503L15.609,8.3795L15.609,5.415L17.0915,5.415C17.3335,5.415,17.5145,5.5965,17.5145,5.839L17.5145,9.1055L19.995,9.983L19.995,5.415C19.995,5.3845,19.995,5.3845,19.995,5.3545C19.995,4.266,19.1175,3.358,18.029,3.358C17.9985,3.358,17.9985,3.358,17.9685,3.358L11.2225,3.358L11.2225,2.0575L19.995,2.0575L19.995,0L0,0L0,2.0575Z" fill-rule="evenodd" fill="#000000" fill-opacity="1"/></g><g><path d="M58.999998321533205,1.439999L58.999998321533205,17L64.7399983215332,17L64.7399983215332,18.36L47.2599983215332,18.36L47.2599983215332,17L53.0799983215332,17L53.0799983215332,1.439999L54.459998321533206,1.439999L54.459998321533206,17L57.59999832153321,17L57.59999832153321,1.439999L58.999998321533205,1.439999ZM51.1199983215332,13.66Q48.819998321533205,7.48,47.8399983215332,5.42L49.09999832153321,4.82Q50.139998321533206,7.02,52.4399983215332,13.02L51.1199983215332,13.66ZM64.2999983215332,5.44Q63.6399983215332,7.2,62.59999832153321,9.68Q61.5599983215332,12.16,60.7799983215332,13.72L59.5199983215332,13.04Q60.359998321533205,11.42,61.3299983215332,9.07Q62.2999983215332,6.72,62.959998321533206,4.88L64.2999983215332,5.44ZM77.4199983215332,8.02Q80.27999832153321,9.16,84.87999832153321,9.96L84.5399983215332,11.26Q81.7999983215332,10.72,79.73999832153319,10.11Q77.6799983215332,9.5,76.0599983215332,8.719999999999999Q72.6399983215332,10.32,67.6199983215332,11.5L67.1799983215332,10.22Q71.5999983215332,9.26,74.6799983215332,7.96Q72.8399983215332,6.86,71.1799983215332,5.18Q69.8199983215332,6.52,68.1999983215332,7.68L67.4599983215332,6.7Q69.0799983215332,5.54,70.5999983215332,3.96Q72.1199983215332,2.38,72.9799983215332,1L74.1799983215332,1.52Q73.5799983215332,2.42,73.0599983215332,3.08L82.5199983215332,3.08L82.5199983215332,4.24Q80.3199983215332,6.44,77.4199983215332,8.02ZM72.0399983215332,4.3Q73.7399983215332,6.22,75.9999983215332,7.36Q78.8199983215332,6,80.5799983215332,4.26L72.0599983215332,4.26L72.0399983215332,4.3ZM75.2399983215332,10.26L74.9999983215332,12.3L82.5599983215332,12.3Q82.5199983215332,12.82,82.3399983215332,14.52Q82.15999832153321,16.22,82.0799983215332,16.82Q81.9599983215332,17.66,81.6199983215332,18.14Q81.27999832153321,18.62,80.6199983215332,18.83Q79.9599983215332,19.04,78.8199983215332,19.04L75.65999832153321,19.04L75.3999983215332,17.84L78.37999832153321,17.84Q79.27999832153321,17.84,79.73999832153319,17.72Q80.1999983215332,17.6,80.4299983215332,17.27Q80.65999832153321,16.939999999999998,80.73999832153319,16.3Q81.0399983215332,13.92,81.0799983215332,13.54L74.7599983215332,13.54Q74.4199983215332,14.94,73.6699983215332,15.96Q72.9199983215332,16.98,71.6199983215332,17.84Q70.3199983215332,18.7,68.1799983215332,19.64L67.3999983215332,18.46Q69.3399983215332,17.72,70.5299983215332,17.02Q71.71999832153321,16.32,72.3999983215332,15.49Q73.0799983215332,14.66,73.3999983215332,13.54L68.1999983215332,13.54L68.1999983215332,12.3L73.6399983215332,12.3L73.6399983215332,12.26Q73.7999983215332,10.94,73.8399983215332,10.24L75.2399983215332,10.26ZM90.27999832153321,3.66L87.27999832153321,3.66L87.27999832153321,2.46L96.4799983215332,2.46L96.4799983215332,3.66L93.73999832153319,3.66L93.73999832153319,6.16L96.0999983215332,6.16L96.0999983215332,18.22L89.0399983215332,18.22L89.0399983215332,19.48L87.9199983215332,19.48L87.9199983215332,6.16L90.27999832153321,6.16L90.27999832153321,3.66ZM103.37999832153321,13.32L104.6799983215332,13.58L104.5399983215332,16.36Q104.4799983215332,17.38,104.27999832153321,17.89Q104.0799983215332,18.4,103.62999832153321,18.6Q103.1799983215332,18.8,102.2599983215332,18.8L99.9599983215332,18.8Q99.0799983215332,18.8,98.6099983215332,18.59Q98.1399983215332,18.38,97.93999832153321,17.88Q97.73999832153319,17.38,97.73999832153319,16.42L97.73999832153319,8.719999999999999L102.49999832153321,8.719999999999999L102.49999832153321,3.86L97.4799983215332,3.86L97.4799983215332,2.56L103.8199983215332,2.56L103.8199983215332,10.08L99.0799983215332,10.08L99.0799983215332,16.14Q99.0799983215332,16.72,99.1699983215332,16.990000000000002Q99.2599983215332,17.26,99.5199983215332,17.36Q99.77999832153321,17.46,100.3199983215332,17.46L101.8599983215332,17.46Q102.4599983215332,17.46,102.74999832153321,17.34Q103.0399983215332,17.22,103.15999832153321,16.91Q103.27999832153321,16.6,103.3199983215332,15.94L103.37999832153321,13.32ZM91.3199983215332,6.16L92.65999832153321,6.16L92.65999832153321,3.66L91.3199983215332,3.66L91.3199983215332,6.16ZM90.4199983215332,7.34L89.0199983215332,7.34L89.0199983215332,12.18Q89.8599983215332,11.26,90.1399983215332,10.33Q90.4199983215332,9.4,90.4199983215332,7.6L90.4199983215332,7.34ZM94.1999983215332,12Q93.37999832153321,12,93.0199983215332,11.66Q92.65999832153321,11.32,92.65999832153321,10.52L92.65999832153321,7.34L91.3199983215332,7.34L91.3199983215332,7.78Q91.2999983215332,9.7,90.96999832153321,10.77Q90.6399983215332,11.84,89.71999832153321,12.92L89.0399983215332,12.42L89.0399983215332,13.76L94.9599983215332,13.76L94.9599983215332,12L94.1999983215332,12ZM94.9799983215332,11.02L94.9799983215332,7.34L93.5799983215332,7.34L93.5799983215332,10.12Q93.5799983215332,10.64,93.7899983215332,10.83Q93.99999832153321,11.02,94.5199983215332,11.02L94.9799983215332,11.02ZM89.0399983215332,14.94L89.0399983215332,17.06L94.9599983215332,17.06L94.9599983215332,14.94L89.0399983215332,14.94ZM122.1199983215332,9.28L122.1199983215332,17.86L124.79999832153321,17.86L124.79999832153321,18.92L107.21999832153321,18.92L107.21999832153321,17.86L109.9199983215332,17.86L109.9199983215332,9.28L115.3399983215332,9.28L115.3399983215332,8.04L107.8999983215332,8.04L107.8999983215332,7.04L115.3599983215332,7.04L115.3599983215332,5.74L108.5999983215332,5.74L108.5999983215332,2.08L123.3999983215332,2.08L123.3999983215332,5.74L116.65999832153321,5.74L116.65999832153321,7.04L124.0999983215332,7.04L124.0999983215332,8.04L116.6799983215332,8.04L116.6799983215332,9.28L122.1199983215332,9.28ZM113.1799983215332,3.02L109.8999983215332,3.02L109.8999983215332,4.8L113.1799983215332,4.8L113.1799983215332,3.02ZM114.4199983215332,3.02L114.4199983215332,4.8L117.6199983215332,4.8L117.6199983215332,3.02L114.4199983215332,3.02ZM118.8599983215332,4.8L122.1199983215332,4.8L122.1199983215332,3.02L118.8599983215332,3.02L118.8599983215332,4.8ZM120.7599983215332,11.48L120.7599983215332,10.32L111.23999832153319,10.32L111.23999832153319,11.48L120.7599983215332,11.48ZM111.23999832153319,13.6L120.7599983215332,13.6L120.7599983215332,12.42L111.23999832153319,12.42L111.23999832153319,13.6ZM120.7599983215332,15.72L120.7599983215332,14.54L111.23999832153319,14.54L111.23999832153319,15.72L120.7599983215332,15.72ZM120.7599983215332,16.68L111.23999832153319,16.68L111.23999832153319,17.86L120.7599983215332,17.86L120.7599983215332,16.68Z" fill="#1F1F1F" fill-opacity="1"/></g></g></svg>