<svg xmlns="http://www.w3.org/2000/svg" xmlns:xlink="http://www.w3.org/1999/xlink" fill="none" version="1.1" width="124.56005859375" height="20" viewBox="0 0 124.56005859375 20"><g><g><path d="M23.26,4.11392L22.4375,0.00341797L24.891,0.00341797L25.7135,4.11392L23.26,4.11392ZM40.163,0.00341797L26.563,0.00341797L26.563,19.9999L29.0155,19.9999L29.0155,2.45892L39.5495,2.45892C39.789,2.45892,39.9825,2.65242,39.9825,2.89192L39.9825,19.9999L42.435,19.9999L42.435,2.27442C42.435,1.02042,41.418,0.00341797,40.163,0.00341797ZM38.8761,4.3623L30.1201,4.3623L30.1201,6.4378L38.8761,6.4378L38.8761,4.3623ZM23.26,9.15884L22.4375,5.04834L24.891,5.04834L25.7135,9.15884L23.26,9.15884ZM29.7925,12.4506C29.7925,9.21062,31.038,7.72412,34.523,7.72412C38.11,7.72412,39.1965,9.21062,39.203,12.4506C39.1965,15.6906,38.11,17.1771,34.523,17.1771C31.0375,17.1771,29.7925,15.6906,29.7925,12.4506ZM31.88,12.4506C31.88,14.4251,32.483,15.2306,34.522,15.2306C36.678,15.2306,37.115,14.4251,37.115,12.4506C37.115,10.4761,36.678,9.67062,34.522,9.67062C32.4825,9.67062,31.88,10.4761,31.88,12.4506ZM24.891,20.0002L22.4375,20.0002L23.26,12.0742L25.7135,12.0742L24.891,20.0002ZM0,2.0575L8.7725,2.0575L8.7725,3.358L0,3.358L0,9.9825L2.4495,9.105L2.4495,5.415L4.386,5.415L4.386,8.3795L6.8365,7.503L6.8365,5.415L8.7725,5.415L8.7725,8.1075L0,11.284L0,13.7335L2.26801,12.917L2.26801,14.7355L15.3355,14.7645L15.334,14.7645C15.5705,14.7595,15.7655,14.947,15.771,15.1825C15.7725,15.2535,15.746,15.3155,15.7165,15.3745C15.5555,15.669,15.3635,15.96,15.093,16.248C14.065,17.3365,12.4315,17.9115,10.223,17.9115C8.01451,17.9115,6.38101,17.337,5.35302,16.2475C5.29252,16.187,5.23202,16.0965,5.17152,16.036L2.75203,16.036C2.99403,16.5805,3.35603,17.0945,3.81102,17.609C5.23202,19.1815,7.37953,19.9985,10.223,19.9985C13.0665,19.999,15.214,19.182,16.6365,17.609C17.18,17.004,17.5435,16.399,17.8165,15.7635C17.846,15.7035,17.846,15.673,17.877,15.6125C17.967,15.3705,18.0275,15.1285,18.0275,14.856C18.0275,13.646,17.029,12.648,15.8195,12.648L11.222,12.648L11.222,11.2835L8.7725,11.2835L8.7725,12.6145L3.025,12.6145L9.983,10.1035L19.9955,13.7335L19.9955,11.284L11.223,8.1075L11.223,5.415L13.1585,5.415L13.1585,7.503L15.609,8.3795L15.609,5.415L17.0915,5.415C17.3335,5.415,17.5145,5.5965,17.5145,5.839L17.5145,9.1055L19.995,9.983L19.995,5.415C19.995,5.3845,19.995,5.3845,19.995,5.3545C19.995,4.266,19.1175,3.358,18.029,3.358C17.9985,3.358,17.9985,3.358,17.9685,3.358L11.2225,3.358L11.2225,2.0575L19.995,2.0575L19.995,0L0,0L0,2.0575Z" fill-rule="evenodd" fill="#000000" fill-opacity="1"/></g><g><path d="M52.1600016784668,8.68Q51.640001678466795,9.52,50.640001678466795,10.2Q49.640001678466795,10.88,47.9200016784668,11.62L47.2400016784668,10.5Q49.040001678466794,9.78,50.0500016784668,8.98Q51.0600016784668,8.18,51.460001678466796,7.12L47.3400016784668,7.12L47.3400016784668,6.06L51.7200016784668,6.06Q51.780001678466796,5.76,51.780001678466796,5.46Q51.8000016784668,5.3,51.8000016784668,4.74L51.820001678466795,4L49.9200016784668,4Q49.3400016784668,4.88,48.720001678466794,5.66L47.7400016784668,4.9399999999999995Q48.5200016784668,4.0600000000000005,49.110001678466794,3.02Q49.7000016784668,1.98,50.0600016784668,1L51.2000016784668,1.380001Q50.90000167846679,2.1799999999999997,50.540001678466794,2.9L56.0200016784668,2.9L56.0200016784668,4L53.040001678466794,4Q53.040001678466794,4.96,53.000001678466795,5.52L52.960001678466796,6.06L56.500001678466795,6.06L56.500001678466795,7.12L52.8000016784668,7.12Q52.76000167846679,7.3,52.640001678466795,7.66Q55.2000016784668,9.1,56.360001678466794,9.9L55.6600016784668,10.96Q54.1600016784668,9.9,52.1600016784668,8.68ZM57.3800016784668,9.8L57.3800016784668,2.8L63.7200016784668,2.8L63.7200016784668,9.8L57.3800016784668,9.8ZM58.600001678466796,8.559999999999999L62.4800016784668,8.559999999999999L62.4800016784668,4L58.600001678466796,4L58.600001678466796,8.559999999999999ZM51.1600016784668,19.52L49.8000016784668,19.52L49.8000016784668,11.32L62.280001678466796,11.32L62.280001678466796,19.5L60.9200016784668,19.5L60.9200016784668,18.56L51.1600016784668,18.56L51.1600016784668,19.52ZM60.9200016784668,14.38L60.9200016784668,12.5L51.1600016784668,12.5L51.1600016784668,14.38L60.9200016784668,14.38ZM51.1600016784668,15.48L51.1600016784668,17.4L60.9200016784668,17.4L60.9200016784668,15.48L51.1600016784668,15.48ZM80.5400016784668,5.96L80.5400016784668,7.22L84.5400016784668,7.22L84.5400016784668,8.18L80.5400016784668,8.18L80.5400016784668,9.24L82.76000167846681,9.24L82.76000167846681,14.32L68.6400016784668,14.32L68.6400016784668,13.42L81.5200016784668,13.42L81.5200016784668,12.24L69.3200016784668,12.24L69.3200016784668,11.32L81.5200016784668,11.32L81.5200016784668,10.16L68.9000016784668,10.16L68.9000016784668,9.24L71.48000167846679,9.24L71.48000167846679,8.18L67.5000016784668,8.18L67.5000016784668,7.22L71.48000167846679,7.22L71.48000167846679,5.96L68.3200016784668,5.96L68.3200016784668,5.1L71.48000167846679,5.1L71.48000167846679,3.8L67.9400016784668,3.8L67.9400016784668,2.8600000000000003L71.48000167846679,2.8600000000000003L71.48000167846679,1.440001L72.7000016784668,1.440001L72.7000016784668,2.8600000000000003L75.56000167846679,2.8600000000000003L75.56000167846679,3.8L72.7000016784668,3.8L72.7000016784668,5.1L75.3800016784668,5.1L75.3800016784668,5.96L72.7000016784668,5.96L72.7000016784668,7.22L75.6400016784668,7.22L75.6400016784668,8.18L72.7000016784668,8.18L72.7000016784668,9.24L79.3800016784668,9.24L79.3800016784668,8.18L76.3000016784668,8.18L76.3000016784668,7.22L79.3800016784668,7.22L79.3800016784668,5.96L76.5400016784668,5.96L76.5400016784668,5.1L79.3800016784668,5.1L79.3800016784668,3.8L76.3600016784668,3.8L76.3600016784668,2.8600000000000003L79.3800016784668,2.8600000000000003L79.3800016784668,1.440001L80.5400016784668,1.440001L80.5400016784668,2.8600000000000003L84.1600016784668,2.8600000000000003L84.1600016784668,3.8L80.5400016784668,3.8L80.5400016784668,5.1L83.78000167846679,5.1L83.78000167846679,5.96L80.5400016784668,5.96ZM75.9000016784668,14.34Q76.12000167846679,14.54,77.56000167846679,16.1L78.1000016784668,16.68L77.1600016784668,17.42Q75.5200016784668,15.6,75.06000167846679,15.12L75.9000016784668,14.34ZM81.8000016784668,14.88Q82.76000167846681,15.96,84.5200016784668,18.18L83.5800016784668,18.92Q82.3000016784668,17.26,80.8800016784668,15.6L81.8000016784668,14.88ZM67.3800016784668,18.44Q68.0000016784668,17.76,68.62000167846679,16.85Q69.2400016784668,15.94,69.6400016784668,15.16L70.7600016784668,15.78Q70.3000016784668,16.619999999999997,69.6400016784668,17.55Q68.98000167846679,18.48,68.34000167846679,19.2L67.3800016784668,18.44ZM79.34000167846679,15.56L80.5200016784668,15.88Q80.4400016784668,17.3,80.4200016784668,17.46Q80.3000016784668,18.48,79.8000016784668,18.86Q79.3000016784668,19.24,78.0400016784668,19.24L74.0800016784668,19.24Q73.2400016784668,19.24,72.78000167846679,19.07Q72.3200016784668,18.9,72.1300016784668,18.46Q71.9400016784668,18.02,71.9400016784668,17.2L71.9400016784668,15.24L73.2000016784668,15.24L73.2000016784668,16.96Q73.2000016784668,17.68,73.4900016784668,17.94Q73.78000167846679,18.2,74.5400016784668,18.2L77.7400016784668,18.2Q78.56000167846679,18.2,78.9000016784668,17.96Q79.2400016784668,17.72,79.28000167846679,17.08L79.34000167846679,15.56ZM90.9200016784668,4.74Q90.6800016784668,4.08,89.9000016784668,2.24L89.6400016784668,1.620001L90.9200016784668,1.220001Q91.8800016784668,3.54,92.2000016784668,4.34L90.9200016784668,4.74ZM99.84000167846679,8.68L99.84000167846679,17.14L104.72000167846679,17.14L104.72000167846679,18.48L93.3000016784668,18.48L93.3000016784668,17.14L98.4400016784668,17.14L98.4400016784668,8.68L94.3600016784668,8.68L94.3600016784668,7.3L98.4400016784668,7.3L98.4400016784668,1.220001L99.84000167846679,1.220001L99.84000167846679,7.3L104.0800016784668,7.3L104.0800016784668,8.68L99.84000167846679,8.68ZM94.0800016784668,13.64Q93.4800016784668,13.1,91.6000016784668,11.54L91.6000016784668,19.44L90.28000167846679,19.44L90.28000167846679,11.62Q88.9800016784668,13.12,87.5800016784668,14.26L87.1000016784668,12.9Q88.76000167846681,11.46,89.9000016784668,9.99Q91.0400016784668,8.52,92.06000167846679,6.56L87.56000167846679,6.56L87.56000167846679,5.24L93.5400016784668,5.24L93.5400016784668,6.56Q92.62000167846679,8.42,91.6000016784668,9.9L91.6000016784668,9.98Q93.9000016784668,11.76,94.8600016784668,12.64L94.0800016784668,13.64ZM110.2000016784668,3.84L110.2000016784668,17.2L124.56000167846679,17.2L124.56000167846679,18.54L108.78000167846679,18.54L108.78000167846679,2.48L124.1800016784668,2.48L124.1800016784668,3.84L110.2000016784668,3.84ZM111.1400016784668,15.02Q113.6600016784668,13.1,116.3200016784668,10.34Q113.70000167846679,7.68,111.7800016784668,5.84L112.70000167846679,4.8Q114.6800016784668,6.7,117.3000016784668,9.3Q119.4200016784668,7.04,121.1800016784668,4.58L122.3000016784668,5.44Q120.6800016784668,7.72,118.3000016784668,10.32Q120.48000167846679,12.48,123.1400016784668,15.26L122.0800016784668,16.32Q119.9400016784668,14,117.3200016784668,11.36Q114.6400016784668,14.16,112.0400016784668,16.22L111.1400016784668,15.02Z" fill="#1F1F1F" fill-opacity="1"/></g></g></svg>