<svg xmlns="http://www.w3.org/2000/svg" xmlns:xlink="http://www.w3.org/1999/xlink" fill="none" version="1.1" width="124.840087890625" height="20" viewBox="0 0 124.840087890625 20"><g><g><path d="M23.26,4.11392L22.4375,0.00341797L24.891,0.00341797L25.7135,4.11392L23.26,4.11392ZM40.163,0.00341797L26.563,0.00341797L26.563,19.9999L29.0155,19.9999L29.0155,2.45892L39.5495,2.45892C39.789,2.45892,39.9825,2.65242,39.9825,2.89192L39.9825,19.9999L42.435,19.9999L42.435,2.27442C42.435,1.02042,41.418,0.00341797,40.163,0.00341797ZM38.8761,4.3623L30.1201,4.3623L30.1201,6.4378L38.8761,6.4378L38.8761,4.3623ZM23.26,9.15884L22.4375,5.04834L24.891,5.04834L25.7135,9.15884L23.26,9.15884ZM29.7925,12.4506C29.7925,9.21062,31.038,7.72412,34.523,7.72412C38.11,7.72412,39.1965,9.21062,39.203,12.4506C39.1965,15.6906,38.11,17.1771,34.523,17.1771C31.0375,17.1771,29.7925,15.6906,29.7925,12.4506ZM31.88,12.4506C31.88,14.4251,32.483,15.2306,34.522,15.2306C36.678,15.2306,37.115,14.4251,37.115,12.4506C37.115,10.4761,36.678,9.67062,34.522,9.67062C32.4825,9.67062,31.88,10.4761,31.88,12.4506ZM24.891,20.0002L22.4375,20.0002L23.26,12.0742L25.7135,12.0742L24.891,20.0002ZM0,2.0575L8.7725,2.0575L8.7725,3.358L0,3.358L0,9.9825L2.4495,9.105L2.4495,5.415L4.386,5.415L4.386,8.3795L6.8365,7.503L6.8365,5.415L8.7725,5.415L8.7725,8.1075L0,11.284L0,13.7335L2.26801,12.917L2.26801,14.7355L15.3355,14.7645L15.334,14.7645C15.5705,14.7595,15.7655,14.947,15.771,15.1825C15.7725,15.2535,15.746,15.3155,15.7165,15.3745C15.5555,15.669,15.3635,15.96,15.093,16.248C14.065,17.3365,12.4315,17.9115,10.223,17.9115C8.01451,17.9115,6.38101,17.337,5.35302,16.2475C5.29252,16.187,5.23202,16.0965,5.17152,16.036L2.75203,16.036C2.99403,16.5805,3.35603,17.0945,3.81102,17.609C5.23202,19.1815,7.37953,19.9985,10.223,19.9985C13.0665,19.999,15.214,19.182,16.6365,17.609C17.18,17.004,17.5435,16.399,17.8165,15.7635C17.846,15.7035,17.846,15.673,17.877,15.6125C17.967,15.3705,18.0275,15.1285,18.0275,14.856C18.0275,13.646,17.029,12.648,15.8195,12.648L11.222,12.648L11.222,11.2835L8.7725,11.2835L8.7725,12.6145L3.025,12.6145L9.983,10.1035L19.9955,13.7335L19.9955,11.284L11.223,8.1075L11.223,5.415L13.1585,5.415L13.1585,7.503L15.609,8.3795L15.609,5.415L17.0915,5.415C17.3335,5.415,17.5145,5.5965,17.5145,5.839L17.5145,9.1055L19.995,9.983L19.995,5.415C19.995,5.3845,19.995,5.3845,19.995,5.3545C19.995,4.266,19.1175,3.358,18.029,3.358C17.9985,3.358,17.9985,3.358,17.9685,3.358L11.2225,3.358L11.2225,2.0575L19.995,2.0575L19.995,0L0,0L0,2.0575Z" fill-rule="evenodd" fill="#000000" fill-opacity="1"/></g><g><path d="M52.1600016784668,8.68Q51.640001678466795,9.52,50.640001678466795,10.2Q49.640001678466795,10.88,47.9200016784668,11.62L47.2400016784668,10.5Q49.040001678466794,9.78,50.0500016784668,8.98Q51.0600016784668,8.18,51.460001678466796,7.12L47.3400016784668,7.12L47.3400016784668,6.06L51.7200016784668,6.06Q51.780001678466796,5.76,51.780001678466796,5.46Q51.8000016784668,5.3,51.8000016784668,4.74L51.820001678466795,4L49.9200016784668,4Q49.3400016784668,4.88,48.720001678466794,5.66L47.7400016784668,4.9399999999999995Q48.5200016784668,4.0600000000000005,49.110001678466794,3.02Q49.7000016784668,1.98,50.0600016784668,1L51.2000016784668,1.380001Q50.90000167846679,2.1799999999999997,50.540001678466794,2.9L56.0200016784668,2.9L56.0200016784668,4L53.040001678466794,4Q53.040001678466794,4.96,53.000001678466795,5.52L52.960001678466796,6.06L56.500001678466795,6.06L56.500001678466795,7.12L52.8000016784668,7.12Q52.76000167846679,7.3,52.640001678466795,7.66Q55.2000016784668,9.1,56.360001678466794,9.9L55.6600016784668,10.96Q54.1600016784668,9.9,52.1600016784668,8.68ZM57.3800016784668,9.8L57.3800016784668,2.8L63.7200016784668,2.8L63.7200016784668,9.8L57.3800016784668,9.8ZM58.600001678466796,8.559999999999999L62.4800016784668,8.559999999999999L62.4800016784668,4L58.600001678466796,4L58.600001678466796,8.559999999999999ZM51.1600016784668,19.52L49.8000016784668,19.52L49.8000016784668,11.32L62.280001678466796,11.32L62.280001678466796,19.5L60.9200016784668,19.5L60.9200016784668,18.56L51.1600016784668,18.56L51.1600016784668,19.52ZM60.9200016784668,14.38L60.9200016784668,12.5L51.1600016784668,12.5L51.1600016784668,14.38L60.9200016784668,14.38ZM51.1600016784668,15.48L51.1600016784668,17.4L60.9200016784668,17.4L60.9200016784668,15.48L51.1600016784668,15.48ZM80.5400016784668,5.96L80.5400016784668,7.22L84.5400016784668,7.22L84.5400016784668,8.18L80.5400016784668,8.18L80.5400016784668,9.24L82.76000167846681,9.24L82.76000167846681,14.32L68.6400016784668,14.32L68.6400016784668,13.42L81.5200016784668,13.42L81.5200016784668,12.24L69.3200016784668,12.24L69.3200016784668,11.32L81.5200016784668,11.32L81.5200016784668,10.16L68.9000016784668,10.16L68.9000016784668,9.24L71.48000167846679,9.24L71.48000167846679,8.18L67.5000016784668,8.18L67.5000016784668,7.22L71.48000167846679,7.22L71.48000167846679,5.96L68.3200016784668,5.96L68.3200016784668,5.1L71.48000167846679,5.1L71.48000167846679,3.8L67.9400016784668,3.8L67.9400016784668,2.8600000000000003L71.48000167846679,2.8600000000000003L71.48000167846679,1.440001L72.7000016784668,1.440001L72.7000016784668,2.8600000000000003L75.56000167846679,2.8600000000000003L75.56000167846679,3.8L72.7000016784668,3.8L72.7000016784668,5.1L75.3800016784668,5.1L75.3800016784668,5.96L72.7000016784668,5.96L72.7000016784668,7.22L75.6400016784668,7.22L75.6400016784668,8.18L72.7000016784668,8.18L72.7000016784668,9.24L79.3800016784668,9.24L79.3800016784668,8.18L76.3000016784668,8.18L76.3000016784668,7.22L79.3800016784668,7.22L79.3800016784668,5.96L76.5400016784668,5.96L76.5400016784668,5.1L79.3800016784668,5.1L79.3800016784668,3.8L76.3600016784668,3.8L76.3600016784668,2.8600000000000003L79.3800016784668,2.8600000000000003L79.3800016784668,1.440001L80.5400016784668,1.440001L80.5400016784668,2.8600000000000003L84.1600016784668,2.8600000000000003L84.1600016784668,3.8L80.5400016784668,3.8L80.5400016784668,5.1L83.78000167846679,5.1L83.78000167846679,5.96L80.5400016784668,5.96ZM75.9000016784668,14.34Q76.12000167846679,14.54,77.56000167846679,16.1L78.1000016784668,16.68L77.1600016784668,17.42Q75.5200016784668,15.6,75.06000167846679,15.12L75.9000016784668,14.34ZM81.8000016784668,14.88Q82.76000167846681,15.96,84.5200016784668,18.18L83.5800016784668,18.92Q82.3000016784668,17.26,80.8800016784668,15.6L81.8000016784668,14.88ZM67.3800016784668,18.44Q68.0000016784668,17.76,68.62000167846679,16.85Q69.2400016784668,15.94,69.6400016784668,15.16L70.7600016784668,15.78Q70.3000016784668,16.619999999999997,69.6400016784668,17.55Q68.98000167846679,18.48,68.34000167846679,19.2L67.3800016784668,18.44ZM79.34000167846679,15.56L80.5200016784668,15.88Q80.4400016784668,17.3,80.4200016784668,17.46Q80.3000016784668,18.48,79.8000016784668,18.86Q79.3000016784668,19.24,78.0400016784668,19.24L74.0800016784668,19.24Q73.2400016784668,19.24,72.78000167846679,19.07Q72.3200016784668,18.9,72.1300016784668,18.46Q71.9400016784668,18.02,71.9400016784668,17.2L71.9400016784668,15.24L73.2000016784668,15.24L73.2000016784668,16.96Q73.2000016784668,17.68,73.4900016784668,17.94Q73.78000167846679,18.2,74.5400016784668,18.2L77.7400016784668,18.2Q78.56000167846679,18.2,78.9000016784668,17.96Q79.2400016784668,17.72,79.28000167846679,17.08L79.34000167846679,15.56ZM93.62000167846679,2.8600000000000003Q95.62000167846679,5.38,96.72000167846679,6.88L95.7000016784668,7.66L94.9000016784668,6.54L87.8200016784668,7L87.6600016784668,5.88Q88.6600016784668,4.9,89.6000016784668,3.65Q90.5400016784668,2.4,91.28000167846679,1.160002L92.5200016784668,1.74Q91.8800016784668,2.7199999999999998,91.01000167846681,3.84Q90.1400016784668,4.96,89.4400016784668,5.74L94.0800016784668,5.42Q93.1600016784668,4.16,92.6800016784668,3.56L93.62000167846679,2.8600000000000003ZM99.1000016784668,9.66Q98.22000167846679,9.66,97.8200016784668,9.21Q97.4200016784668,8.76,97.4200016784668,7.76L97.4200016784668,1.360001L98.6800016784668,1.360001L98.6800016784668,4.74Q100.0400016784668,4.18,101.4400016784668,3.54Q102.84000167846679,2.9,103.56000167846679,2.46L104.1400016784668,3.64Q103.34000167846679,4.1,101.7400016784668,4.8100000000000005Q100.1400016784668,5.52,98.6800016784668,6.12L98.6800016784668,7.32Q98.6800016784668,7.96,98.9000016784668,8.2Q99.12000167846679,8.440000000000001,99.7000016784668,8.440000000000001L101.8800016784668,8.440000000000001Q102.4600016784668,8.440000000000001,102.7300016784668,8.36Q103.00000167846679,8.280000000000001,103.12000167846679,8.030000000000001Q103.2400016784668,7.78,103.28000167846679,7.22Q103.3000016784668,6.84,103.3300016784668,6.27Q103.3600016784668,5.7,103.3600016784668,5.34L104.6000016784668,5.72L104.56000167846679,6.48L104.4800016784668,7.82Q104.4000016784668,8.86,103.9200016784668,9.26Q103.4400016784668,9.66,102.3000016784668,9.66L99.1000016784668,9.66ZM88.4200016784668,19.42L88.4200016784668,8.440000000000001L95.4400016784668,8.440000000000001L95.4400016784668,17.48Q95.4400016784668,18.54,95.0200016784668,18.91Q94.6000016784668,19.28,93.4400016784668,19.28L92.00000167846679,19.28L91.7400016784668,18L93.22000167846679,18Q93.6600016784668,18,93.8600016784668,17.91Q94.06000167846679,17.82,94.12000167846679,17.62Q94.1800016784668,17.42,94.1800016784668,17L94.1800016784668,15.4L89.6400016784668,15.4L89.6400016784668,19.42L88.4200016784668,19.42ZM94.1800016784668,11.36L94.1800016784668,9.58L89.6400016784668,9.58L89.6400016784668,11.36L94.1800016784668,11.36ZM104.7000016784668,14.64L104.6800016784668,15.08Q104.6400016784668,16.28,104.56000167846679,17.08Q104.4600016784668,18.12,103.9400016784668,18.54Q103.4200016784668,18.96,102.2400016784668,18.96L99.22000167846679,18.96Q98.3000016784668,18.96,97.87000167846679,18.5Q97.4400016784668,18.04,97.4400016784668,17.02L97.4400016784668,10.66L98.72000167846679,10.66L98.72000167846679,13.64Q100.1000016784668,13.06,101.47000167846679,12.37Q102.84000167846679,11.68,103.7000016784668,11.12L104.3600016784668,12.32Q103.3800016784668,12.92,101.7700016784668,13.67Q100.1600016784668,14.42,98.72000167846679,15L98.72000167846679,16.6Q98.72000167846679,17.24,98.9900016784668,17.5Q99.26000167846681,17.76,99.8600016784668,17.76L101.84000167846679,17.76Q102.6800016784668,17.76,102.9900016784668,17.5Q103.3000016784668,17.24,103.3600016784668,16.52Q103.4000016784668,16.04,103.4400016784668,15.38Q103.4800016784668,14.72,103.4800016784668,14.32L104.7000016784668,14.64ZM89.6400016784668,12.48L89.6400016784668,14.28L94.1800016784668,14.28L94.1800016784668,12.48L89.6400016784668,12.48ZM111.62000167846679,11.36L111.62000167846679,12.34Q112.0000016784668,12.62,113.48000167846679,13.84L114.6600016784668,14.8L113.98000167846679,15.96Q113.0200016784668,15.06,111.62000167846679,13.88L111.62000167846679,19.46L110.34000167846679,19.46L110.34000167846679,13.72Q109.2400016784668,16.060000000000002,107.8000016784668,17.64L107.1000016784668,16.5Q108.00000167846679,15.48,108.84000167846679,14.1Q109.6800016784668,12.72,110.22000167846679,11.36L107.26000167846681,11.36L107.26000167846681,10.12L110.34000167846679,10.12L110.34000167846679,8.120000000000001L107.7400016784668,8.120000000000001L107.7400016784668,6.96L110.34000167846679,6.96L110.34000167846679,4.9399999999999995L107.4600016784668,4.9399999999999995L107.4600016784668,3.72L110.34000167846679,3.72L110.34000167846679,1.400002L111.62000167846679,1.400002L111.62000167846679,3.72L114.34000167846679,3.72L114.34000167846679,4.9399999999999995L111.62000167846679,4.9399999999999995L111.62000167846679,6.96L114.06000167846679,6.96L114.06000167846679,8.120000000000001L111.62000167846679,8.120000000000001L111.62000167846679,10.12L114.5800016784668,10.12L114.5800016784668,11.36L111.62000167846679,11.36ZM123.1800016784668,14.2L124.4400016784668,14.54L124.34000167846679,16.8Q124.3000016784668,17.66,124.06000167846679,18.12Q123.8200016784668,18.58,123.31000167846679,18.77Q122.8000016784668,18.96,121.84000167846679,18.96L120.1400016784668,18.96Q118.9600016784668,18.96,118.4200016784668,18.43Q117.8800016784668,17.9,117.8800016784668,16.54L117.8800016784668,13.44L114.2600016784668,13.8L114.2200016784668,12.5L117.8800016784668,12.14L117.8800016784668,8.940000000000001L114.9200016784668,9.22L114.84000167846679,7.94L117.8800016784668,7.66L117.8800016784668,4.4399999999999995Q116.20000167846679,4.7,115.0800016784668,4.84L114.9600016784668,3.56Q116.8600016784668,3.36,119.34000167846679,2.9Q121.8200016784668,2.44,123.5000016784668,2.04L123.7600016784668,3.3Q122.4200016784668,3.66,119.20000167846679,4.220000000000001L119.20000167846679,7.52L123.70000167846679,7.1L123.8000016784668,8.379999999999999L119.20000167846679,8.82L119.20000167846679,12L124.7600016784668,11.46L124.84000167846679,12.76L119.20000167846679,13.32L119.20000167846679,16.32Q119.20000167846679,17.1,119.4700016784668,17.37Q119.7400016784668,17.64,120.4400016784668,17.66L121.70000167846679,17.66Q122.3000016784668,17.68,122.5800016784668,17.58Q122.8600016784668,17.48,122.9700016784668,17.22Q123.0800016784668,16.96,123.1000016784668,16.380000000000003L123.1800016784668,14.2Z" fill="#1F1F1F" fill-opacity="1"/></g></g></svg>