<svg xmlns="http://www.w3.org/2000/svg" xmlns:xlink="http://www.w3.org/1999/xlink" fill="none" version="1.1" width="124.880126953125" height="20" viewBox="0 0 124.880126953125 20"><g><g><path d="M23.26,4.11392L22.4375,0.00341797L24.891,0.00341797L25.7135,4.11392L23.26,4.11392ZM40.163,0.00341797L26.563,0.00341797L26.563,19.9999L29.0155,19.9999L29.0155,2.45892L39.5495,2.45892C39.789,2.45892,39.9825,2.65242,39.9825,2.89192L39.9825,19.9999L42.435,19.9999L42.435,2.27442C42.435,1.02042,41.418,0.00341797,40.163,0.00341797ZM38.8761,4.3623L30.1201,4.3623L30.1201,6.4378L38.8761,6.4378L38.8761,4.3623ZM23.26,9.15884L22.4375,5.04834L24.891,5.04834L25.7135,9.15884L23.26,9.15884ZM29.7925,12.4506C29.7925,9.21062,31.038,7.72412,34.523,7.72412C38.11,7.72412,39.1965,9.21062,39.203,12.4506C39.1965,15.6906,38.11,17.1771,34.523,17.1771C31.0375,17.1771,29.7925,15.6906,29.7925,12.4506ZM31.88,12.4506C31.88,14.4251,32.483,15.2306,34.522,15.2306C36.678,15.2306,37.115,14.4251,37.115,12.4506C37.115,10.4761,36.678,9.67062,34.522,9.67062C32.4825,9.67062,31.88,10.4761,31.88,12.4506ZM24.891,20.0002L22.4375,20.0002L23.26,12.0742L25.7135,12.0742L24.891,20.0002ZM0,2.0575L8.7725,2.0575L8.7725,3.358L0,3.358L0,9.9825L2.4495,9.105L2.4495,5.415L4.386,5.415L4.386,8.3795L6.8365,7.503L6.8365,5.415L8.7725,5.415L8.7725,8.1075L0,11.284L0,13.7335L2.26801,12.917L2.26801,14.7355L15.3355,14.7645L15.334,14.7645C15.5705,14.7595,15.7655,14.947,15.771,15.1825C15.7725,15.2535,15.746,15.3155,15.7165,15.3745C15.5555,15.669,15.3635,15.96,15.093,16.248C14.065,17.3365,12.4315,17.9115,10.223,17.9115C8.01451,17.9115,6.38101,17.337,5.35302,16.2475C5.29252,16.187,5.23202,16.0965,5.17152,16.036L2.75203,16.036C2.99403,16.5805,3.35603,17.0945,3.81102,17.609C5.23202,19.1815,7.37953,19.9985,10.223,19.9985C13.0665,19.999,15.214,19.182,16.6365,17.609C17.18,17.004,17.5435,16.399,17.8165,15.7635C17.846,15.7035,17.846,15.673,17.877,15.6125C17.967,15.3705,18.0275,15.1285,18.0275,14.856C18.0275,13.646,17.029,12.648,15.8195,12.648L11.222,12.648L11.222,11.2835L8.7725,11.2835L8.7725,12.6145L3.025,12.6145L9.983,10.1035L19.9955,13.7335L19.9955,11.284L11.223,8.1075L11.223,5.415L13.1585,5.415L13.1585,7.503L15.609,8.3795L15.609,5.415L17.0915,5.415C17.3335,5.415,17.5145,5.5965,17.5145,5.839L17.5145,9.1055L19.995,9.983L19.995,5.415C19.995,5.3845,19.995,5.3845,19.995,5.3545C19.995,4.266,19.1175,3.358,18.029,3.358C17.9985,3.358,17.9985,3.358,17.9685,3.358L11.2225,3.358L11.2225,2.0575L19.995,2.0575L19.995,0L0,0L0,2.0575Z" fill-rule="evenodd" fill="#000000" fill-opacity="1"/></g><g><path d="M64.1401171875,4.5Q63.740117187500005,15.12,63.640117187499996,16.060000000000002Q63.5401171875,17.5,62.8601171875,18.1Q62.1801171875,18.7,60.6601171875,18.7L58.4001171875,18.7L58.1601171875,17.42L60.2801171875,17.42Q61.4601171875,17.42,61.9001171875,17.02Q62.3401171875,16.619999999999997,62.3801171875,15.5Q62.4801171875,13.72,62.640117187499996,10.63Q62.8001171875,7.54,62.8601171875,5.8L61.4401171875,5.8Q61.0401171875,8.86,60.3701171875,11.06Q59.7001171875,13.26,58.4701171875,15.18Q57.2401171875,17.1,55.1601171875,19.02L54.2601171875,18.04Q56.1801171875,16.32,57.3801171875,14.49Q58.5801171875,12.66,59.2501171875,10.58Q59.9201171875,8.5,60.2801171875,5.8L58.5001171875,5.8Q57.9001171875,8.98,56.8001171875,11.14Q55.7001171875,13.3,53.4601171875,15.56L52.5401171875,14.58Q54.6201171875,12.58,55.7201171875,10.57Q56.8201171875,8.559999999999999,57.3401171875,5.8L55.7801171875,5.8Q54.8401171875,7.6,53.8401171875,9L52.8801171875,8.2Q53.9401171875,6.74,54.8601171875,4.859999999999999Q55.7801171875,2.98,56.3601171875,1.0799999L57.5601171875,1.42Q57.0401171875,3.06,56.4001171875,4.5L64.1401171875,4.5ZM53.9201171875,11.36L51.6801171875,12.24L51.6801171875,19.42L50.3601171875,19.42L50.3601171875,12.74L47.4601171875,13.88L47.1201171875,12.54L50.3601171875,11.36L50.3601171875,6.64L48.9201171875,6.64Q48.5801171875,8.96,48.2601171875,10.5L47.1401171875,10.28Q47.5001171875,8.620000000000001,47.7701171875,6.66Q48.0401171875,4.7,48.1601171875,2.9L49.3001171875,3Q49.2401171875,3.64,49.0801171875,5.32L50.3601171875,5.32L50.3601171875,1.219999L51.6801171875,1.219999L51.6801171875,5.32L53.600117187500004,5.32L53.600117187500004,6.64L51.6801171875,6.64L51.6801171875,10.86L52.9601171875,10.38L53.7801171875,10.06L53.8601171875,10.86L53.9201171875,11.36ZM79.0001171875,1.439999L79.0001171875,17L84.7401171875,17L84.7401171875,18.36L67.2601171875,18.36L67.2601171875,17L73.08011718750001,17L73.08011718750001,1.439999L74.4601171875,1.439999L74.4601171875,17L77.6001171875,17L77.6001171875,1.439999L79.0001171875,1.439999ZM71.1201171875,13.66Q68.8201171875,7.48,67.8401171875,5.42L69.1001171875,4.82Q70.1401171875,7.02,72.4401171875,13.02L71.1201171875,13.66ZM84.3001171875,5.44Q83.64011718750001,7.2,82.60011718749999,9.68Q81.5601171875,12.16,80.7801171875,13.72L79.5201171875,13.04Q80.36011718750001,11.42,81.33011718750001,9.07Q82.3001171875,6.72,82.9601171875,4.88L84.3001171875,5.44ZM101.38011718749999,15.38Q102.6201171875,16.7,104.88011718749999,18.1L104.1801171875,19.26Q101.9401171875,17.84,100.60011718749999,16.3Q99.4001171875,17.62,97.4201171875,19.12L96.8201171875,18.18L96.8201171875,19.54L95.5601171875,19.54L95.5601171875,2.3600000000000003L103.64011718750001,2.3600000000000003L103.5201171875,5.48Q103.4601171875,6.26,103.2501171875,6.67Q103.0401171875,7.08,102.58011718750001,7.25Q102.1201171875,7.42,101.2601171875,7.42L98.5601171875,7.42L98.3401171875,6.2L100.7201171875,6.2Q101.60011718749999,6.2,101.91011718749999,6Q102.2201171875,5.8,102.2801171875,5.16Q102.3401171875,4.2,102.3401171875,3.64L96.8201171875,3.64L96.8201171875,8.96L103.8201171875,8.96L103.8201171875,10.18Q103.1801171875,13.08,101.38011718749999,15.38ZM88.5201171875,2.38L93.9401171875,2.38L93.9401171875,17.24Q93.9401171875,18.28,93.5001171875,18.66Q93.0601171875,19.04,91.88011718749999,19.04L90.2801171875,19.04L90.0201171875,17.8L91.5001171875,17.8Q92.2801171875,17.8,92.5101171875,17.6Q92.7401171875,17.4,92.7401171875,16.740000000000002L92.7401171875,12.98L89.66011718749999,12.98Q89.5601171875,14.96,89.2301171875,16.5Q88.9001171875,18.04,88.16011718749999,19.54L87.2201171875,18.6Q87.7601171875,17.58,88.0301171875,16.64Q88.3001171875,15.7,88.41011718749999,14.16Q88.5201171875,12.62,88.5201171875,9.82L88.5201171875,2.38ZM92.7401171875,7.12L92.7401171875,3.64L89.7001171875,3.64L89.7001171875,7.12L92.7401171875,7.12ZM92.7401171875,11.8L92.7401171875,8.280000000000001L89.7001171875,8.280000000000001L89.7001171875,10.34Q89.7001171875,11.34,89.6801171875,11.8L92.7401171875,11.8ZM96.8201171875,17.8Q98.5401171875,16.619999999999997,99.8001171875,15.3Q99.08011718750001,14.28,98.5101171875,13.04Q97.9401171875,11.8,97.4401171875,10.18L96.8201171875,10.18L96.8201171875,17.8ZM100.58011718750001,14.4Q102.0401171875,12.52,102.6201171875,10.18L98.6801171875,10.18Q99.4001171875,12.7,100.58011718750001,14.4ZM117.4201171875,8.02Q120.2801171875,9.16,124.8801171875,9.96L124.5401171875,11.26Q121.8001171875,10.72,119.7401171875,10.11Q117.6801171875,9.5,116.0601171875,8.719999999999999Q112.6401171875,10.32,107.6201171875,11.5L107.1801171875,10.22Q111.6001171875,9.26,114.6801171875,7.96Q112.8401171875,6.86,111.1801171875,5.18Q109.8201171875,6.52,108.2001171875,7.68L107.4601171875,6.7Q109.08011718750001,5.54,110.60011718749999,3.96Q112.1201171875,2.38,112.9801171875,1L114.1801171875,1.52Q113.5801171875,2.42,113.0601171875,3.08L122.5201171875,3.08L122.5201171875,4.24Q120.3201171875,6.44,117.4201171875,8.02ZM112.0401171875,4.3Q113.7401171875,6.22,116.0001171875,7.36Q118.8201171875,6,120.5801171875,4.26L112.0601171875,4.26L112.0401171875,4.3ZM115.2401171875,10.26L115.0001171875,12.3L122.5601171875,12.3Q122.5201171875,12.82,122.3401171875,14.52Q122.1601171875,16.22,122.0801171875,16.82Q121.9601171875,17.66,121.6201171875,18.14Q121.2801171875,18.62,120.6201171875,18.83Q119.9601171875,19.04,118.8201171875,19.04L115.6601171875,19.04L115.4001171875,17.84L118.3801171875,17.84Q119.2801171875,17.84,119.7401171875,17.72Q120.2001171875,17.6,120.4301171875,17.27Q120.6601171875,16.939999999999998,120.7401171875,16.3Q121.0401171875,13.92,121.0801171875,13.54L114.7601171875,13.54Q114.4201171875,14.94,113.6701171875,15.96Q112.9201171875,16.98,111.6201171875,17.84Q110.3201171875,18.7,108.1801171875,19.64L107.4001171875,18.46Q109.3401171875,17.72,110.5301171875,17.02Q111.7201171875,16.32,112.4001171875,15.49Q113.0801171875,14.66,113.4001171875,13.54L108.2001171875,13.54L108.2001171875,12.3L113.6401171875,12.3L113.6401171875,12.26Q113.8001171875,10.94,113.8401171875,10.24L115.2401171875,10.26Z" fill="#1F1F1F" fill-opacity="1"/></g></g></svg>