<svg xmlns="http://www.w3.org/2000/svg" xmlns:xlink="http://www.w3.org/1999/xlink" fill="none" version="1.1" width="124.8798828125" height="20" viewBox="0 0 124.8798828125 20"><g><g><path d="M23.26,4.11392L22.4375,0.00341797L24.891,0.00341797L25.7135,4.11392L23.26,4.11392ZM40.163,0.00341797L26.563,0.00341797L26.563,19.9999L29.0155,19.9999L29.0155,2.45892L39.5495,2.45892C39.789,2.45892,39.9825,2.65242,39.9825,2.89192L39.9825,19.9999L42.435,19.9999L42.435,2.27442C42.435,1.02042,41.418,0.00341797,40.163,0.00341797ZM38.8761,4.3623L30.1201,4.3623L30.1201,6.4378L38.8761,6.4378L38.8761,4.3623ZM23.26,9.15884L22.4375,5.04834L24.891,5.04834L25.7135,9.15884L23.26,9.15884ZM29.7925,12.4506C29.7925,9.21062,31.038,7.72412,34.523,7.72412C38.11,7.72412,39.1965,9.21062,39.203,12.4506C39.1965,15.6906,38.11,17.1771,34.523,17.1771C31.0375,17.1771,29.7925,15.6906,29.7925,12.4506ZM31.88,12.4506C31.88,14.4251,32.483,15.2306,34.522,15.2306C36.678,15.2306,37.115,14.4251,37.115,12.4506C37.115,10.4761,36.678,9.67062,34.522,9.67062C32.4825,9.67062,31.88,10.4761,31.88,12.4506ZM24.891,20.0002L22.4375,20.0002L23.26,12.0742L25.7135,12.0742L24.891,20.0002ZM0,2.0575L8.7725,2.0575L8.7725,3.358L0,3.358L0,9.9825L2.4495,9.105L2.4495,5.415L4.386,5.415L4.386,8.3795L6.8365,7.503L6.8365,5.415L8.7725,5.415L8.7725,8.1075L0,11.284L0,13.7335L2.26801,12.917L2.26801,14.7355L15.3355,14.7645L15.334,14.7645C15.5705,14.7595,15.7655,14.947,15.771,15.1825C15.7725,15.2535,15.746,15.3155,15.7165,15.3745C15.5555,15.669,15.3635,15.96,15.093,16.248C14.065,17.3365,12.4315,17.9115,10.223,17.9115C8.01451,17.9115,6.38101,17.337,5.35302,16.2475C5.29252,16.187,5.23202,16.0965,5.17152,16.036L2.75203,16.036C2.99403,16.5805,3.35603,17.0945,3.81102,17.609C5.23202,19.1815,7.37953,19.9985,10.223,19.9985C13.0665,19.999,15.214,19.182,16.6365,17.609C17.18,17.004,17.5435,16.399,17.8165,15.7635C17.846,15.7035,17.846,15.673,17.877,15.6125C17.967,15.3705,18.0275,15.1285,18.0275,14.856C18.0275,13.646,17.029,12.648,15.8195,12.648L11.222,12.648L11.222,11.2835L8.7725,11.2835L8.7725,12.6145L3.025,12.6145L9.983,10.1035L19.9955,13.7335L19.9955,11.284L11.223,8.1075L11.223,5.415L13.1585,5.415L13.1585,7.503L15.609,8.3795L15.609,5.415L17.0915,5.415C17.3335,5.415,17.5145,5.5965,17.5145,5.839L17.5145,9.1055L19.995,9.983L19.995,5.415C19.995,5.3845,19.995,5.3845,19.995,5.3545C19.995,4.266,19.1175,3.358,18.029,3.358C17.9985,3.358,17.9985,3.358,17.9685,3.358L11.2225,3.358L11.2225,2.0575L19.995,2.0575L19.995,0L0,0L0,2.0575Z" fill-rule="evenodd" fill="#000000" fill-opacity="1"/></g><g><path d="M63.359892578125,4.4399999999999995L63.359892578125,16.740000000000002Q63.359892578125,17.72,63.139892578125,18.22Q62.919892578125,18.72,62.369892578125004,18.91Q61.819892578125,19.1,60.739892578125,19.1L58.259892578125,19.1L57.999892578125,17.74L60.339892578125,17.74Q61.099892578125,17.74,61.439892578125,17.63Q61.779892578125,17.52,61.899892578125,17.23Q62.019892578125,16.939999999999998,62.019892578125,16.3L62.019892578125,5.82L56.679892578125,5.82Q56.679892578125,7.38,56.359892578125,8.66Q58.319892578125,10.56,61.359892578125,13.7L60.399892578125,14.78Q58.499892578125,12.72,55.879892578125,10.06Q55.299892578125,11.36,54.229892578125,12.58Q53.159892578124996,13.8,51.459892578125,15.14L50.559892578125,13.98Q52.419892578125,12.56,53.439892578125,11.35Q54.459892578125,10.14,54.889892578125,8.84Q55.319892578125,7.54,55.339892578125,5.82L49.999892578125,5.82L49.999892578125,19.3L48.639892578125,19.3L48.639892578125,4.4399999999999995L55.339892578125,4.4399999999999995L55.339892578125,1.34L56.679892578125,1.34L56.679892578125,4.4399999999999995L63.359892578125,4.4399999999999995ZM69.439892578125,4.640000000000001L69.439892578125,6.64L68.139892578125,6.64L68.139892578125,3.4L75.59989257812501,3.4Q75.199892578125,2.1,74.879892578125,1.2999990000000001L76.319892578125,1Q76.439892578125,1.2999990000000001,76.799892578125,2.5L77.079892578125,3.4L83.819892578125,3.4L83.819892578125,6.68L82.499892578125,6.68L82.499892578125,4.640000000000001L69.439892578125,4.640000000000001ZM74.379892578125,6.64Q71.619892578125,8.52,68.659892578125,9.86L68.09989257812501,8.66Q69.419892578125,8.120000000000001,70.949892578125,7.28Q72.479892578125,6.44,73.759892578125,5.6L74.379892578125,6.64ZM78.079892578125,5.6Q78.59989257812501,5.86,82.339892578125,7.8L84.019892578125,8.68L83.439892578125,9.82Q81.639892578125,8.76,77.479892578125,6.6L78.079892578125,5.6ZM84.419892578125,14.46Q83.059892578125,13.94,81.739892578125,13.28L81.739892578125,19.46L80.439892578125,19.46L80.439892578125,18.58L71.539892578125,18.58L71.539892578125,19.46L70.239892578125,19.46L70.239892578125,13.26Q68.939892578125,13.9,67.519892578125,14.46L67.019892578125,13.26Q69.919892578125,12.14,71.959892578125,10.86Q73.999892578125,9.58,75.419892578125,8L76.579892578125,8Q78.019892578125,9.62,80.069892578125,10.89Q82.11989257812499,12.16,84.939892578125,13.24L84.419892578125,14.46ZM81.559892578125,13.18Q78.139892578125,11.4,75.999892578125,9.12Q73.859892578125,11.42,70.379892578125,13.18L81.559892578125,13.18ZM71.539892578125,14.4L71.539892578125,17.38L80.439892578125,17.38L80.439892578125,14.4L71.539892578125,14.4ZM101.37989257812501,15.38Q102.61989257812499,16.7,104.87989257812501,18.1L104.17989257812499,19.26Q101.939892578125,17.84,100.59989257812501,16.3Q99.39989257812499,17.62,97.419892578125,19.12L96.819892578125,18.18L96.819892578125,19.54L95.559892578125,19.54L95.559892578125,2.3600000000000003L103.639892578125,2.3600000000000003L103.519892578125,5.48Q103.459892578125,6.26,103.249892578125,6.67Q103.039892578125,7.08,102.579892578125,7.25Q102.11989257812499,7.42,101.259892578125,7.42L98.559892578125,7.42L98.339892578125,6.2L100.719892578125,6.2Q101.59989257812501,6.2,101.90989257812501,6Q102.219892578125,5.8,102.279892578125,5.16Q102.339892578125,4.2,102.339892578125,3.64L96.819892578125,3.64L96.819892578125,8.96L103.819892578125,8.96L103.819892578125,10.18Q103.17989257812499,13.08,101.37989257812501,15.38ZM88.519892578125,2.38L93.939892578125,2.38L93.939892578125,17.24Q93.939892578125,18.28,93.499892578125,18.66Q93.059892578125,19.04,91.87989257812501,19.04L90.279892578125,19.04L90.019892578125,17.8L91.499892578125,17.8Q92.279892578125,17.8,92.509892578125,17.6Q92.739892578125,17.4,92.739892578125,16.740000000000002L92.739892578125,12.98L89.65989257812501,12.98Q89.559892578125,14.96,89.229892578125,16.5Q88.89989257812499,18.04,88.15989257812501,19.54L87.219892578125,18.6Q87.759892578125,17.58,88.029892578125,16.64Q88.299892578125,15.7,88.40989257812501,14.16Q88.519892578125,12.62,88.519892578125,9.82L88.519892578125,2.38ZM92.739892578125,7.12L92.739892578125,3.64L89.699892578125,3.64L89.699892578125,7.12L92.739892578125,7.12ZM92.739892578125,11.8L92.739892578125,8.280000000000001L89.699892578125,8.280000000000001L89.699892578125,10.34Q89.699892578125,11.34,89.67989257812499,11.8L92.739892578125,11.8ZM96.819892578125,17.8Q98.539892578125,16.619999999999997,99.799892578125,15.3Q99.079892578125,14.28,98.509892578125,13.04Q97.939892578125,11.8,97.439892578125,10.18L96.819892578125,10.18L96.819892578125,17.8ZM100.579892578125,14.4Q102.039892578125,12.52,102.61989257812499,10.18L98.67989257812499,10.18Q99.39989257812499,12.7,100.579892578125,14.4ZM117.419892578125,8.02Q120.279892578125,9.16,124.879892578125,9.96L124.539892578125,11.26Q121.799892578125,10.72,119.739892578125,10.11Q117.679892578125,9.5,116.059892578125,8.719999999999999Q112.639892578125,10.32,107.61989257812499,11.5L107.17989257812499,10.22Q111.59989257812501,9.26,114.679892578125,7.96Q112.839892578125,6.86,111.17989257812499,5.18Q109.819892578125,6.52,108.199892578125,7.68L107.459892578125,6.7Q109.079892578125,5.54,110.59989257812501,3.96Q112.11989257812499,2.38,112.979892578125,1L114.179892578125,1.52Q113.579892578125,2.42,113.059892578125,3.08L122.519892578125,3.08L122.519892578125,4.24Q120.319892578125,6.44,117.419892578125,8.02ZM112.039892578125,4.3Q113.739892578125,6.22,115.999892578125,7.36Q118.819892578125,6,120.579892578125,4.26L112.059892578125,4.26L112.039892578125,4.3ZM115.239892578125,10.26L114.999892578125,12.3L122.559892578125,12.3Q122.519892578125,12.82,122.339892578125,14.52Q122.159892578125,16.22,122.079892578125,16.82Q121.959892578125,17.66,121.619892578125,18.14Q121.279892578125,18.62,120.619892578125,18.83Q119.959892578125,19.04,118.819892578125,19.04L115.659892578125,19.04L115.399892578125,17.84L118.379892578125,17.84Q119.279892578125,17.84,119.739892578125,17.72Q120.199892578125,17.6,120.429892578125,17.27Q120.659892578125,16.939999999999998,120.739892578125,16.3Q121.039892578125,13.92,121.079892578125,13.54L114.759892578125,13.54Q114.419892578125,14.94,113.669892578125,15.96Q112.919892578125,16.98,111.61989257812499,17.84Q110.319892578125,18.7,108.17989257812499,19.64L107.39989257812499,18.46Q109.339892578125,17.72,110.529892578125,17.02Q111.719892578125,16.32,112.39989257812499,15.49Q113.079892578125,14.66,113.399892578125,13.54L108.199892578125,13.54L108.199892578125,12.3L113.639892578125,12.3L113.639892578125,12.26Q113.799892578125,10.94,113.839892578125,10.24L115.239892578125,10.26Z" fill="#1F1F1F" fill-opacity="1"/></g></g></svg>