<?xml version="1.0" standalone="no"?><!DOCTYPE svg PUBLIC "-//W3C//DTD SVG 1.1//EN" "http://www.w3.org/Graphics/SVG/1.1/DTD/svg11.dtd"><svg t="1683618581691" class="icon" viewBox="0 0 1024 1024" version="1.1" xmlns="http://www.w3.org/2000/svg" p-id="6273" xmlns:xlink="http://www.w3.org/1999/xlink" width="128" height="128"><path d="M321.4 655.4L263.7 713H145V585.2c0-13.8-11.2-25-25-25s-25 11.2-25 25v238.9c0 13.8 11.2 25 25 25s25-11.2 25-25V763H276.5c0.2 0 0.5-0.1 0.7-0.1 0.2 0 0.3 0 0.5-0.1 0.3 0 0.5-0.1 0.8-0.1 0.1 0 0.3 0 0.4-0.1 0.3-0.1 0.5-0.1 0.8-0.2 0.1 0 0.3-0.1 0.4-0.1 0.3-0.1 0.5-0.1 0.8-0.2 0.1 0 0.3-0.1 0.4-0.1 0.2-0.1 0.5-0.2 0.7-0.2 0.2-0.1 0.3-0.1 0.5-0.2s0.4-0.2 0.6-0.2c0.2-0.1 0.4-0.1 0.5-0.2 0.2-0.1 0.4-0.2 0.5-0.2l0.6-0.3c0.2-0.1 0.3-0.2 0.5-0.2l0.6-0.3c0.1-0.1 0.3-0.1 0.4-0.2 0.2-0.1 0.5-0.3 0.7-0.4 0.1-0.1 0.2-0.1 0.3-0.2 0.2-0.1 0.5-0.3 0.7-0.4 0.1-0.1 0.2-0.2 0.3-0.2 0.2-0.2 0.4-0.3 0.7-0.5 0.1-0.1 0.2-0.2 0.4-0.3 0.2-0.2 0.4-0.3 0.6-0.5 0.2-0.1 0.3-0.3 0.5-0.4 0.2-0.1 0.3-0.3 0.5-0.4 0.3-0.2 0.5-0.5 0.8-0.7l0.1-0.1 65-65c9.8-9.8 9.8-25.6 0-35.4-9.8-9.9-25.6-9.9-35.4-0.1zM900.9 504.8L462 223.4c-0.4-0.4-0.9-0.7-1.4-1-0.9-0.6-1.9-1.2-2.8-1.7l-65.4-41.9c-4-2.6-8.7-4-13.5-4h-67.8c-8.4 0-16.2 4.2-20.8 11.2l-135 202.9c-0.1 0.1-0.2 0.2-0.2 0.4-16.6 26-9.1 60.6 16.9 77.3l405.9 260.2c16.7 10.7 35.7 16.1 54.8 16.1 17.1 0 34.1-4.3 49.6-13l215.5-120.6c18.9-10.6 30.5-29.8 31.2-51.4 0.6-21.6-9.9-41.5-28.1-53.1z m-703.8-88.4l127.4-191.5h47.1l39.6 25.4-147.8 215.4-64.4-41.2c-2.7-1.8-3.6-5.4-1.9-8.1z m681.9 140c-0.1 2.3-0.9 6.6-5.6 9.2L657.9 686.3c-16.6 9.3-37 8.7-53-1.6l-299.4-192 147.8-215.5L874 546.9c4.5 2.9 5.1 7.2 5 9.5z" fill="#898A8C" p-id="6274"></path></svg>
