<svg xmlns="http://www.w3.org/2000/svg" xmlns:xlink="http://www.w3.org/1999/xlink" fill="none" version="1.1" width="9.333333015441895" height="11.377777099609375" viewBox="0 0 9.333333015441895 11.377777099609375"><g transform="matrix(1,0,0,-1,0,22.75555419921875)"><path d="M4.66667,11.377777099609375C4.66667,11.377777099609375,9.33333,17.400737099609376,9.33333,17.400737099609376C9.33333,17.400737099609376,6.27022,16.715737099609374,6.27022,16.715737099609374C6.27022,16.715737099609374,6.221,16.736707099609376,6.221,16.736707099609376C6.221,16.736707099609376,6.18286,17.017527099609374,6.18286,17.017527099609374C5.74152,19.839917099609373,3.91226,22.090977099609376,1.55816,22.755577099609376C2.30701,21.681177099609375,2.60023,21.396077099609375,2.87227,19.868837099609372C3.05362,18.850667099609375,3.13639,17.805497099609376,3.12057,16.733327099609376C3.12057,16.733327099609376,3.203,16.732447099609374,3.203,16.732447099609374C3.203,16.732447099609374,3.16553,16.715737099609374,3.16553,16.715737099609374C3.16553,16.715737099609374,0,17.400737099609376,0,17.400737099609376C0,17.400737099609376,4.66667,11.377777099609375,4.66667,11.377777099609375C4.66667,11.377777099609375,4.66667,11.377777099609375,4.66667,11.377777099609375Z" fill="#6dd455" fill-opacity="1"/></g></svg>