<svg xmlns="http://www.w3.org/2000/svg" xmlns:xlink="http://www.w3.org/1999/xlink" fill="none" version="1.1" width="9.333333015441895" height="11.377777099609375" viewBox="0 0 9.333333015441895 11.377777099609375"><g><path d="M4.66667,0C4.66667,0,9.33333,6.02296,9.33333,6.02296C9.33333,6.02296,6.27022,5.33796,6.27022,5.33796C6.27022,5.33796,6.221,5.35893,6.221,5.35893C6.221,5.35893,6.18286,5.63975,6.18286,5.63975C5.74152,8.46214,3.91226,10.7132,1.55816,11.3778C2.30701,10.3034,2.60023,10.0183,2.87227,8.49106C3.05362,7.47289,3.13639,6.42772,3.12057,5.35555C3.12057,5.35555,3.203,5.35467,3.203,5.35467C3.203,5.35467,3.16553,5.33796,3.16553,5.33796C3.16553,5.33796,0,6.02296,0,6.02296C0,6.02296,4.66667,0,4.66667,0C4.66667,0,4.66667,0,4.66667,0Z" fill="#F53F3F" fill-opacity="1"/></g></svg>