<svg xmlns="http://www.w3.org/2000/svg" xmlns:xlink="http://www.w3.org/1999/xlink" fill="none" version="1.1" width="33" height="25" viewBox="0 0 33 25"><g><path d="M33,24.1071L33,25L0,25L0,23.2143L1.83333,23.2143L1.83333,0L22,0L22,8.92857L31.1667,8.92857L31.1667,23.2143L33,23.2143L33,25L22,25L22,23.2143L33,23.2143L33,24.1071ZM5.5,7.14286L7.33333,7.14286L7.33333,3.57143L5.5,3.57143L5.5,7.14286ZM11,7.14286L12.8333,7.14286L12.8333,3.57143L11,3.57143L11,7.14286ZM5.5,12.5L7.33333,12.5L7.33333,8.92857L5.5,8.92857L5.5,12.5ZM11,12.5L12.8333,12.5L12.8333,8.92857L11,8.92857L11,12.5ZM5.5,17.8571L7.33333,17.8571L7.33333,14.2857L5.5,14.2857L5.5,17.8571ZM11,17.8571L12.8333,17.8571L12.8333,14.2857L11,14.2857L11,17.8571ZM16.5,7.14286L18.3333,7.14286L18.3333,3.57143L16.5,3.57143L16.5,7.14286ZM16.5,12.5L18.3333,12.5L18.3333,8.92857L16.5,8.92857L16.5,12.5ZM16.5,17.8571L18.3333,17.8571L18.3333,14.2857L16.5,14.2857L16.5,17.8571ZM22,14.2857L27.5,14.2857L27.5,12.5L22,12.5L22,14.2857ZM22,17.8571L27.5,17.8571L27.5,16.0714L22,16.0714L22,17.8571ZM22,21.4286L27.5,21.4286L27.5,19.6429L22,19.6429L22,21.4286ZM5.5,21.4286L18.3333,21.4286L18.3333,19.6429L5.5,19.6429L5.5,21.4286Z" fill="#1A1A1A" fill-opacity="1"/></g></svg>