<svg xmlns="http://www.w3.org/2000/svg" xmlns:xlink="http://www.w3.org/1999/xlink" fill="none" version="1.1" width="48" height="48" viewBox="0 0 48 48"><g><g style="opacity:0;"><path d="M48,0C48,0,0,0,0,0C0,0,0,48,0,48C0,48,48,48,48,48C48,48,48,0,48,0C48,0,48,0,48,0Z" fill="#FFFFFF" fill-opacity="1"/></g><g><path d="M24,1.5C36.4264,1.5,46.5,11.5736,46.5,24C46.5,36.4264,36.4264,46.5,24,46.5C11.5736,46.5,1.5,36.4264,1.5,24C1.5,11.5736,11.5736,1.5,24,1.5C24,1.5,24,1.5,24,1.5Z" fill-rule="evenodd" fill="#E8FFEA" fill-opacity="1"/></g><g transform="matrix(0.7660443782806396,0.6427876949310303,-0.6427875757217407,0.7660444378852844,17.48484541770449,-15.606477334589727)"><path d="M31.686710625,16.21636981512225C31.686710625,16.21636981512225,33.186710625,16.21636981512225,33.186710625,16.21636981512225C34.015130625,16.21596136490625,34.686710625,16.88753362890625,34.686710625,17.71595962890625C34.686710625,17.71609962890625,34.686700625,17.716229628906248,34.686300625,17.71636962890625C34.686300625,17.71636962890625,34.682050625,33.31826962890625,34.682050625,33.31826962890625C34.681410625,34.146469628906246,34.009910625,34.81786962890625,33.181640625,34.81826962890625C33.181640625,34.81826962890625,30.181640625,34.81826962890625,30.181640625,34.81826962890625C30.181640625,34.81826962890625,30.186296935,17.71636962890625,30.186296935,17.71636962890625C30.186930985,16.88810262890625,30.858438625,16.21677826490625,31.686710625,16.21636981512225C31.686710625,16.21636981512225,31.686710625,16.21636981512225,31.686710625,16.21636981512225Z" fill-rule="evenodd" fill="#00B42A" fill-opacity="1"/></g><g transform="matrix(0.6691305637359619,-0.7431448698043823,0.7431447505950928,0.6691307425498962,-15.066182070600917,18.614283567800157)"><path d="M14.87110375,26.22674560546875C14.87110375,26.22674560546875,16.37520375,26.22674560546875,16.37520375,26.22674560546875C17.19056375,26.22674560546875,17.856593750000002,26.87804660546875,17.87483375,27.693195605468752C17.87483375,27.693195605468752,18.08302375,36.999745605468746,18.08302375,36.999745605468746C18.08302375,36.999745605468746,15.08206375,37.118745605468746,15.08206375,37.118745605468746C14.25428775,37.15164560546875,13.55663475,36.50714560546875,13.52381275,35.67939560546875C13.52340775,35.66918560546875,13.52310575,35.65896560546875,13.52290975,35.64875560546875C13.52290975,35.64875560546875,13.37137575,27.75553560546875,13.37137575,27.75553560546875C13.35547455,26.92726160546875,14.01403375,26.24292300546875,14.84230375,26.22702169446875C14.85190375,26.22683749416875,14.86150375,26.22674560546875,14.87110375,26.22674560546875C14.87110375,26.22674560546875,14.87110375,26.22674560546875,14.87110375,26.22674560546875Z" fill-rule="evenodd" fill="#00B42A" fill-opacity="1"/></g></g></svg>