<svg xmlns="http://www.w3.org/2000/svg" xmlns:xlink="http://www.w3.org/1999/xlink" fill="none" version="1.1" width="80" height="80" viewBox="0 0 80 80"><defs><clipPath id="master_svg0_3_1918"><rect x="0" y="0" width="80" height="80" rx="0"/></clipPath></defs><g clip-path="url(#master_svg0_3_1918)"><g><g><g><g><path d="M39.9914,79.9827C62.078,79.9827,79.9827,62.078,79.9827,39.9914C79.9827,17.9047,62.078,0,39.9914,0C17.9047,0,0,17.9047,0,39.9914C0,62.078,17.9047,79.9827,39.9914,79.9827C39.9914,79.9827,39.9914,79.9827,39.9914,79.9827Z" fill="#EBEEF6" fill-opacity="1"/></g></g><g><g transform="matrix(0.8660259246826172,0.499999076128006,-0.8660246133804321,0.5000014305114746,42.192237586644296,-1.4575475532695918)"><g><path d="M63.36739660034179,41.80175018310547C63.36739660034179,41.80175018310547,44.7172966003418,41.80175018310547,44.7172966003418,41.80175018310547C44.7172966003418,41.80175018310547,44.7172966003418,72.77175018310547,44.7172966003418,72.77175018310547C44.7172966003418,72.77175018310547,63.36739660034179,72.77175018310547,63.36739660034179,72.77175018310547C63.36739660034179,72.77175018310547,63.36739660034179,41.80175018310547,63.36739660034179,41.80175018310547C63.36739660034179,41.80175018310547,63.36739660034179,41.80175018310547,63.36739660034179,41.80175018310547Z" fill="#000000" fill-opacity="0.10000000149011612"/></g></g><g transform="matrix(0.8660252094268799,0.5000002980232239,-0.8660255670547485,0.4999997615814209,53.86915570368387,-1.7749046768282142)"><g><path d="M66.6858836529541,53.39355278015137C66.6858836529541,53.39355278015137,56.9433536529541,53.39355278015137,56.9433536529541,53.39355278015137C56.9433536529541,53.39355278015137,56.9433536529541,75.29745278015136,56.9433536529541,75.29745278015136C56.9433536529541,75.29745278015136,66.6858836529541,75.29745278015136,66.6858836529541,75.29745278015136C66.6858836529541,75.29745278015136,66.6858836529541,53.39355278015137,66.6858836529541,53.39355278015137C66.6858836529541,53.39355278015137,66.6858836529541,53.39355278015137,66.6858836529541,53.39355278015137Z" fill="#000000" fill-opacity="0.10000000149011612"/></g></g><g><g><path d="M33.593770027160645,57.748884201049805C33.593770027160645,57.748884201049805,35.72507002716065,57.748884201049805,35.72507002716065,57.748884201049805C35.72507002716065,57.748884201049805,35.21758002716064,64.20882420104981,35.21758002716064,64.20882420104981C35.21758002716064,64.2920842010498,35.16318002716064,64.3739142010498,35.05421002716064,64.43707420104981C34.83629002716064,64.56341420104981,34.482554027160646,64.56341420104981,34.264629027160645,64.43707420104981C34.155667027160646,64.3739142010498,34.10125702716064,64.2920842010498,34.10125702716064,64.20882420104981C34.10125702716064,64.20882420104981,33.593770027160645,57.748884201049805,33.593770027160645,57.748884201049805C33.593770027160645,57.748884201049805,33.593770027160645,57.748884201049805,33.593770027160645,57.748884201049805Z" fill-rule="evenodd" fill="#C4AD8E" fill-opacity="1"/></g><g transform="matrix(0.8660252690315247,-0.5000002384185791,0.866025447845459,0.4999999701976776,-45.57029200408769,45.45167607019676)"><g><path d="M34.02456764337158,59.48961124570847C34.505201643371585,59.48961124570847,34.89483164337158,59.09997124570847,34.89483164337158,58.61932124570846C34.89483164337158,58.13867324570847,34.505201643371585,57.749031245708466,34.02456764337158,57.749031245708466C33.54393364337158,57.749031245708466,33.15430164337158,58.13867324570847,33.15430164337158,58.61932124570846C33.15430164337158,59.09997124570847,33.54393364337158,59.48961124570847,34.02456764337158,59.48961124570847C34.02456764337158,59.48961124570847,34.02456764337158,59.48961124570847,34.02456764337158,59.48961124570847Z" fill="#FF7D00" fill-opacity="1"/></g></g></g><g><g><path d="M20.527329444885254,50.20491600036621C20.527329444885254,50.20491600036621,22.658629444885253,50.20491600036621,22.658629444885253,50.20491600036621C22.658629444885253,50.20491600036621,22.151139444885253,56.664856000366214,22.151139444885253,56.664856000366214C22.151139444885253,56.74811600036621,22.096739444885255,56.82994600036621,21.987769444885252,56.89310600036621C21.769849444885253,57.01944600036621,21.416113444885255,57.01944600036621,21.198188444885254,56.89310600036621C21.089226444885252,56.82994600036621,21.034816444885255,56.74811600036621,21.034816444885255,56.664856000366214C21.034816444885255,56.664856000366214,20.527329444885254,50.20491600036621,20.527329444885254,50.20491600036621C20.527329444885254,50.20491600036621,20.527329444885254,50.20491600036621,20.527329444885254,50.20491600036621Z" fill-rule="evenodd" fill="#C4AD8E" fill-opacity="1"/></g><g transform="matrix(0.866024911403656,-0.5000008344650269,0.8660251498222351,0.5000004768371582,-40.787575931842895,35.14645582971187)"><g><path d="M20.958127061096192,51.945644952373506C21.43876106109619,51.945644952373506,21.82839106109619,51.556004952373506,21.82839106109619,51.0753549523735C21.82839106109619,50.59470695237351,21.43876106109619,50.205064952373505,20.958127061096192,50.205064952373505C20.47749306109619,50.205064952373505,20.08786106109619,50.59470695237351,20.08786106109619,51.0753549523735C20.08786106109619,51.556004952373506,20.47749306109619,51.945644952373506,20.958127061096192,51.945644952373506C20.958127061096192,51.945644952373506,20.958127061096192,51.945644952373506,20.958127061096192,51.945644952373506Z" fill="#FF7D00" fill-opacity="1"/></g></g></g><g><g><path d="M53.55466175079346,46.23030662536621C53.55466175079346,46.23030662536621,55.68596175079346,46.23030662536621,55.68596175079346,46.23030662536621C55.68596175079346,46.23030662536621,55.178471750793456,52.690246625366214,55.178471750793456,52.690246625366214C55.178471750793456,52.77350662536621,55.124071750793455,52.85533662536621,55.015101750793455,52.91849662536621C54.797181750793456,53.04483662536621,54.44344575079346,53.04483662536621,54.22552075079346,52.91849662536621C54.11655875079346,52.85533662536621,54.062148750793455,52.77350662536621,54.062148750793455,52.690246625366214C54.062148750793455,52.690246625366214,53.55466175079346,46.23030662536621,53.55466175079346,46.23030662536621C53.55466175079346,46.23030662536621,53.55466175079346,46.23030662536621,53.55466175079346,46.23030662536621Z" fill-rule="evenodd" fill="#C4AD8E" fill-opacity="1"/></g><g transform="matrix(0.8660247921943665,-0.500001072883606,0.8660249710083008,0.5000007748603821,-32.92060975434589,49.672846113298846)"><g><path d="M53.98546032067871,47.971035577373506C54.466094320678714,47.971035577373506,54.85572432067871,47.581395577373506,54.85572432067871,47.1007455773735C54.85572432067871,46.62009757737351,54.466094320678714,46.230455577373505,53.98546032067871,46.230455577373505C53.50482632067871,46.230455577373505,53.11519432067871,46.62009757737351,53.11519432067871,47.1007455773735C53.11519432067871,47.581395577373506,53.50482632067871,47.971035577373506,53.98546032067871,47.971035577373506C53.98546032067871,47.971035577373506,53.98546032067871,47.971035577373506,53.98546032067871,47.971035577373506Z" fill="#FF7D00" fill-opacity="1"/></g></g></g><g><g><path d="M40.47852802276611,38.681495666503906C40.47852802276611,38.681495666503906,42.609828022766116,38.681495666503906,42.609828022766116,38.681495666503906C42.609828022766116,38.681495666503906,42.10233802276611,45.14143566650391,42.10233802276611,45.14143566650391C42.10233802276611,45.224695666503905,42.04793802276611,45.30652566650391,41.93896802276611,45.369685666503905C41.72104802276611,45.496025666503904,41.367312022766114,45.496025666503904,41.14938702276611,45.369685666503905C41.040425022766115,45.30652566650391,40.98601502276611,45.224695666503905,40.98601502276611,45.14143566650391C40.98601502276611,45.14143566650391,40.47852802276611,38.681495666503906,40.47852802276611,38.681495666503906C40.47852802276611,38.681495666503906,40.47852802276611,38.681495666503906,40.47852802276611,38.681495666503906Z" fill-rule="evenodd" fill="#C4AD8E" fill-opacity="1"/></g><g transform="matrix(0.8660252690315247,-0.5000002384185791,0.866025447845459,0.4999999701976776,-28.13506572194106,39.360365211789606)"><g><path d="M40.909330407348634,40.4222246185112C41.389964407348636,40.4222246185112,41.77959440734863,40.0325846185112,41.77959440734863,39.5519346185112C41.77959440734863,39.0712866185112,41.389964407348636,38.6816446185112,40.909330407348634,38.6816446185112C40.42869640734863,38.6816446185112,40.03906440734863,39.0712866185112,40.03906440734863,39.5519346185112C40.03906440734863,40.0325846185112,40.42869640734863,40.4222246185112,40.909330407348634,40.4222246185112C40.909330407348634,40.4222246185112,40.909330407348634,40.4222246185112,40.909330407348634,40.4222246185112Z" fill="#FF7D00" fill-opacity="1"/></g></g></g><g><g transform="matrix(0.8660261034965515,-0.4999987781047821,0.8660245537757874,0.5000015497207642,-20.97187252039049,23.68887653929525)"><g><path d="M44.85137181549072,27.31931495666504C44.85137181549072,27.31931495666504,20.058571815490723,27.31931495666504,20.058571815490723,27.31931495666504C20.058571815490723,27.31931495666504,20.058571815490723,44.10461495666504,20.058571815490723,44.10461495666504C20.058571815490723,44.10461495666504,44.85137181549072,44.10461495666504,44.85137181549072,44.10461495666504C44.85137181549072,44.10461495666504,44.85137181549072,27.31931495666504,44.85137181549072,27.31931495666504C44.85137181549072,27.31931495666504,44.85137181549072,27.31931495666504,44.85137181549072,27.31931495666504Z" fill="#FDF3E4" fill-opacity="1"/></g></g><g transform="matrix(0.8660246729850769,-0.5000012516975403,0,1,4.6341874165649415,17.294971846759267)"><g><path d="M59.382479171752934,35.7080192565918C59.382479171752934,35.7080192565918,34.58997917175293,35.7080192565918,34.58997917175293,35.7080192565918C34.58997917175293,35.7080192565918,34.58997917175293,62.0018192565918,34.58997917175293,62.0018192565918C34.58997917175293,62.0018192565918,59.382479171752934,62.0018192565918,59.382479171752934,62.0018192565918C59.382479171752934,62.0018192565918,59.382479171752934,35.7080192565918,59.382479171752934,35.7080192565918C59.382479171752934,35.7080192565918,59.382479171752934,35.7080192565918,59.382479171752934,35.7080192565918Z" fill="#C4AD8E" fill-opacity="1"/></g></g><g transform="matrix(0.8660246133804321,-0.5000013709068298,0,1,4.784641940342453,17.85647042962239)"><g><path d="M57.92904294128418,36.9018883404541C57.92904294128418,36.6432193404541,57.74504294128418,36.4306583404541,57.52124294128418,36.4306583404541C57.52124294128418,36.4306583404541,36.12064294128418,36.4306583404541,36.12064294128418,36.4306583404541C35.89477894128418,36.4306583404541,35.71284294128418,36.6432193404541,35.71284294128418,36.9018883404541C35.71284294128418,36.9018883404541,35.71284294128418,59.5213583404541,35.71284294128418,59.5213583404541C35.71284294128418,59.7825583404541,35.89477894128418,59.9925583404541,36.12064294128418,59.9925583404541C36.12064294128418,59.9925583404541,57.52124294128418,59.9925583404541,57.52124294128418,59.9925583404541C57.74504294128418,59.9925583404541,57.92904294128418,59.7825583404541,57.92904294128418,59.5213583404541C57.92904294128418,59.5213583404541,57.92904294128418,36.9018883404541,57.92904294128418,36.9018883404541C57.92904294128418,36.9018883404541,57.92904294128418,36.9018883404541,57.92904294128418,36.9018883404541Z" fill-rule="evenodd" fill="#846133" fill-opacity="1"/></g></g><g transform="matrix(0.8660247325897217,-0.5000011324882507,0,1,4.784639216265077,17.85646763707598)"><g><path d="M57.193154385375976,36.8862907845459C57.193154385375976,36.6361897845459,57.015254385375975,36.4306697845459,56.798854385375975,36.4306697845459C56.798854385375975,36.4306697845459,36.10714538537598,36.4306697845459,36.10714538537598,36.4306697845459C35.888763385375974,36.4306697845459,35.71285438537598,36.6361897845459,35.71285438537598,36.8862907845459C35.71285438537598,36.8862907845459,35.71285438537598,58.7564697845459,35.71285438537598,58.7564697845459C35.71285438537598,59.0090697845459,35.888763385375974,59.2121697845459,36.10714538537598,59.2121697845459C36.10714538537598,59.2121697845459,56.798854385375975,59.2121697845459,56.798854385375975,59.2121697845459C57.015254385375975,59.2121697845459,57.193154385375976,59.0090697845459,57.193154385375976,58.7564697845459C57.193154385375976,58.7564697845459,57.193154385375976,36.8862907845459,57.193154385375976,36.8862907845459C57.193154385375976,36.8862907845459,57.193154385375976,36.8862907845459,57.193154385375976,36.8862907845459Z" fill-rule="evenodd" fill="#C4AD8E" fill-opacity="1"/></g></g><g transform="matrix(0.8660252094268799,0.5000002980232239,0,1,2.687342447102992,-10.02928997831583)"><g><path d="M36.84399007110596,27.314468383789062C36.84399007110596,27.314468383789062,20.058690071105957,27.314468383789062,20.058690071105957,27.314468383789062C20.058690071105957,27.314468383789062,20.058690071105957,53.60826838378907,20.058690071105957,53.60826838378907C20.058690071105957,53.60826838378907,36.84399007110596,53.60826838378907,36.84399007110596,53.60826838378907C36.84399007110596,53.60826838378907,36.84399007110596,27.314468383789062,36.84399007110596,27.314468383789062C36.84399007110596,27.314468383789062,36.84399007110596,27.314468383789062,36.84399007110596,27.314468383789062Z" fill="#F0DAB7" fill-opacity="1"/></g></g><g transform="matrix(0.8660249710083008,-0.5000007152557373,0.8660246729850769,0.5000013113021851,-19.882365483268586,21.650359056409343)"><g><path d="M46.28026651916504,25.68359375C46.28026651916504,25.68359375,17.61716651916504,25.68359375,17.61716651916504,25.68359375C17.61716651916504,25.68359375,17.61716651916504,43.40579375,17.61716651916504,43.40579375C17.61716651916504,43.40579375,46.28026651916504,43.40579375,46.28026651916504,43.40579375C46.28026651916504,43.40579375,46.28026651916504,25.68359375,46.28026651916504,25.68359375C46.28026651916504,25.68359375,46.28026651916504,25.68359375,46.28026651916504,25.68359375Z" fill="#FDF3E4" fill-opacity="1"/></g></g><g transform="matrix(0.8660251498222351,0.5000004172325134,0,1,2.360257244961872,-8.808590610037186)"><g><path d="M35.33946651916504,25.493152618408203C35.33946651916504,25.493152618408203,17.61716651916504,25.493152618408203,17.61716651916504,25.493152618408203C17.61716651916504,25.493152618408203,17.61716651916504,27.790132618408204,17.61716651916504,27.790132618408204C17.61716651916504,27.790132618408204,35.33946651916504,27.790132618408204,35.33946651916504,27.790132618408204C35.33946651916504,27.790132618408204,35.33946651916504,25.493152618408203,35.33946651916504,25.493152618408203C35.33946651916504,25.493152618408203,35.33946651916504,25.493152618408203,35.33946651916504,25.493152618408203Z" fill="#F0DAB7" fill-opacity="1"/></g></g><g transform="matrix(0.8660249710083008,-0.5000007152557373,0.8660246729850769,0.5000013113021851,-19.882365483268586,21.650359056409343)"><g><path d="M46.28026651916504,25.68359375C46.28026651916504,25.68359375,17.61716651916504,25.68359375,17.61716651916504,25.68359375C17.61716651916504,25.68359375,17.61716651916504,43.40579375,17.61716651916504,43.40579375C17.61716651916504,43.40579375,46.28026651916504,43.40579375,46.28026651916504,43.40579375C46.28026651916504,43.40579375,46.28026651916504,25.68359375,46.28026651916504,25.68359375C46.28026651916504,25.68359375,46.28026651916504,25.68359375,46.28026651916504,25.68359375Z" fill="#FDF3E4" fill-opacity="1"/></g></g><g><g transform="matrix(0.8660247921943665,-0.500001072883606,0,1,4.860523910264817,18.139678301037407)"><g><path d="M59.51947875518799,54.692397117614746C59.51947875518799,54.692397117614746,36.27927875518799,54.692397117614746,36.27927875518799,54.692397117614746C36.27927875518799,54.692397117614746,36.27927875518799,60.962317117614745,36.27927875518799,60.962317117614745C36.27927875518799,60.962317117614745,59.51947875518799,60.962317117614745,59.51947875518799,60.962317117614745C59.51947875518799,60.962317117614745,59.51947875518799,54.692397117614746,59.51947875518799,54.692397117614746C59.51947875518799,54.692397117614746,59.51947875518799,54.692397117614746,59.51947875518799,54.692397117614746Z" fill="#B09B80" fill-opacity="1"/></g></g><g transform="matrix(0.8660245537757874,-0.5000014305114746,0,1,6.058977638660679,22.612333618933462)"><g><path d="M49.06756577911377,52.666888295532225C49.06756577911377,52.38073929553223,48.86642577911377,52.14846229553223,48.61860577911377,52.14846229553223C48.61860577911377,52.14846229553223,45.67337777911377,52.14846229553223,45.67337777911377,52.14846229553223C45.425560779113766,52.14846229553223,45.22441577911377,52.38073929553223,45.22441577911377,52.666888295532225C45.22441577911377,52.95303629553223,45.425560779113766,53.18531229553223,45.67337777911377,53.18531229553223C45.67337777911377,53.18531229553223,48.61860577911377,53.18531229553223,48.61860577911377,53.18531229553223C48.86642577911377,53.18531229553223,49.06756577911377,52.95303629553223,49.06756577911377,52.666888295532225C49.06756577911377,52.666888295532225,49.06756577911377,52.666888295532225,49.06756577911377,52.666888295532225Z" fill-rule="evenodd" fill="#846133" fill-opacity="1"/></g></g><g transform="matrix(0.8660257458686829,-0.49999940395355225,0,1,6.058923726810406,22.612241968788)"><g><path d="M48.69466784942627,52.3292583881836C48.69466784942627,52.229465588183594,48.62443784942627,52.148460388183594,48.53819784942627,52.148460388183594C48.53819784942627,52.148460388183594,45.38100684942627,52.148460388183594,45.38100684942627,52.148460388183594C45.29444094942627,52.148460388183594,45.22453784942627,52.229465588183594,45.22453784942627,52.3292583881836C45.22453784942627,52.42905038818359,45.29444094942627,52.510055388183595,45.38100684942627,52.510055388183595C45.38100684942627,52.510055388183595,48.53819784942627,52.510055388183595,48.53819784942627,52.510055388183595C48.62443784942627,52.510055388183595,48.69466784942627,52.42905038818359,48.69466784942627,52.3292583881836C48.69466784942627,52.3292583881836,48.69466784942627,52.3292583881836,48.69466784942627,52.3292583881836Z" fill-rule="evenodd" fill="#F6DCB9" fill-opacity="1"/></g></g><g transform="matrix(0.8660260438919067,-0.49999886751174927,0.8660255074501038,0.49999988079071045,-42.29709029012105,45.039009939808466)"><g><path d="M58.95335057067871,54.36523723602295C58.95335057067871,54.36523723602295,35.71285057067871,54.36523723602295,35.71285057067871,54.36523723602295C35.71285057067871,54.36523723602295,35.71285057067871,55.02350423602295,35.71285057067871,55.02350423602295C35.71285057067871,55.02350423602295,58.95335057067871,55.02350423602295,58.95335057067871,55.02350423602295C58.95335057067871,55.02350423602295,58.95335057067871,54.36523723602295,58.95335057067871,54.36523723602295C58.95335057067871,54.36523723602295,58.95335057067871,54.36523723602295,58.95335057067871,54.36523723602295Z" fill="#F0DAB7" fill-opacity="1"/></g></g><g transform="matrix(0.8660237789154053,0.5000028014183044,0,1,4.784672763618346,-17.856525331972648)"><g><path d="M36.371114570678714,54.365238189697266C36.371114570678714,54.365238189697266,35.71285057067871,54.365238189697266,35.71285057067871,54.365238189697266C35.71285057067871,54.365238189697266,35.71285057067871,60.63516818969727,35.71285057067871,60.63516818969727C35.71285057067871,60.63516818969727,36.371114570678714,60.63516818969727,36.371114570678714,60.63516818969727C36.371114570678714,60.63516818969727,36.371114570678714,54.365238189697266,36.371114570678714,54.365238189697266C36.371114570678714,54.365238189697266,36.371114570678714,54.365238189697266,36.371114570678714,54.365238189697266Z" fill="#F0DAB7" fill-opacity="1"/></g></g></g><g><g transform="matrix(0.8660248517990112,-0.5000009536743164,0,1,4.860521747851294,18.13967397621036)"><g><path d="M59.51947875518799,48.23243427276611C59.51947875518799,48.23243427276611,36.27927875518799,48.23243427276611,36.27927875518799,48.23243427276611C36.27927875518799,48.23243427276611,36.27927875518799,54.50235427276611,36.27927875518799,54.50235427276611C36.27927875518799,54.50235427276611,59.51947875518799,54.50235427276611,59.51947875518799,54.50235427276611C59.51947875518799,54.50235427276611,59.51947875518799,48.23243427276611,59.51947875518799,48.23243427276611C59.51947875518799,48.23243427276611,59.51947875518799,48.23243427276611,59.51947875518799,48.23243427276611Z" fill="#C4AD8E" fill-opacity="1"/></g></g><g transform="matrix(0.8660245537757874,-0.5000014305114746,0,1,6.058977638660679,22.612333618933462)"><g><path d="M49.06756577911377,46.20692354333496C49.06756577911377,45.920774543334964,48.86642577911377,45.68849754333496,48.61860577911377,45.68849754333496C48.61860577911377,45.68849754333496,45.67337777911377,45.68849754333496,45.67337777911377,45.68849754333496C45.425560779113766,45.68849754333496,45.22441577911377,45.920774543334964,45.22441577911377,46.20692354333496C45.22441577911377,46.49307154333496,45.425560779113766,46.72534754333496,45.67337777911377,46.72534754333496C45.67337777911377,46.72534754333496,48.61860577911377,46.72534754333496,48.61860577911377,46.72534754333496C48.86642577911377,46.72534754333496,49.06756577911377,46.49307154333496,49.06756577911377,46.20692354333496C49.06756577911377,46.20692354333496,49.06756577911377,46.20692354333496,49.06756577911377,46.20692354333496Z" fill-rule="evenodd" fill="#846133" fill-opacity="1"/></g></g><g transform="matrix(0.8660257458686829,-0.49999940395355225,0,1,6.058923726810406,22.612241968788)"><g><path d="M48.69466784942627,45.86929363598633C48.69466784942627,45.76950083598633,48.62443784942627,45.68849563598633,48.53819784942627,45.68849563598633C48.53819784942627,45.68849563598633,45.38100684942627,45.68849563598633,45.38100684942627,45.68849563598633C45.29444094942627,45.68849563598633,45.22453784942627,45.76950083598633,45.22453784942627,45.86929363598633C45.22453784942627,45.969085635986325,45.29444094942627,46.05009063598633,45.38100684942627,46.05009063598633C45.38100684942627,46.05009063598633,48.53819784942627,46.05009063598633,48.53819784942627,46.05009063598633C48.62443784942627,46.05009063598633,48.69466784942627,45.969085635986325,48.69466784942627,45.86929363598633C48.69466784942627,45.86929363598633,48.69466784942627,45.86929363598633,48.69466784942627,45.86929363598633Z" fill-rule="evenodd" fill="#F6DCB9" fill-opacity="1"/></g></g><g transform="matrix(0.8660260438919067,-0.49999886751174927,0.8660255074501038,0.49999988079071045,-36.70259934111476,41.80902870097111)"><g><path d="M58.95335057067871,47.90527629852295C58.95335057067871,47.90527629852295,35.71285057067871,47.90527629852295,35.71285057067871,47.90527629852295C35.71285057067871,47.90527629852295,35.71285057067871,48.56354329852295,35.71285057067871,48.56354329852295C35.71285057067871,48.56354329852295,58.95335057067871,48.56354329852295,58.95335057067871,48.56354329852295C58.95335057067871,48.56354329852295,58.95335057067871,47.90527629852295,58.95335057067871,47.90527629852295C58.95335057067871,47.90527629852295,58.95335057067871,47.90527629852295,58.95335057067871,47.90527629852295Z" fill="#F0DAB7" fill-opacity="1"/></g></g><g transform="matrix(0.8660237789154053,0.5000028014183044,0,1,4.784672763618346,-17.856525331972648)"><g><path d="M36.371114570678714,47.90527820587158C36.371114570678714,47.90527820587158,35.71285057067871,47.90527820587158,35.71285057067871,47.90527820587158C35.71285057067871,47.90527820587158,35.71285057067871,54.175208205871584,35.71285057067871,54.175208205871584C35.71285057067871,54.175208205871584,36.371114570678714,54.175208205871584,36.371114570678714,54.175208205871584C36.371114570678714,54.175208205871584,36.371114570678714,47.90527820587158,36.371114570678714,47.90527820587158C36.371114570678714,47.90527820587158,36.371114570678714,47.90527820587158,36.371114570678714,47.90527820587158Z" fill="#F0DAB7" fill-opacity="1"/></g></g></g><g><g transform="matrix(0.8660248517990112,-0.5000009536743164,0,1,4.860521747851294,18.13967397621036)"><g><path d="M59.51947875518799,41.7382698059082C59.51947875518799,41.7382698059082,36.27927875518799,41.7382698059082,36.27927875518799,41.7382698059082C36.27927875518799,41.7382698059082,36.27927875518799,48.0081898059082,36.27927875518799,48.0081898059082C36.27927875518799,48.0081898059082,59.51947875518799,48.0081898059082,59.51947875518799,48.0081898059082C59.51947875518799,48.0081898059082,59.51947875518799,41.7382698059082,59.51947875518799,41.7382698059082C59.51947875518799,41.7382698059082,59.51947875518799,41.7382698059082,59.51947875518799,41.7382698059082Z" fill="#C4AD8E" fill-opacity="1"/></g></g><g transform="matrix(0.8660242557525635,-0.5000019669532776,0,1,6.058991116623247,22.612357879266085)"><g><path d="M49.06768784942627,39.71275907647705C49.06768784942627,39.426610076477054,48.86654784942627,39.19433307647705,48.61872784942627,39.19433307647705C48.61872784942627,39.19433307647705,45.67349984942627,39.19433307647705,45.67349984942627,39.19433307647705C45.425682849426266,39.19433307647705,45.22453784942627,39.426610076477054,45.22453784942627,39.71275907647705C45.22453784942627,39.99890707647705,45.425682849426266,40.23118307647705,45.67349984942627,40.23118307647705C45.67349984942627,40.23118307647705,48.61872784942627,40.23118307647705,48.61872784942627,40.23118307647705C48.86654784942627,40.23118307647705,49.06768784942627,39.99890707647705,49.06768784942627,39.71275907647705C49.06768784942627,39.71275907647705,49.06768784942627,39.71275907647705,49.06768784942627,39.71275907647705Z" fill-rule="evenodd" fill="#846133" fill-opacity="1"/></g></g><g transform="matrix(0.8660253882408142,-0.5,0,1,6.058939900365488,22.612268924713135)"><g><path d="M48.69467784942627,39.37513012280274C48.69467784942627,39.275337422802735,48.62443784942627,39.194332122802734,48.53820784942627,39.194332122802734C48.53820784942627,39.194332122802734,45.38100684942627,39.194332122802734,45.38100684942627,39.194332122802734C45.29444094942627,39.194332122802734,45.22453784942627,39.275337422802735,45.22453784942627,39.37513012280274C45.22453784942627,39.47492212280273,45.29444094942627,39.55592812280273,45.38100684942627,39.55592812280273C45.38100684942627,39.55592812280273,48.53820784942627,39.55592812280273,48.53820784942627,39.55592812280273C48.62443784942627,39.55592812280273,48.69467784942627,39.47492212280273,48.69467784942627,39.37513012280274C48.69467784942627,39.37513012280274,48.69467784942627,39.37513012280274,48.69467784942627,39.37513012280274Z" fill-rule="evenodd" fill="#F6DCB9" fill-opacity="1"/></g></g><g transform="matrix(0.8660260438919067,-0.49999886751174927,0.8660255074501038,0.49999988079071045,-31.078484785520857,38.56194426286561)"><g><path d="M58.95335057067871,41.41110897064209C58.95335057067871,41.41110897064209,35.71285057067871,41.41110897064209,35.71285057067871,41.41110897064209C35.71285057067871,41.41110897064209,35.71285057067871,42.06937597064209,35.71285057067871,42.06937597064209C35.71285057067871,42.06937597064209,58.95335057067871,42.06937597064209,58.95335057067871,42.06937597064209C58.95335057067871,42.06937597064209,58.95335057067871,41.41110897064209,58.95335057067871,41.41110897064209C58.95335057067871,41.41110897064209,58.95335057067871,41.41110897064209,58.95335057067871,41.41110897064209Z" fill="#F0DAB7" fill-opacity="1"/></g></g><g transform="matrix(0.8660238981246948,0.5000026226043701,0,1,4.784668506314802,-17.85651894601733)"><g><path d="M36.371114570678714,41.411109924316406C36.371114570678714,41.411109924316406,35.71285057067871,41.411109924316406,35.71285057067871,41.411109924316406C35.71285057067871,41.411109924316406,35.71285057067871,47.68103992431641,35.71285057067871,47.68103992431641C35.71285057067871,47.68103992431641,36.371114570678714,47.68103992431641,36.371114570678714,47.68103992431641C36.371114570678714,47.68103992431641,36.371114570678714,41.411109924316406,36.371114570678714,41.411109924316406C36.371114570678714,41.411109924316406,36.371114570678714,41.411109924316406,36.371114570678714,41.411109924316406Z" fill="#F0DAB7" fill-opacity="1"/></g></g></g><g><path d="M36.27928352355957,41.7387723059082C36.27928352355957,41.7387723059082,36.27928352355957,54.5062323059082,36.27928352355957,54.5062323059082C36.27928352355957,54.5062323059082,47.03768352355957,48.294732305908205,47.03768352355957,48.294732305908205C47.03768352355957,48.294732305908205,47.03768352355957,35.5273323059082,47.03768352355957,35.5273323059082C47.03768352355957,35.5273323059082,36.27928352355957,41.7387723059082,36.27928352355957,41.7387723059082C36.27928352355957,41.7387723059082,36.27928352355957,41.7387723059082,36.27928352355957,41.7387723059082Z" fill-rule="evenodd" fill="#000000" fill-opacity="0.10000000149011612"/></g><g><g transform="matrix(0.8660249710083008,-0.5000007152557373,0.8660248517990112,0.5000010132789612,-26.769432148242345,36.07416970434184)"><g><path d="M57.212446755981446,36.43551540374756C57.212446755981446,36.43551540374756,35.712846755981445,36.43551540374756,35.712846755981445,36.43551540374756C35.712846755981445,36.43551540374756,35.712846755981445,49.39711540374756,35.712846755981445,49.39711540374756C35.712846755981445,49.39711540374756,57.212446755981446,49.39711540374756,57.212446755981446,49.39711540374756C57.212446755981446,49.39711540374756,57.212446755981446,36.43551540374756,57.212446755981446,36.43551540374756C57.212446755981446,36.43551540374756,57.212446755981446,36.43551540374756,57.212446755981446,36.43551540374756Z" fill="#FDF3E4" fill-opacity="1"/></g></g><g transform="matrix(0.866025447845459,-0.49999991059303284,0.8660253882408142,0.5000000596046448,-26.511865295394728,36.41598969023019)"><g><path d="M56.74568950958252,36.269500732421875C56.74568950958252,36.269500732421875,36.56248950958252,36.269500732421875,36.56248950958252,36.269500732421875C36.56248950958252,36.269500732421875,36.56248950958252,48.24610073242187,36.56248950958252,48.24610073242187C36.56248950958252,48.24610073242187,56.74568950958252,48.24610073242187,56.74568950958252,48.24610073242187C56.74568950958252,48.24610073242187,56.74568950958252,36.269500732421875,56.74568950958252,36.269500732421875C56.74568950958252,36.269500732421875,56.74568950958252,36.269500732421875,56.74568950958252,36.269500732421875Z" fill="#846133" fill-opacity="1"/></g></g><g transform="matrix(0.8660255670547485,-0.4999997019767761,0.8660255670547485,0.4999997615814209,-27.610094492642816,38.786612162599965)"><g><path d="M56.242317543029785,38.0029239654541C56.242317543029785,38.0029239654541,39.569817543029785,38.0029239654541,39.569817543029785,38.0029239654541C39.569817543029785,38.0029239654541,39.569817543029785,46.5054139654541,39.569817543029785,46.5054139654541C39.569817543029785,46.5054139654541,56.242317543029785,46.5054139654541,56.242317543029785,46.5054139654541C56.242317543029785,46.5054139654541,56.242317543029785,38.0029239654541,56.242317543029785,38.0029239654541C56.242317543029785,38.0029239654541,56.242317543029785,38.0029239654541,56.242317543029785,38.0029239654541Z" fill="#F0DAB7" fill-opacity="1"/></g></g><g transform="matrix(0.8660256862640381,-0.4999994933605194,0,1,6.289194263065156,23.47161823404346)"><g><path d="M68.442784034729,42.915008544921875C68.442784034729,42.915008544921875,46.943284034729004,42.915008544921875,46.943284034729004,42.915008544921875C46.943284034729004,42.915008544921875,46.943284034729004,47.86838854492188,46.943284034729004,47.86838854492188C46.943284034729004,47.86838854492188,68.442784034729,47.86838854492188,68.442784034729,47.86838854492188C68.442784034729,47.86838854492188,68.442784034729,42.915008544921875,68.442784034729,42.915008544921875C68.442784034729,42.915008544921875,68.442784034729,42.915008544921875,68.442784034729,42.915008544921875Z" fill="#C4AD8E" fill-opacity="1"/></g></g><g transform="matrix(0.8660256862640381,-0.4999994933605194,0,1,6.289194263065156,23.47161823404346)"><g><path d="M68.442784034729,42.915008544921875C68.442784034729,42.915008544921875,46.943284034729004,42.915008544921875,46.943284034729004,42.915008544921875C46.943284034729004,42.915008544921875,46.943284034729004,47.86838854492188,46.943284034729004,47.86838854492188C46.943284034729004,47.86838854492188,68.442784034729,47.86838854492188,68.442784034729,47.86838854492188C68.442784034729,47.86838854492188,68.442784034729,42.915008544921875,68.442784034729,42.915008544921875C68.442784034729,42.915008544921875,68.442784034729,42.915008544921875,68.442784034729,42.915008544921875Z" fill="#C4AD8E" fill-opacity="1"/></g></g><g transform="matrix(0.8660253882408142,0.5,0,1,4.784614778947912,-17.856423377990723)"><g><path d="M48.67456882629395,36.430667877197266C48.67456882629395,36.430667877197266,35.712968826293945,36.430667877197266,35.712968826293945,36.430667877197266C35.712968826293945,36.430667877197266,35.712968826293945,41.240367877197265,35.712968826293945,41.240367877197265C35.712968826293945,41.240367877197265,48.67456882629395,41.240367877197265,48.67456882629395,41.240367877197265C48.67456882629395,41.240367877197265,48.67456882629395,36.430667877197266,48.67456882629395,36.430667877197266C48.67456882629395,36.430667877197266,48.67456882629395,36.430667877197266,48.67456882629395,36.430667877197266Z" fill="#F0DAB7" fill-opacity="1"/></g></g><g transform="matrix(0.8660248517990112,-0.5000009536743164,0,1,6.187188697145416,23.090851480116726)"><g><path d="M69.42181487579346,42.6904182434082C69.42181487579346,42.6904182434082,46.18161487579346,42.6904182434082,46.18161487579346,42.6904182434082C46.18161487579346,42.6904182434082,46.18161487579346,48.9603382434082,46.18161487579346,48.9603382434082C46.18161487579346,48.9603382434082,69.42181487579346,48.9603382434082,69.42181487579346,48.9603382434082C69.42181487579346,48.9603382434082,69.42181487579346,42.6904182434082,69.42181487579346,42.6904182434082C69.42181487579346,42.6904182434082,69.42181487579346,42.6904182434082,69.42181487579346,42.6904182434082Z" fill="#C4AD8E" fill-opacity="1"/></g></g><g><g transform="matrix(0.866024911403656,-0.5000008344650269,0,1,6.263074360627172,23.37406483129996)"><g><path d="M69.98812957305908,43.01757478713989C69.98812957305908,43.01757478713989,46.74792957305908,43.01757478713989,46.74792957305908,43.01757478713989C46.74792957305908,43.01757478713989,46.74792957305908,49.28749478713989,46.74792957305908,49.28749478713989C46.74792957305908,49.28749478713989,69.98812957305908,49.28749478713989,69.98812957305908,49.28749478713989C69.98812957305908,49.28749478713989,69.98812957305908,43.01757478713989,69.98812957305908,43.01757478713989C69.98812957305908,43.01757478713989,69.98812957305908,43.01757478713989,69.98812957305908,43.01757478713989Z" fill="#C4AD8E" fill-opacity="1"/></g></g><g transform="matrix(0.8660245537757874,-0.5000014305114746,0,1,7.461535646699247,27.84673313137091)"><g><path d="M59.5363348526001,40.992065011383055C59.5363348526001,40.70591601138306,59.3351948526001,40.47363901138306,59.0873748526001,40.47363901138306C59.0873748526001,40.47363901138306,56.1421468526001,40.47363901138306,56.1421468526001,40.47363901138306C55.894329852600094,40.47363901138306,55.6931848526001,40.70591601138306,55.6931848526001,40.992065011383055C55.6931848526001,41.27821301138306,55.894329852600094,41.51048901138306,56.1421468526001,41.51048901138306C56.1421468526001,41.51048901138306,59.0873748526001,41.51048901138306,59.0873748526001,41.51048901138306C59.3351948526001,41.51048901138306,59.5363348526001,41.27821301138306,59.5363348526001,40.992065011383055C59.5363348526001,40.992065011383055,59.5363348526001,40.992065011383055,59.5363348526001,40.992065011383055Z" fill-rule="evenodd" fill="#846133" fill-opacity="1"/></g></g><g transform="matrix(0.8660260438919067,-0.49999886751174927,0,1,7.461452657204859,27.846590389440564)"><g><path d="M59.1634469229126,40.65443510403443C59.1634469229126,40.554642404034425,59.0932069229126,40.473637104034424,59.0069769229126,40.473637104034424C59.0069769229126,40.473637104034424,55.8497759229126,40.473637104034424,55.8497759229126,40.473637104034424C55.763210022912595,40.473637104034424,55.6933069229126,40.554642404034425,55.6933069229126,40.65443510403443C55.6933069229126,40.75422710403442,55.763210022912595,40.83523310403442,55.8497759229126,40.83523310403442C55.8497759229126,40.83523310403442,59.0069769229126,40.83523310403442,59.0069769229126,40.83523310403442C59.0932069229126,40.83523310403442,59.1634469229126,40.75422710403442,59.1634469229126,40.65443510403443C59.1634469229126,40.65443510403443,59.1634469229126,40.65443510403443,59.1634469229126,40.65443510403443Z" fill-rule="evenodd" fill="#F6DCB9" fill-opacity="1"/></g></g><g transform="matrix(0.8660261631011963,-0.49999865889549255,0.8660255670547485,0.4999997615814209,-30.78386181138052,44.43596265764958)"><g><path d="M69.42260315704345,42.69041395187378C69.42260315704345,42.69041395187378,46.18210315704346,42.69041395187378,46.18210315704346,42.69041395187378C46.18210315704346,42.69041395187378,46.18210315704346,43.34868095187378,46.18210315704346,43.34868095187378C46.18210315704346,43.34868095187378,69.42260315704345,43.34868095187378,69.42260315704345,43.34868095187378C69.42260315704345,43.34868095187378,69.42260315704345,42.69041395187378,69.42260315704345,42.69041395187378C69.42260315704345,42.69041395187378,69.42260315704345,42.69041395187378,69.42260315704345,42.69041395187378Z" fill="#F0DAB7" fill-opacity="1"/></g></g><g transform="matrix(0.8660268187522888,0.4999975264072418,0,1,6.187097860066672,-23.09069320338861)"><g><path d="M46.83988487579346,42.690414905548096C46.83988487579346,42.690414905548096,46.18161487579346,42.690414905548096,46.18161487579346,42.690414905548096C46.18161487579346,42.690414905548096,46.18161487579346,48.960354905548094,46.18161487579346,48.960354905548094C46.18161487579346,48.960354905548094,46.83988487579346,48.960354905548094,46.83988487579346,48.960354905548094C46.83988487579346,48.960354905548094,46.83988487579346,42.690414905548096,46.83988487579346,42.690414905548096C46.83988487579346,42.690414905548096,46.83988487579346,42.690414905548096,46.83988487579346,42.690414905548096Z" fill="#F0DAB7" fill-opacity="1"/></g></g></g></g><g transform="matrix(0.8660256862640381,-0.4999994933605194,0,1,4.416961184107322,16.484341607445998)"><g><path d="M61.631738691711426,34.54587745666504C61.631738691711426,34.54587745666504,32.968838691711426,34.54587745666504,32.968838691711426,34.54587745666504C32.968838691711426,34.54587745666504,32.968838691711426,36.84284745666504,32.968838691711426,36.84284745666504C32.968838691711426,36.84284745666504,61.631738691711426,36.84284745666504,61.631738691711426,36.84284745666504C61.631738691711426,36.84284745666504,61.631738691711426,34.54587745666504,61.631738691711426,34.54587745666504C61.631738691711426,34.54587745666504,61.631738691711426,34.54587745666504,61.631738691711426,34.54587745666504Z" fill="#C4AD8E" fill-opacity="1"/></g></g></g><g><g transform="matrix(0.8660256266593933,0.49999961256980896,-0.8660252094268799,0.5000004172325134,34.28830279123588,-9.589845847563936)"><g><path d="M58.8932717779541,32.5350233930664C58.8932717779541,32.08501739306641,58.5764017779541,31.719215393066406,58.186471777954104,31.719215393066406C58.186471777954104,31.719215393066406,51.6052387779541,31.719215393066406,51.6052387779541,31.719215393066406C51.2153047779541,31.719215393066406,50.8984317779541,32.08501739306641,50.8984317779541,32.5350233930664C50.8984317779541,32.5350233930664,50.8984317779541,39.06057539306641,50.8984317779541,39.06057539306641C50.8984317779541,39.51058539306641,51.2153047779541,39.87544539306641,51.6052387779541,39.87544539306641C51.6052387779541,39.87544539306641,58.186471777954104,39.87544539306641,58.186471777954104,39.87544539306641C58.5764017779541,39.87544539306641,58.8932717779541,39.51058539306641,58.8932717779541,39.06057539306641C58.8932717779541,39.06057539306641,58.8932717779541,32.5350233930664,58.8932717779541,32.5350233930664C58.8932717779541,32.5350233930664,58.8932717779541,32.5350233930664,58.8932717779541,32.5350233930664Z" fill-rule="evenodd" fill="#FFFFFF" fill-opacity="1"/></g></g><g><g transform="matrix(0.8660246729850769,-0.5000012516975403,0.8660246729850769,0.5000013113021851,-24.853659820683063,40.69089850631238)"><g><path d="M48.62954662139892,41.76643994987488C50.28892662139893,41.76643994987488,51.63412662139893,40.42113994987488,51.63412662139893,38.76161994987488C51.63412662139893,37.10210994987488,50.28892662139893,35.75680994987488,48.62954662139892,35.75680994987488C46.970166621398924,35.75680994987488,45.624966621398926,37.10210994987488,45.624966621398926,38.76161994987488C45.624966621398926,40.42113994987488,46.970166621398924,41.76643994987488,48.62954662139892,41.76643994987488C48.62954662139892,41.76643994987488,48.62954662139892,41.76643994987488,48.62954662139892,41.76643994987488Z" fill="#FF7D00" fill-opacity="1"/></g></g><g transform="matrix(0.8660247921943665,-0.500001072883606,0.8660247921943665,0.5000011324882507,-24.02487304459669,41.70650333335021)"><g><path d="M48.2212976529126,47.20674476776123L48.2212976529126,47.20544476776123Q48.2212976529126,47.20304476776123,48.222175372912595,47.20104476776123Q48.2230682729126,47.19894476776123,48.225292772912596,47.19634476776123Q48.227063372912596,47.19434476776123,48.227759572912596,47.19284476776123Q48.228455672912595,47.19144476776123,48.228455672912595,47.189744767761226Q48.228455672912595,47.187844767761234,48.227063372912596,47.186744767761226Q48.2256711729126,47.18554476776123,48.2232044729126,47.18554476776123Q48.2206469229126,47.18554476776123,48.2184526029126,47.186544767761234Q48.2162734129126,47.18744476776123,48.214321232912596,47.18934476776123L48.212928972312596,47.18634476776123Q48.2147449629126,47.18464476776123,48.217529472912595,47.183544767761234Q48.220329122912595,47.18254476776123,48.2233860729126,47.18254476776123Q48.2273963729126,47.18254476776123,48.229847972912594,47.18454476776123Q48.2323146729126,47.18644476776123,48.2323146729126,47.189744767761226Q48.2323146729126,47.19184476776123,48.2313612729126,47.19374476776123Q48.2304078729126,47.19564476776123,48.228047072912595,47.19814476776123Q48.225852772912596,47.200444767761226,48.2249447729126,47.20214476776123Q48.2240367729126,47.20384476776123,48.223809772912595,47.20564476776123L48.2237189729126,47.20674476776123L48.2212976529126,47.20674476776123ZM48.220132392912596,47.21544476776123L48.220132392912596,47.21064476776123L48.2248842729126,47.21064476776123L48.2248842729126,47.21544476776123L48.220132392912596,47.21544476776123Z" fill="#FFFFFF" fill-opacity="1"/></g></g></g></g></g></g></g></g></svg>