<svg xmlns="http://www.w3.org/2000/svg" xmlns:xlink="http://www.w3.org/1999/xlink" fill="none" version="1.1" width="13.33333444595337" height="14.000001430511475" viewBox="0 0 13.33333444595337 14.000001430511475"><g><path d="M2.3333367461395262,6.666666746139526C2.3333367461395262,4.273436746139526,4.273436746139526,2.3333367461395262,6.666666746139526,2.3333367461395262C9.059906746139527,2.3333367461395262,10.999966746139526,4.273436746139526,10.999966746139526,6.666666746139526C10.999966746139526,6.666666746139526,10.999966746139526,10.999966746139526,10.999966746139526,10.999966746139526C10.999966746139526,10.999966746139526,2.3333367461395262,10.999966746139526,2.3333367461395262,10.999966746139526C2.3333367461395262,10.999966746139526,2.3333367461395262,6.666666746139526,2.3333367461395262,6.666666746139526C2.3333367461395262,6.666666746139526,2.3333367461395262,6.666666746139526,2.3333367461395262,6.666666746139526Z" fill="#4E5969" fill-opacity="1"/><path d="M10.999966746139526,11.666666746139526L1.6666667461395264,11.666666746139526L1.6666667461395264,6.666666746139526Q1.6666667461395264,4.595596746139526,3.1311367461395263,3.1311367461395263Q4.595606746139526,1.6666667461395264,6.666666746139526,1.6666667461395264Q8.737736746139527,1.6666667461395264,10.202186746139526,3.1311367461395263Q11.666666746139526,4.595596746139526,11.666666746139526,6.666666746139526L11.666666746139526,11.666666746139526L10.999966746139526,11.666666746139526ZM10.999966746139526,10.333296746139526L10.999966746139526,10.999966746139526L10.333296746139526,10.999966746139526L10.333296746139526,6.666666746139526Q10.333296746139526,5.147876746139526,9.259376746139527,4.0739467461395265Q8.185446746139526,3.0000067461395266,6.666666746139526,3.0000067461395266Q5.147886746139527,3.0000067461395266,4.0739467461395265,4.0739467461395265Q3.0000067461395266,5.147886746139527,3.0000067461395266,6.666666746139526L3.0000067461395266,10.999966746139526L2.3333367461395262,10.999966746139526L2.3333367461395262,10.333296746139526L10.999966746139526,10.333296746139526Z" fill="#4E5969" fill-opacity="1"/></g></svg>