<svg t="1689563371770" class="icon" viewBox="0 0 1048 1024" version="1.1" xmlns="http://www.w3.org/2000/svg" p-id="2881" width="200" height="200"><path d="M1030.447595 997.346554c0-79.160734-222.645117-143.319385-497.289836-143.319385S35.880615 918.185821 35.880615 997.346554z" fill="#707070" p-id="2882"></path><path d="M54.626872 949.83996h939.127813v37.492514H54.626872z" fill="#707070" p-id="2883"></path><path d="M1021.220426 1024H26.653446a26.653446 26.653446 0 0 1-26.653446-26.653446c0-28.696877 17.070897-54.880714 50.768468-77.815369 27.389588-18.657412 65.808627-35.19524 114.229053-49.143877 96.257015-27.744968 223.762023-43.026277 359.021914-43.026277s262.726822 15.23054 359.021914 43.026277c48.395042 13.961329 86.81408 30.461081 114.229053 49.143877 33.659494 22.934655 50.768468 49.118493 50.768468 77.815369a26.653446 26.653446 0 0 1-26.653446 26.653446z m-950.08111-53.306891h905.582548c-19.330094-15.89053-54.791869-33.596034-108.542984-49.080417-91.599008-26.399603-213.849479-40.932077-344.24829-40.932077s-252.661973 14.532474-344.24829 40.932077c-53.738423 15.484383-89.21289 33.189886-108.530292 49.080417z" fill="#707070" p-id="2884"></path><path d="M81.914923 952.340307a26.653446 26.653446 0 0 1-26.653446-26.653445V167.142489a26.653446 26.653446 0 0 1 26.653446-26.653446h178.628855V26.653446a26.653446 26.653446 0 0 1 26.653446-26.653446h379.722756a26.653446 26.653446 0 0 1 26.653446 26.653446v827.373723a26.653446 26.653446 0 0 1-53.306892 0V53.306891H313.850669v113.835598a26.653446 26.653446 0 0 1-26.653445 26.653446H108.568369v731.890927a26.653446 26.653446 0 0 1-26.653446 26.653445zM993.792762 976.493406a26.653446 26.653446 0 0 1-26.653446-26.653446V238.205652H820.723054v626.241745a26.653446 26.653446 0 0 1-53.306891 0V211.552206a26.653446 26.653446 0 0 1 26.653445-26.653445H993.792762a26.653446 26.653446 0 0 1 26.653445 26.653445v738.287754a26.653446 26.653446 0 0 1-26.653445 26.653446z" fill="#707070" p-id="2885"></path><path d="M244.48825 430.833912H155.732276A13.326723 13.326723 0 0 1 142.405553 417.570649V251.456222a13.326723 13.326723 0 0 1 13.326723-13.326723h88.755974a13.326723 13.326723 0 0 1 13.326723 13.326723V417.570649a13.326723 13.326723 0 0 1-13.326723 13.263263z m-75.429251-26.653446h62.102528V264.782945H169.058999zM244.48825 675.817154H155.732276A13.326723 13.326723 0 0 1 142.405553 662.528508V496.426772a13.326723 13.326723 0 0 1 13.326723-13.326722h88.755974a13.326723 13.326723 0 0 1 13.326723 13.326722V662.528508a13.326723 13.326723 0 0 1-13.326723 13.288646z m-75.429251-26.653446h62.102528V509.753495H169.058999zM452.1059 221.274368h-100.42003a13.326723 13.326723 0 0 1-13.326723-13.326723V107.514923a13.326723 13.326723 0 0 1 13.326723-13.326723h100.432722a13.326723 13.326723 0 0 1 13.326723 13.326723v100.42003a13.326723 13.326723 0 0 1-13.339415 13.339415z m-87.093307-26.653446h73.779276V120.841646h-73.779276zM599.740605 221.274368h-100.42003a13.326723 13.326723 0 0 1-13.326723-13.326723V107.514923a13.326723 13.326723 0 0 1 13.326723-13.326723h100.432722A13.326723 13.326723 0 0 1 613.029251 107.514923v100.42003a13.326723 13.326723 0 0 1-13.288646 13.339415z m-87.093307-26.653446H586.375806V120.841646h-73.728508zM452.1059 408.686168h-100.42003a13.326723 13.326723 0 0 1-13.326723-13.326723v-100.369262a13.326723 13.326723 0 0 1 13.326723-13.326722h100.432722a13.326723 13.326723 0 0 1 13.326723 13.326722v100.42003A13.326723 13.326723 0 0 1 452.1059 408.686168z m-87.093307-26.653446h73.779276v-73.715816h-73.779276zM599.740605 408.686168h-100.42003a13.326723 13.326723 0 0 1-13.326723-13.326723v-100.369262a13.326723 13.326723 0 0 1 13.326723-13.326722h100.432722a13.326723 13.326723 0 0 1 13.326723 13.326722v100.42003A13.326723 13.326723 0 0 1 599.740605 408.686168z m-87.093307-26.653446H586.375806v-73.715816h-73.728508zM452.1059 783.687457h-100.42003a13.326723 13.326723 0 0 1-13.326723-13.326723v-100.432722a13.326723 13.326723 0 0 1 13.326723-13.326723h100.432722a13.326723 13.326723 0 0 1 13.326723 13.326723V770.411502a13.326723 13.326723 0 0 1-13.339415 13.275955z m-87.093307-26.653446h73.779276v-73.779276h-73.779276zM599.740605 783.687457h-100.42003a13.326723 13.326723 0 0 1-13.326723-13.326723v-100.432722a13.326723 13.326723 0 0 1 13.326723-13.326723h100.432722a13.326723 13.326723 0 0 1 13.326723 13.326723V770.411502a13.326723 13.326723 0 0 1-13.339415 13.275955z m-87.093307-26.653446H586.375806v-73.779276h-73.728508zM452.1059 596.212196h-100.42003a13.326723 13.326723 0 0 1-13.326723-13.326723v-100.420029a13.326723 13.326723 0 0 1 13.326723-13.326723h100.432722a13.326723 13.326723 0 0 1 13.326723 13.326723v100.420029a13.326723 13.326723 0 0 1-13.339415 13.326723z m-87.093307-26.653445h73.779276v-73.766584h-73.779276zM599.740605 596.212196h-100.42003a13.326723 13.326723 0 0 1-13.326723-13.326723v-100.420029a13.326723 13.326723 0 0 1 13.326723-13.326723h100.432722a13.326723 13.326723 0 0 1 13.326723 13.326723v100.420029a13.326723 13.326723 0 0 1-13.339415 13.326723z m-87.093307-26.653445H586.375806v-73.766584h-73.728508zM920.10233 509.753495h-57.647595a13.326723 13.326723 0 0 1-13.326723-13.326723V298.721666a13.326723 13.326723 0 0 1 13.326723-13.326723h57.660287a13.326723 13.326723 0 0 1 13.326723 13.326723v197.705106a13.326723 13.326723 0 0 1-13.339415 13.326723z m-44.333565-26.653445h31.006842V312.048389H875.756073zM920.10233 787.406247h-57.647595a13.326723 13.326723 0 0 1-13.326723-13.326723V576.374417a13.326723 13.326723 0 0 1 13.326723-13.326722h57.660287a13.326723 13.326723 0 0 1 13.326723 13.326722v197.705107a13.326723 13.326723 0 0 1-13.339415 13.326723z m-44.333565-26.653446h31.006842V589.70114H875.756073zM222.112048 886.861676a13.326723 13.326723 0 0 1-13.161726-11.295984c-6.587209-42.950124-48.56004-78.335746-48.978879-78.691126a13.326723 13.326723 0 1 1 17.058205-20.472385 206.741894 206.741894 0 0 1 36.807139 42.366287c5.076847-17.312048 13.542489-28.582647 25.384234-33.596034a13.326723 13.326723 0 0 1 10.458305 24.584631c-11.740208 4.962618-15.82707 39.739018-14.26594 62.927516a13.326723 13.326723 0 0 1-11.841745 14.151711 13.466336 13.466336 0 0 1-1.459593 0.025384z" fill="#707070" p-id="2886"></path><path d="M222.175508 890.808924a13.326723 13.326723 0 0 1-12.984036-10.369459c-3.909172-17.172434-38.406346-25.320773-54.49995-26.577293a13.326723 13.326723 0 0 1 2.068815-26.577293c7.044125 0.545761 69.146653 6.549132 78.411899 47.227367a13.339415 13.339415 0 0 1-13.00942 16.296678z" fill="#707070" p-id="2887"></path><path d="M666.91998 932.781755H354.110064a13.326723 13.326723 0 0 1 0-26.653446h312.809916a13.326723 13.326723 0 0 1 0 26.653446z" fill="#707070" p-id="2888"></path></svg>
